<svg width="225" height="272" viewBox="0 0 225 272" fill="none" xmlns="http://www.w3.org/2000/svg">
<g clip-path="url(#clip0_191_22276)">
<path d="M215.473 116.577C215.473 116.577 212.497 108.391 204.325 106.289C196.144 104.178 186.728 104.555 174.963 119.434C172.888 122.06 170.795 124.291 168.754 126.213C168.857 114.011 169.44 83.052 172.733 54.2208C176.944 17.2723 179.173 7.1127 179.173 7.1127C179.173 7.1127 168.103 8.63149 163.36 35.2489L158.481 3.38867C158.481 3.38867 151.406 9.7384 151.423 29.4311L141.999 9.34369C141.999 9.34369 135.302 16.3799 138.475 34.5109L128.75 19.7693C128.75 19.7693 124.9 29.843 126.289 42.4996L116.685 36.0983C116.685 36.0983 113.246 46.3094 116.933 61.4629L107.663 55.6109C107.663 55.6109 106.008 67.0232 109.747 77.5947L104.216 76.0501C104.216 76.0501 103.119 87.0249 108.367 99.3382L102.853 95.4511C102.853 95.4511 99.0881 109.197 105.168 120.009C101.301 118.224 97.6132 116.62 94.3631 115.35C75.403 107.91 52.1724 94.1469 30.614 45.4256C30.614 45.4256 28.6073 52.436 32.5434 64.1315L32.5348 64.123L17.4765 38.4666C17.4765 38.4666 14.6467 46.4295 18.8572 58.4597L7.56343 46.5239C7.56343 46.5239 3.7474 56.1515 14.2608 71.4423L14.2522 71.4337L1.98946 63.4451C1.98946 63.4451 -1.192 73.699 16.6447 88.5179H16.6361L1.7665 81.8593C1.7665 81.8593 0.788907 89.7106 13.7205 98.9349L6.88598 98.2313C6.88598 98.2313 5.23094 104.967 19.3202 111.806L8.67823 111.343C8.67823 111.343 12.0312 121.434 25.8203 125.14L15.7357 126.53C15.7357 126.53 18.0597 133.996 33.2123 137.368L33.178 137.359L25.7775 138.99C25.7775 138.99 30.0994 145.434 43.4084 147.613L36.1622 151.784C36.1622 151.784 40.2355 155.971 51.5635 156.932L46.4698 162.818C46.4698 162.818 54.2905 167.821 70.2321 166.662L65.5499 171.742C65.5499 171.742 74.777 178.049 91.5847 172.969L88.5233 178.933C88.5233 178.933 97.2702 182.923 105.58 178.066C94.8948 190.783 90.7186 203.946 89.9811 206.46C76.4149 215.023 56.9231 228.795 56.4515 237.539L48.9138 243.031C48.9138 243.031 51.9923 246.403 55.7655 246.214L48.9138 252.581C48.9138 252.581 52.0609 254.289 54.9851 254.126L54.9508 254.16L50.6803 260.853C50.6803 260.853 56.1857 262.621 60.4305 259.832L59.1098 269.322C59.1098 269.322 68.8514 265.598 72.959 259.205L70.8838 265.83C76.0547 263.281 79.3391 258.905 81.4229 254.409C88.6348 253.293 93.6685 243.34 96.5412 235.6L95.4179 236.99L97.6475 232.442L98.8394 226.393C98.8394 226.393 108.753 221.536 108.873 221.519C108.933 221.51 109.627 220.618 110.339 219.7C115.939 221.442 123.879 221.819 131.417 214.697C147.77 211.445 169.921 211.583 185.991 163.505C193.46 141.169 198.253 134.056 205.32 128.607C212.386 123.15 223.285 127.74 223.285 127.74C223.645 120.292 215.473 116.577 215.473 116.577Z" fill="#132C4E"/>
<path d="M146.947 141.366C134.959 136.201 123.262 130.546 111.514 125.089C105.64 122.377 99.757 119.657 93.78 117.341C90.7186 116.131 87.6401 114.886 84.6644 113.402L82.4348 112.286C81.6973 111.9 80.977 111.48 80.2481 111.077C79.5278 110.665 78.7903 110.279 78.0785 109.841L75.9604 108.511C70.335 104.933 65.1298 100.694 60.4562 95.9745L58.7154 94.1897C58.1323 93.5977 57.5492 93.0056 57.0175 92.3706L53.7417 88.6209C52.6955 87.3338 51.6922 86.0209 50.6717 84.7166C50.1744 84.0559 49.6427 83.4209 49.171 82.7431L47.7561 80.7094C43.8801 75.3551 40.6043 69.6317 37.4571 63.8569C35.9221 60.9566 34.5072 57.9963 33.0237 55.0703C31.6602 52.0928 30.3653 49.0809 29.0361 46.0863L32.2519 45.8632C32.2004 46.0863 32.1404 46.5153 32.0804 46.8414L31.9689 47.9397C31.9089 48.6776 31.9089 49.4413 31.8746 50.1878L31.9689 52.4617C32.0289 53.2254 32.1404 53.9805 32.2262 54.7442C32.2862 55.5079 32.4577 56.263 32.612 57.0095C32.7664 57.7646 32.8865 58.5283 33.058 59.2748L33.6754 61.5144C33.8898 62.2609 34.0613 63.016 34.3614 63.7368C36.3766 69.6146 39.2922 75.2264 42.8253 80.452L44.1116 82.4427C44.5318 83.112 45.0549 83.7127 45.5179 84.3477L48.3821 88.1403C48.8366 88.7925 49.3769 89.376 49.8914 89.9766L51.4435 91.7871C52.4897 92.9799 53.4759 94.2326 54.5478 95.4168L61.1337 102.376C62.2913 103.483 63.4318 104.607 64.5638 105.748C65.7043 106.881 66.8448 108.013 67.9682 109.18C66.6562 108.254 65.3613 107.292 64.0664 106.331C62.763 105.379 61.4681 104.409 60.1904 103.423C58.9041 102.444 57.7378 101.329 56.5115 100.273C55.2938 99.2095 54.0847 98.1283 52.8842 97.0471C51.7093 95.9316 50.6031 94.7475 49.4798 93.5805L47.799 91.8215C47.2416 91.2294 46.6585 90.6631 46.1525 90.0195L43.0568 86.244C42.5509 85.6004 42.0021 84.9998 41.5304 84.3305L40.1155 82.3226L38.7091 80.3147C38.246 79.6454 37.7658 78.9761 37.3714 78.2554L34.8845 73.9993C34.1127 72.5406 33.4524 71.0304 32.7321 69.5459C32.3548 68.808 32.0804 68.0271 31.7888 67.2549L30.9141 64.9295C30.5968 64.1658 30.3996 63.3507 30.1681 62.5527L29.4906 60.1501C29.2934 59.3435 29.1562 58.5111 28.9932 57.696C28.8389 56.8722 28.676 56.0571 28.6159 55.2161C28.5388 54.3752 28.4273 53.5429 28.3758 52.702L28.3158 50.1621C28.3758 49.304 28.3672 48.4631 28.4873 47.5965C28.5988 46.7212 28.7017 45.9318 28.9675 44.9193L30.1852 40.3887L32.1833 44.6962L36.4281 53.4056C37.9545 56.2458 39.4123 59.1204 40.9902 61.9263L43.4341 66.0879L44.6518 68.1644L45.9639 70.1809L48.5622 74.231C49.454 75.561 50.4059 76.8481 51.332 78.161L52.7212 80.1174C53.1929 80.7609 53.7074 81.3787 54.1962 82.0051C55.1995 83.2493 56.16 84.5279 57.1718 85.7549L60.3276 89.3502C60.8421 89.9594 61.3909 90.5344 61.9569 91.0921L63.6291 92.7911C68.1311 97.2702 73.0191 101.355 78.3444 104.795C83.6697 108.236 89.3723 111.042 95.315 113.453C101.421 115.968 107.329 118.739 113.16 121.674C116.076 123.15 118.974 124.634 121.83 126.204C124.703 127.749 127.55 129.336 130.362 130.984C135.988 134.287 141.562 137.677 146.947 141.366Z" fill="white"/>
<path d="M31.0513 64.9824L15.993 39.3347L19.0887 39.0429C18.9258 39.6007 18.7628 40.4072 18.6599 41.128C18.5485 41.866 18.4713 42.6211 18.4198 43.3762C18.3169 44.895 18.3426 46.4309 18.4627 47.9583C18.7457 51.013 19.346 54.0592 20.3236 57.0109C21.2926 59.9541 22.5446 62.8286 24.0453 65.5745C25.5631 68.3203 27.2953 70.9546 29.1819 73.4859C33.0065 78.5228 37.4485 83.1306 42.2336 87.3781C47.0015 91.6598 52.0523 95.6413 57.1547 99.6914C51.2977 96.8512 45.758 93.3674 40.5871 89.3516C39.3008 88.3391 38.0574 87.2665 36.7968 86.2282C35.5962 85.1042 34.3528 84.0316 33.1951 82.8732C32.0289 81.7062 30.8541 80.5564 29.7564 79.3208C28.6159 78.1281 27.5783 76.8409 26.5235 75.5624C24.4826 72.9539 22.5617 70.2338 20.8981 67.3335C19.2602 64.4247 17.8453 61.3699 16.7991 58.1607C15.7272 54.9687 15.0583 51.6222 14.8182 48.2243C14.7153 46.5253 14.7067 44.8177 14.8525 43.1016C14.9211 42.2435 15.024 41.394 15.1869 40.536C15.3584 39.6607 15.5214 38.8799 15.8558 37.8931L17.0563 34.375L18.9515 37.6013L34.0098 63.2405L31.0513 64.9824Z" fill="white"/>
<path d="M17.6395 59.6712L6.32002 47.7097L9.15846 47.1606L9.11558 47.3322L9.06413 47.5896C9.02983 47.7612 8.98695 47.9242 8.96123 48.0959L8.82402 49.1942C8.7983 49.5632 8.78972 49.9493 8.77257 50.3183C8.75542 50.6958 8.72112 51.0648 8.76399 51.4509L8.8326 52.6007C8.84975 52.9783 8.8669 53.3644 8.95265 53.742C9.08986 54.5057 9.20134 55.2693 9.34712 56.033C9.80161 57.5347 10.0932 59.062 10.7535 60.5122C11.045 61.2415 11.3109 61.988 11.6196 62.7088L12.7001 64.8368C15.6586 70.4915 19.7147 75.6142 24.1653 80.3851C25.2801 81.5778 26.515 82.6676 27.6726 83.8174L29.4306 85.5421C29.7221 85.8253 30.0137 86.1256 30.3138 86.4002L31.2571 87.1982C32.5177 88.2622 33.7611 89.3262 35.0046 90.4159L36.874 92.0377C37.5 92.5697 38.1774 93.0502 38.8292 93.5565L42.7481 96.6112C44.0601 97.6237 45.3293 98.7049 46.7099 99.623C49.4111 101.554 52.1124 103.502 54.7793 105.535C51.7951 104.042 48.8452 102.463 45.9038 100.867C44.4117 100.095 43.0054 99.1854 41.5904 98.2844L37.3456 95.5815C36.6425 95.1182 35.9221 94.6805 35.2447 94.1914L33.2209 92.6812C31.866 91.6773 30.5197 90.6648 29.1819 89.6351L28.1786 88.8714C27.8527 88.6054 27.544 88.3137 27.2181 88.0391L25.3144 86.3658C24.0624 85.2332 22.759 84.1434 21.5584 82.9421L18.0339 79.2524C17.4422 78.6432 16.8591 78.0254 16.3446 77.3304L14.7496 75.3139L13.1546 73.2974C12.6658 72.5938 12.2027 71.8559 11.7311 71.1351L10.3419 68.9556C9.86164 68.2348 9.5272 67.4196 9.11558 66.6559L7.94076 64.3306C7.60632 63.524 7.31476 62.6917 7.00605 61.8765C6.32859 60.2633 5.95985 58.5129 5.53966 56.7967C5.39388 55.9215 5.29955 55.0291 5.1795 54.1453C5.10232 53.7076 5.09374 53.2529 5.09374 52.8067L5.05944 51.4595C5.03372 51.0133 5.08517 50.5585 5.11947 50.1037C5.16235 49.649 5.1795 49.1942 5.2481 48.7394L5.51394 47.3665C5.56539 47.1348 5.64257 46.8946 5.71117 46.6629L5.81407 46.3111L5.96843 45.8906L6.88599 43.3164L8.80687 45.35L20.1349 57.3201L17.6395 59.6712Z" fill="white"/>
<path d="M13.3175 72.8753L1.05479 64.8867L3.62739 63.96L3.58451 64.3203C3.56736 64.4748 3.54164 64.6207 3.55021 64.7923C3.55879 65.1355 3.52449 65.4616 3.56736 65.8134L3.67884 66.8688C3.70457 67.2206 3.82463 67.581 3.88465 67.9328C3.97041 68.2846 4.03043 68.645 4.12476 68.9968L4.4935 70.0437L4.86224 71.0905L5.35961 72.103C6.60304 74.8489 8.51534 77.3201 10.4534 79.7399C14.5181 84.485 19.5518 88.4579 24.697 92.2162C29.9537 95.863 35.4505 99.2009 41.1188 102.29C42.5423 103.045 43.9401 103.852 45.355 104.641C46.0582 105.036 46.7614 105.431 47.4646 105.851L49.617 106.984C52.4726 108.52 55.3282 110.081 58.1237 111.806C54.9766 110.914 51.8895 109.85 48.8023 108.76L46.5041 107.91C45.7495 107.601 45.0034 107.275 44.2488 106.941C42.7567 106.271 41.2474 105.636 39.7639 104.933C36.754 103.646 33.9155 101.973 31.0256 100.419L28.8646 99.2438C28.1529 98.832 27.4669 98.3772 26.7637 97.9482L22.5875 95.3053C17.1679 91.5469 11.8512 87.4797 7.452 82.3227L5.89128 80.3062C5.38534 79.6283 4.81937 78.9934 4.39917 78.2383L3.06142 76.033C2.82131 75.6726 2.6498 75.2779 2.46972 74.8832L1.9209 73.6991C1.74082 73.3043 1.55216 72.9096 1.38923 72.5063L0.969034 71.2192L0.565992 69.9579C0.454513 69.5288 0.38591 69.0741 0.300157 68.6364C0.231554 68.1902 0.111499 67.7612 0.0857728 67.2979L0.00859464 65.9249C-0.0171314 65.4702 0.042896 64.9811 0.0686221 64.5177C0.0771974 64.286 0.12865 64.0286 0.171526 63.7798L0.240129 63.4108C0.265855 63.2821 0.317307 63.0933 0.360184 62.9474L0.977609 60.7422L2.93279 62.0207L15.1955 70.0094L13.3175 72.8753Z" fill="white"/>
<path d="M166.705 126.514C166.799 116.457 167.125 106.461 167.631 96.4469C168.137 86.4332 168.814 76.4367 169.74 66.4487C170.667 56.4522 171.867 46.5157 173.093 36.5793C173.719 31.611 174.371 26.6428 175.074 21.6831C175.795 16.6978 176.489 11.7982 177.484 6.74412V6.73554L179.388 8.8035C179.345 8.81208 178.985 8.91504 178.753 8.99227C178.496 9.1124 178.221 9.20679 177.964 9.35266C177.432 9.61866 176.918 9.97905 176.403 10.3223C175.923 10.7427 175.4 11.0945 174.963 11.5751L174.277 12.2615C174.054 12.5018 173.857 12.7592 173.642 13.008C171.961 15.0331 170.564 17.367 169.423 19.8555C169.097 20.4561 168.891 21.1168 168.617 21.7432C168.368 22.3868 168.085 23.0046 167.854 23.6567C167.434 24.9781 166.945 26.2652 166.585 27.6038C166.242 28.951 165.839 30.281 165.538 31.6368L164.672 35.7298L161.92 35.2493L162.726 31.0104C163.009 29.6031 163.403 28.2045 163.738 26.8058C164.089 25.4072 164.578 24.0343 164.99 22.6442C165.213 21.9577 165.504 21.2799 165.753 20.5934C166.027 19.9155 166.242 19.2205 166.576 18.5598C167.742 15.874 169.217 13.274 171.112 10.9058C171.353 10.614 171.584 10.3137 171.833 10.0305L172.639 9.19821C173.153 8.63188 173.788 8.15136 174.371 7.63652C175.014 7.17316 175.657 6.7098 176.386 6.32367C176.738 6.12631 177.132 5.96328 177.518 5.79167C177.956 5.63721 178.264 5.49992 178.916 5.37979L181.351 4.93359L180.82 7.44774C179.885 12.21 179.165 17.2126 178.453 22.1293C177.75 27.0718 177.107 32.0229 176.481 36.974C175.263 46.8933 174.054 56.8126 173.136 66.7319C172.21 76.6598 171.541 86.622 171.035 96.5928C170.529 106.555 170.203 116.552 170.109 126.497L166.705 126.514Z" fill="white"/>
<path d="M165.204 47.3055C163.943 43.7531 163.017 40.1492 162.194 36.5281C161.379 32.907 160.736 29.2602 160.05 25.622L159.107 20.1475L158.232 14.6644C157.683 11.0005 157.169 7.33651 156.783 3.6468L159.622 4.66791C159.579 4.71939 159.381 4.95107 159.261 5.10552C159.124 5.28572 158.987 5.47449 158.85 5.67185C158.584 6.06656 158.318 6.46986 158.078 6.89889C157.598 7.74838 157.152 8.64078 156.757 9.56749C155.977 11.4209 155.342 13.3602 154.862 15.3595C154.356 17.3502 154.013 19.3924 153.73 21.4518C153.439 23.5112 153.293 25.6048 153.19 27.6985C152.984 31.8945 153.13 36.1248 153.344 40.3723C153.559 44.6283 153.936 48.8929 154.185 53.2262C152.667 49.1589 151.595 44.9458 150.832 40.664C150.437 38.5274 150.189 36.3565 149.966 34.1856C149.803 32.0061 149.674 29.818 149.674 27.6213C149.657 23.228 150.069 18.7918 151.106 14.4328C151.655 12.2618 152.341 10.0995 153.31 8.02297C153.782 6.9847 154.339 5.9636 154.965 4.98539C155.282 4.49629 155.617 4.00719 155.994 3.54383C156.183 3.31216 156.38 3.08048 156.586 2.8488C156.817 2.59996 156.972 2.41976 157.323 2.11086L159.536 0L160.17 3.12338C160.908 6.75302 161.508 10.4084 162.083 14.0724L162.889 19.564L163.626 25.0728C164.064 28.754 164.544 32.4265 164.852 36.1248C165.153 39.8231 165.341 43.5385 165.204 47.3055Z" fill="white"/>
<path d="M102.844 198.771C98.7366 201.964 94.5518 204.958 90.3928 207.979C86.2423 210.999 82.0575 213.942 77.9928 217.014C73.9367 220.095 69.9406 223.244 66.2789 226.642C64.4438 228.341 62.6944 230.1 61.1766 231.97C59.6845 233.824 58.441 235.875 58.158 237.745L54.7279 237.651C54.7708 236.012 55.1738 234.484 55.7998 233.172C56.0742 232.477 56.4516 231.902 56.7946 231.267C57.1633 230.666 57.5578 230.108 57.9437 229.525C59.5558 227.285 61.3995 225.346 63.3118 223.501C65.2413 221.682 67.2136 219.94 69.2888 218.336C71.3469 216.714 73.4307 215.143 75.5832 213.676C77.727 212.2 79.8708 210.733 82.0918 209.386C83.1895 208.699 84.3043 208.022 85.4105 207.361L88.7978 205.439C93.3427 202.959 97.9734 200.633 102.844 198.771Z" fill="white"/>
<path d="M15.933 90.0895L1.06337 83.4308L3.46447 82.0751L3.4902 82.4526C3.49877 82.6157 3.50735 82.7701 3.55022 82.9503C3.63598 83.3021 3.64455 83.6453 3.77318 84.0057C3.88466 84.3575 4.00472 84.7093 4.09905 85.0697C4.22768 85.4215 4.40776 85.7648 4.55354 86.1166C4.72505 86.4598 4.82795 86.8288 5.05091 87.1549L5.65976 88.1588C5.87414 88.4849 6.03708 88.8367 6.28576 89.1542L7.03182 90.0895C7.9408 91.3851 9.18423 92.4577 10.299 93.6333C10.865 94.2082 11.551 94.6887 12.1684 95.2207C12.803 95.7356 13.429 96.2676 14.0722 96.7652L18.1883 99.5454L22.5532 101.999L23.6423 102.617L24.7828 103.158L27.0638 104.23C28.5988 104.926 30.0738 105.724 31.6774 106.29C34.8331 107.508 37.9202 108.89 41.1789 109.877C42.791 110.409 44.4032 110.949 46.0068 111.507C47.6018 112.108 49.2654 112.485 50.8861 113L55.7827 114.484L58.2266 115.257L60.6963 115.926C63.9893 116.844 67.2822 117.797 70.5666 118.878C67.145 118.56 63.7234 118.123 60.3105 117.642L57.755 117.265L55.2253 116.758L50.1658 115.686C46.7786 115.016 43.4685 114.012 40.1498 113.034C36.8054 112.142 33.5811 110.846 30.3053 109.688C23.8738 107.071 17.4509 104.179 11.7311 99.9058C11.0279 99.3566 10.3505 98.7731 9.65587 98.1982C8.97842 97.6062 8.25809 97.0913 7.62352 96.4392C6.37152 95.1263 5.05949 93.8907 4.01329 92.3548L3.19006 91.2478C2.91565 90.8789 2.70984 90.4498 2.46973 90.0466L1.77513 88.8281C1.52644 88.4334 1.38924 87.9614 1.20058 87.5324C1.02907 87.0862 0.823264 86.6572 0.677483 86.2024L0.308743 84.7952C0.171538 84.3318 0.154387 83.8084 0.0772089 83.3193C0.0343322 83.079 0.0343322 82.8044 0.0343322 82.5384L0.0257568 82.1351C0.0257568 81.9978 0.0429075 81.7919 0.0600582 81.6289L0.274442 79.2949L2.46116 80.2731L17.3308 86.9318L15.933 90.0895Z" fill="white"/>
<path d="M13.5491 100.644L6.71452 99.9403L8.55822 98.6446C8.57537 98.576 8.56679 98.6189 8.56679 98.6361V98.7133C8.56679 98.7733 8.55822 98.8334 8.56679 98.9106C8.56679 99.0479 8.59252 99.2024 8.60967 99.3568C8.66112 99.6743 8.74687 99.9918 8.84978 100.318C9.06416 100.97 9.42433 101.622 9.81879 102.249C10.6506 103.501 11.7825 104.643 13.026 105.681C15.5814 107.706 18.5399 109.379 21.6613 110.761C24.7656 112.176 28.0328 113.318 31.3343 114.347C34.6273 115.411 38.006 116.261 41.3932 117.085C48.1763 118.706 55.0795 119.908 61.9998 121.049C68.9287 122.19 75.8833 123.211 82.855 124.464C75.7804 124.636 68.7057 124.344 61.6568 123.709C54.6078 123.057 47.5932 122.001 40.6129 120.586C33.6583 119.084 26.7208 117.248 20.0749 114.296C16.7734 112.794 13.5233 111.018 10.6249 108.564C9.19279 107.32 7.83789 105.912 6.75739 104.205C6.24287 103.33 5.75408 102.412 5.47109 101.373C5.32531 100.858 5.21383 100.318 5.1538 99.7601C5.13665 99.477 5.11093 99.1938 5.1195 98.8935C5.1195 98.7476 5.12808 98.5931 5.14523 98.4301C5.1538 98.3529 5.16238 98.2757 5.17953 98.1813C5.19668 98.0869 5.20525 98.0182 5.23956 97.8466L5.57399 96.3965L7.08326 96.5509L13.9178 97.2546L13.5491 100.644Z" fill="white"/>
<path d="M88.3947 205.989C89.0635 203.234 89.9982 200.746 91.0101 198.215C92.0306 195.709 93.2054 193.264 94.5089 190.887C95.8038 188.51 97.2187 186.193 98.7708 183.979C100.306 181.748 101.961 179.603 103.727 177.552C105.494 175.501 107.38 173.562 109.361 171.726C111.359 169.907 113.46 168.208 115.647 166.638C120.046 163.531 124.831 161 129.856 159.232C125.312 162.013 121.007 165.016 117.088 168.465C115.107 170.156 113.263 172.001 111.445 173.854C109.679 175.75 107.972 177.707 106.36 179.732C103.187 183.825 100.323 188.158 97.879 192.723C96.6527 195.005 95.5122 197.331 94.4746 199.699C93.4284 202.042 92.4851 204.521 91.7219 206.864L88.3947 205.989Z" fill="white"/>
<path d="M19.243 113.514L8.60102 113.05L10.3075 110.794C10.419 111.051 10.6077 111.472 10.7963 111.815C10.9935 112.175 11.1908 112.536 11.4223 112.887C11.8682 113.591 12.357 114.269 12.8801 114.93C13.9435 116.225 15.1354 117.435 16.4818 118.456C17.1421 118.98 17.8538 119.443 18.557 119.906C19.3031 120.31 20.0062 120.79 20.7866 121.125C21.5584 121.477 22.3044 121.889 23.1277 122.155C23.9337 122.446 24.7227 122.781 25.5631 122.978C27.2095 123.485 28.9074 123.776 30.6397 124.085L33.298 124.446C34.1899 124.557 35.0903 124.634 35.9821 124.729C37.7744 124.926 39.5837 125.038 41.3846 125.209C43.194 125.329 45.0034 125.475 46.8213 125.561C50.4487 125.767 54.0932 125.93 57.7292 126.085L68.6713 126.488C70.4979 126.548 72.3244 126.642 74.151 126.754C75.9775 126.84 77.8041 126.986 79.6306 127.123C83.2837 127.432 86.954 127.766 90.5728 128.479C83.2409 129.002 75.9518 129.448 68.6285 129.543C64.9668 129.62 61.3051 129.577 57.6434 129.56C53.9818 129.525 50.3115 129.483 46.6327 129.328C42.9624 129.182 39.2836 129.011 35.5962 128.65C34.6701 128.556 33.7525 128.479 32.8264 128.367L30.048 128.007C28.1785 127.698 26.2662 127.363 24.4225 126.771C20.7266 125.664 17.1249 123.939 14.0978 121.408C12.5628 120.172 11.1993 118.731 9.99022 117.169C9.38137 116.388 8.83255 115.565 8.34376 114.689C8.09507 114.26 7.86354 113.814 7.64915 113.359C7.4262 112.887 7.24611 112.467 7.04031 111.866L6.2085 109.498L8.73822 109.61L19.3802 110.073L19.243 113.514Z" fill="white"/>
<path d="M149.828 32.9749L140.404 9.98715L143.234 10.5192C143.114 10.6908 142.865 11.0769 142.694 11.403C142.505 11.7462 142.325 12.1066 142.145 12.4584L141.665 13.5739L141.245 14.7323C141.09 15.1098 141.004 15.5217 140.884 15.925C140.773 16.3283 140.636 16.7144 140.55 17.1263C140.396 17.9586 140.181 18.7652 140.078 19.6061C139.564 22.9526 139.478 26.4192 139.752 29.8944C139.787 31.6363 140.147 33.3696 140.284 35.1201L141.133 40.3629C141.502 42.1048 141.819 43.8638 142.162 45.64C142.565 47.3905 142.942 49.1667 143.234 50.9858C142.299 49.4155 141.459 47.7852 140.644 46.1463C139.872 44.4902 139.229 42.7655 138.56 41.0579C137.986 39.316 137.446 37.5484 137 35.7465C136.802 34.8369 136.614 33.9359 136.442 33.0178C136.357 32.563 136.254 32.1082 136.194 31.6449L136.022 30.2548C135.499 26.5651 135.482 22.7467 136.082 18.9626C136.134 18.4906 136.237 18.0187 136.348 17.5468L136.674 16.1395C136.948 15.2128 137.214 14.2775 137.591 13.368L138.175 12.0122L138.869 10.6994C139.144 10.2703 139.392 9.84128 139.692 9.42941C140.018 9.00037 140.276 8.63998 140.764 8.1423L142.557 6.16016L143.586 8.6743L153.01 31.662L149.828 32.9749Z" fill="white"/>
<path d="M137.197 36.4251L127.292 20.6795L130.345 20.3792C129.882 21.9923 129.479 23.8115 129.145 25.5533C128.827 27.321 128.527 29.0972 128.356 30.882C127.961 34.4515 127.867 38.0469 128.107 41.625C128.339 45.2032 129.008 48.7298 129.908 52.2308C130.817 55.7403 132.12 59.1468 133.57 62.6563C130.894 59.9706 128.776 56.6927 127.241 53.1661C126.443 51.407 125.86 49.5622 125.363 47.6916C124.9 45.8124 124.557 43.9075 124.308 41.9854C123.854 38.1412 123.871 34.2542 124.308 30.4186C124.557 28.5051 124.874 26.6002 125.337 24.7296C125.792 22.8333 126.341 21.0399 127.138 19.1521L128.347 15.9258L130.191 18.8518L140.095 34.5974L137.197 36.4251Z" fill="white"/>
<path d="M30.8712 127.835L15.7872 128.229L17.3822 126.007L17.5109 126.239C17.5709 126.35 17.6052 126.445 17.6909 126.565C17.8453 126.788 17.9825 127.011 18.1369 127.234C18.5056 127.663 18.8143 128.118 19.2431 128.513L19.8519 129.13C20.0492 129.336 20.3064 129.499 20.5294 129.697C21.001 130.057 21.4126 130.46 21.9443 130.761L23.4621 131.722L25.1 132.528L25.9147 132.94C26.1891 133.077 26.4892 133.163 26.7722 133.283L28.4959 133.944C33.1694 135.6 38.2117 136.355 43.2712 136.896L47.1044 137.11L49.0167 137.231C49.6598 137.265 50.303 137.239 50.9461 137.248H54.805H56.7345L58.6725 137.17C59.9588 137.102 61.2537 137.085 62.5486 137.059C63.8435 137.025 65.1469 137.05 66.4418 136.956C69.0401 136.862 71.6556 136.793 74.3054 136.904C71.7928 137.694 69.2373 138.312 66.6647 138.895C65.3784 139.195 64.0836 139.419 62.7801 139.582C61.4767 139.762 60.1732 139.959 58.8612 140.105C53.6216 140.689 48.3221 140.792 43.0054 140.586C37.6972 140.191 32.3376 139.487 27.1667 137.634L25.2458 136.879C24.9285 136.75 24.6027 136.638 24.294 136.484L23.3678 136.003L21.5241 135.025L19.7747 133.833C19.1745 133.464 18.6599 132.957 18.1111 132.494C17.8453 132.254 17.5623 132.039 17.3136 131.773L16.5676 130.975C16.053 130.469 15.6414 129.834 15.2041 129.233C14.801 128.547 14.4495 128.006 14.1064 127.019L13.3518 124.857L15.7015 124.797L30.7855 124.402L30.8712 127.835Z" fill="white"/>
<path d="M33.5467 139.034L26.1462 140.664L27.201 138.039L27.6126 138.493L28.1443 139C28.5044 139.334 28.9075 139.643 29.2934 139.969L30.5368 140.862L31.8574 141.668C32.2862 141.951 32.7749 142.157 33.238 142.398C33.7097 142.612 34.1556 142.887 34.653 143.067L36.1193 143.65L36.8482 143.942L37.6114 144.174C39.6181 144.843 41.7019 145.315 43.8114 145.693C44.8748 145.83 45.9381 146.002 47.01 146.156C48.0819 146.268 49.171 146.31 50.2515 146.388L51.8723 146.499H53.5101L56.7859 146.508C57.875 146.465 58.9726 146.362 60.0703 146.302C61.1679 146.233 62.2656 146.225 63.3632 146.096C64.4609 145.976 65.5585 145.89 66.6647 145.778C67.7624 145.667 68.8857 145.658 69.992 145.504C72.2044 145.264 74.434 145.04 76.7236 144.972C74.6484 145.881 72.5131 146.628 70.3607 147.366C68.1911 148.018 65.9701 148.49 63.7577 148.996C61.5195 149.391 59.2556 149.657 56.9832 149.897L53.553 150.069L51.838 150.155L50.1143 150.103C45.5179 150.077 40.8615 149.382 36.3766 147.915L35.5362 147.649L34.713 147.306L33.0665 146.628C32.5177 146.413 32.0032 146.087 31.4715 145.821C30.9484 145.53 30.4082 145.281 29.9108 144.929C29.4048 144.594 28.8989 144.277 28.4015 143.934L26.978 142.801C26.5235 142.38 26.069 141.977 25.6403 141.514C25.2029 141.033 24.8256 140.63 24.3711 139.952L22.9562 137.867L25.4259 137.318L32.8264 135.688L33.5467 139.034Z" fill="white"/>
<path d="M46.0582 149.485L36.8225 153.364L37.3885 150.584C37.5771 150.73 38.0145 151.039 38.3746 151.262C38.7777 151.476 39.1636 151.725 39.5838 151.931C40.0125 152.128 40.4241 152.351 40.8701 152.523L42.1992 153.055C44.0344 153.656 45.9124 154.196 47.8675 154.488C48.8366 154.651 49.8056 154.84 50.8003 154.908C51.7951 154.994 52.7726 155.157 53.776 155.149L56.7773 155.277L59.7959 155.217C60.8078 155.226 61.8111 155.157 62.823 155.071L65.8586 154.857C67.8738 154.574 69.9062 154.402 71.9386 154.128L74.9828 153.699C76.0033 153.561 77.0323 153.467 78.0528 153.304C80.0937 152.986 82.1518 152.703 84.2528 152.523C82.3576 153.415 80.4196 154.205 78.4558 154.951C76.4835 155.664 74.4683 156.213 72.4445 156.788C71.4412 157.088 70.395 157.234 69.3745 157.465C68.3455 157.68 67.3164 157.886 66.2788 158.066L63.1402 158.469C62.0941 158.607 61.0479 158.753 59.9845 158.795C55.7654 159.164 51.452 159.01 47.1815 158.298C45.0463 157.946 42.9282 157.354 40.8615 156.573L39.3265 155.912C38.8206 155.681 38.3318 155.389 37.8344 155.132C37.337 154.857 36.8568 154.531 36.3852 154.205C35.8964 153.827 35.4847 153.544 34.9273 152.969L33.1094 151.193L35.4933 150.189L44.729 146.311L46.0582 149.485Z" fill="white"/>
<path d="M54.2219 158.34L47.5932 164.115L47.3959 161.377C47.6532 161.515 48.0734 161.721 48.4507 161.875C48.828 162.047 49.2396 162.193 49.6341 162.356C50.4402 162.647 51.2634 162.939 52.1038 163.171C53.776 163.677 55.4996 164.029 57.2404 164.338C60.722 164.921 64.2979 165.119 67.8824 165.084C71.4755 165.119 75.06 164.647 78.6617 164.243C80.4625 164.012 82.2547 163.72 84.0898 163.523C85.8992 163.239 87.7258 162.965 89.6038 162.819C87.9402 163.677 86.2251 164.415 84.4929 165.127C82.7264 165.711 80.9513 166.311 79.1419 166.775C77.3153 167.152 75.4973 167.641 73.6279 167.847L70.8324 168.242C69.8976 168.328 68.9544 168.396 68.0111 168.465C64.2465 168.688 60.4305 168.611 56.6487 168.01C54.7621 167.684 52.8756 167.298 51.0404 166.689C50.1143 166.414 49.2053 166.054 48.2963 165.685C47.8418 165.479 47.3959 165.299 46.95 165.059C46.4955 164.818 46.0925 164.612 45.5608 164.278L43.597 163.076L45.3636 161.54L51.9923 155.766L54.2219 158.34Z" fill="white"/>
<path d="M73.0877 167.848L66.6218 173.083L66.5104 170.337C66.7162 170.448 67.0849 170.628 67.4022 170.766C67.7195 170.92 68.0797 171.04 68.4227 171.186C68.7571 171.332 69.1258 171.435 69.4774 171.555C69.829 171.684 70.1892 171.787 70.5494 171.881C70.9181 171.976 71.2697 172.087 71.6384 172.173L72.7532 172.405C73.4821 172.593 74.2539 172.645 75 172.774C78.0271 173.16 81.1313 173.1 84.2185 172.765C87.3313 172.499 90.3756 171.658 93.4455 170.877C94.9719 170.457 96.4984 169.968 98.0762 169.573C99.6198 169.092 101.172 168.621 102.827 168.277C101.558 169.358 100.194 170.311 98.8137 171.246C97.3645 172.044 95.9067 172.868 94.3802 173.529C92.8195 174.112 91.2845 174.799 89.6467 175.185L87.2113 175.854C86.388 176.026 85.5562 176.18 84.7158 176.326C81.38 176.867 77.9327 177.047 74.5112 176.601C72.8047 176.36 71.0982 176.043 69.4431 175.477C68.6113 175.236 67.7967 174.884 66.9906 174.533C66.5875 174.335 66.1845 174.164 65.7986 173.932C65.387 173.709 65.044 173.503 64.5638 173.168L62.6257 171.898L64.4523 170.414L70.9181 165.18L73.0877 167.848Z" fill="white"/>
<path d="M92.7081 172.627L88.5233 178.934C88.5233 178.934 97.5617 183.507 106.274 177.175" stroke="white" stroke-width="4" stroke-miterlimit="10"/>
<path d="M102.844 216.003C105.425 216.835 107.844 217.556 110.253 218.096C112.646 218.654 115.047 219.006 117.405 218.852C119.755 218.731 122.036 218.165 124.18 217.23C126.315 216.269 128.321 214.965 130.234 213.437L130.628 213.085L131.074 213C136.871 211.884 142.548 211.129 147.873 209.301C153.199 207.525 158.121 204.736 162.314 201.021C164.415 199.176 166.353 197.125 168.154 194.946C169.92 192.74 171.558 190.424 173.068 188.013C176.06 183.173 178.556 177.999 180.743 172.687C182.946 167.384 184.662 161.893 186.651 156.35C188.649 150.849 190.801 145.358 193.631 140.098C195.055 137.472 196.693 134.915 198.656 132.573C199.634 131.397 200.706 130.299 201.829 129.269C202.404 128.763 202.97 128.256 203.562 127.793C204.128 127.338 204.788 126.798 205.517 126.377C208.39 124.635 211.734 124.095 214.847 124.215C216.416 124.275 217.96 124.481 219.46 124.798C220.987 125.133 222.402 125.528 223.945 126.137L221.57 127.63C221.604 126.635 221.493 125.656 221.158 124.721C220.841 123.786 220.335 122.893 219.7 122.07C219.066 121.246 218.294 120.499 217.445 119.822C217.025 119.487 216.579 119.169 216.116 118.878C215.67 118.595 215.155 118.294 214.761 118.114L214.161 117.831L213.861 117.144C213.612 116.561 213.209 115.832 212.814 115.197C212.411 114.553 211.965 113.927 211.494 113.335C210.542 112.15 209.444 111.112 208.252 110.254C207.052 109.396 205.731 108.77 204.342 108.366L203.819 108.22L203.244 108.083C202.858 107.997 202.473 107.912 202.087 107.834C201.315 107.68 200.552 107.568 199.788 107.5C196.736 107.199 193.717 107.568 190.887 108.701C188.066 109.834 185.416 111.584 183.006 113.669C180.588 115.763 178.402 118.166 176.301 120.688C174.088 123.331 171.721 125.845 169.114 128.119C166.508 130.376 163.66 132.375 160.582 133.928C157.521 135.473 154.253 136.734 150.849 137.077C153.919 135.644 156.706 133.86 159.373 131.946C162.023 130.015 164.535 127.922 166.868 125.648C169.209 123.383 171.395 120.954 173.394 118.371C174.44 117.033 175.52 115.669 176.678 114.381C177.844 113.094 179.07 111.85 180.374 110.683C182.981 108.341 185.948 106.238 189.369 104.874C192.765 103.501 196.59 102.995 200.209 103.432C201.109 103.527 202.001 103.673 202.876 103.861C203.313 103.947 203.75 104.05 204.179 104.153L204.822 104.316L205.508 104.514C207.326 105.089 209.041 105.981 210.542 107.114C212.051 108.238 213.337 109.611 214.435 111.086C214.975 111.824 215.473 112.597 215.91 113.403C216.356 114.227 216.725 114.991 217.085 115.969L216.185 114.991C217.488 115.626 218.517 116.312 219.572 117.136C220.609 117.951 221.57 118.895 222.41 119.967C223.242 121.04 223.954 122.267 224.4 123.606C224.871 124.944 225.051 126.386 224.991 127.793L224.888 130.187L222.616 129.286C221.45 128.823 220.061 128.419 218.749 128.145C217.411 127.862 216.064 127.682 214.727 127.63C212.06 127.527 209.419 128.008 207.292 129.303C206.752 129.612 206.289 129.998 205.723 130.453C205.174 130.882 204.659 131.346 204.145 131.8C203.124 132.736 202.164 133.714 201.281 134.778C199.505 136.889 197.988 139.248 196.641 141.737C193.957 146.722 191.839 152.094 189.875 157.517C188.872 160.237 187.997 162.957 187.02 165.737C186.068 168.517 185.039 171.272 183.915 173.992C181.677 179.432 179.105 184.778 175.975 189.823C174.397 192.337 172.682 194.783 170.812 197.108C168.909 199.416 166.842 201.604 164.578 203.595C160.067 207.594 154.674 210.657 148.971 212.545C143.268 214.484 137.351 215.265 131.752 216.355L132.592 215.917C130.723 217.951 128.407 219.667 125.817 220.877C124.505 221.452 123.142 221.906 121.736 222.215C120.329 222.498 118.897 222.627 117.474 222.636C116.05 222.636 114.644 222.438 113.272 222.155C111.9 221.872 110.562 221.469 109.301 220.911C106.789 219.804 104.482 218.208 102.844 216.003Z" fill="white"/>
<path d="M109.953 219.023C109.953 219.023 107.363 223.94 99.3711 226.36C99.3711 226.36 93.334 252.763 81.2771 254.436" stroke="white" stroke-width="4" stroke-miterlimit="10"/>
<path d="M85.0589 238.818C85.6677 241.513 85.6334 244.293 85.2818 247.022C84.9131 249.75 84.107 252.427 83.0608 255.027C82.5034 256.314 81.8688 257.584 81.1399 258.803C80.3939 260.013 79.5363 261.171 78.5931 262.261C76.6808 264.423 74.2968 266.217 71.6384 267.375L67.7109 269.117L69.2459 265.316L77.3582 245.177L72.5131 266.337L70.1206 264.286C72.2301 263.05 74.1339 261.549 75.7546 259.721C77.3839 257.902 78.7474 255.808 79.8879 253.56C81.0456 251.312 81.9117 248.901 82.7178 246.429C83.5153 243.958 84.2614 241.444 85.0589 238.818Z" fill="white"/>
<path d="M81.2857 233.438C79.9308 235.909 78.4644 238.286 76.9723 240.637C75.4716 242.988 73.928 245.305 72.333 247.587C70.7637 249.887 69.1173 252.118 67.4365 254.332C65.7214 256.52 63.9892 258.682 62.0683 260.707L62.4113 259.926L60.7992 269.597L58.4924 267.709C59.7358 267.263 61.065 266.662 62.3256 266.07C63.5947 265.461 64.8382 264.791 66.0216 264.054C68.3884 262.56 70.6265 260.844 72.3244 258.665L73.7051 259.54C72.9847 260.913 72.0415 262.157 70.9953 263.281C69.9405 264.397 68.7914 265.409 67.5737 266.319C66.356 267.228 65.0954 268.069 63.792 268.833C62.4799 269.614 61.1765 270.292 59.7101 270.918L56.9146 271.999L57.4119 269.039L59.0241 259.368L59.0498 259.094L59.3757 258.596C60.8849 256.254 62.5743 254.048 64.2893 251.869C66.0387 249.715 67.8138 247.579 69.6747 245.511C71.5098 243.425 73.3964 241.375 75.3258 239.358C77.2467 237.333 79.2105 235.342 81.2857 233.438Z" fill="white"/>
<path d="M81.7402 227.535C79.8879 230.135 77.8556 232.555 75.806 234.957C73.7394 237.343 71.6041 239.66 69.4346 241.942C67.2821 244.242 65.0954 246.507 62.9087 248.772C60.7134 251.029 58.501 253.269 56.2628 255.483L56.5201 255.165C55.8083 256.281 55.0708 257.379 54.3419 258.486C53.6216 259.593 52.8841 260.7 52.1295 261.781L51.2119 259.224C51.8294 259.404 52.6698 259.567 53.4158 259.636C54.1876 259.713 54.9508 259.721 55.6968 259.653C57.189 259.524 58.5867 259.061 59.7187 258.254L61.7167 261.043C60.0103 262.27 57.9693 262.905 56.0056 263.068C55.0194 263.162 54.0418 263.145 53.0728 263.051C52.0866 262.948 51.2034 262.802 50.1572 262.493L48.1077 261.875L49.2396 259.936C49.9085 258.795 50.6031 257.662 51.2977 256.538C52.0009 255.414 52.6869 254.281 53.3987 253.166L53.5101 252.994L53.6559 252.848C55.8855 250.626 58.1408 248.429 60.4047 246.241C62.6772 244.07 64.9582 241.899 67.2736 239.754C69.5718 237.6 71.8957 235.481 74.2882 233.422C76.6979 231.388 79.1333 229.371 81.7402 227.535Z" fill="white"/>
<path d="M74.1253 229.148C72.4017 231.508 70.5065 233.688 68.5771 235.816C66.6476 237.952 64.6152 239.977 62.6 242.02C58.5439 246.087 54.4106 250.06 50.0886 253.835L49.6341 251.021C50.0372 251.192 50.6374 251.39 51.1605 251.501C51.7008 251.621 52.241 251.699 52.7727 251.716C53.8275 251.75 54.7965 251.544 55.5597 251.072L57.3519 253.998C55.8941 254.899 54.1876 255.208 52.6612 255.148C51.8894 255.122 51.1348 255.019 50.4059 254.848C49.6598 254.667 49.0167 254.487 48.2192 254.144L45.9296 253.149L47.7647 251.33C51.8466 247.288 56.1085 243.452 60.4648 239.711C62.6515 237.849 64.8211 235.97 67.0935 234.202C69.3403 232.418 71.6556 230.693 74.1253 229.148Z" fill="white"/>
<path d="M68.3369 228.891C67.0506 230.521 65.6099 231.954 64.1436 233.344C62.6772 234.734 61.125 236.004 59.5815 237.283C56.4686 239.814 53.2957 242.259 49.9256 244.43L50.0714 241.779C50.2172 241.908 50.5259 242.139 50.7832 242.302C51.0576 242.474 51.3406 242.637 51.6321 242.774C52.2152 243.057 52.8155 243.263 53.4244 243.375C54.6335 243.607 55.834 243.426 56.9488 242.886L58.4495 245.975C57.592 246.387 56.6573 246.687 55.6968 246.824C54.7278 246.962 53.7502 246.927 52.8069 246.756C51.8637 246.584 50.9718 246.275 50.14 245.872C49.7198 245.675 49.3253 245.443 48.9309 245.194C48.5278 244.928 48.202 244.705 47.7561 244.319L46.2554 243.023L47.9018 241.667C50.9975 239.119 54.299 236.854 57.6692 234.665C59.3585 233.584 61.0393 232.495 62.8144 231.533C64.5809 230.538 66.3903 229.611 68.3369 228.891Z" fill="white"/>
<path d="M201.984 115.085C201.984 116.294 201.006 117.273 199.797 117.273C198.588 117.273 197.61 116.294 197.61 115.085C197.61 113.875 198.588 112.896 199.797 112.896C201.006 112.896 201.984 113.875 201.984 115.085Z" fill="white"/>
<path d="M125.346 44.6445L115.656 37.4624L118.306 36.6301C118.143 37.2994 117.997 38.1575 117.868 38.9469C117.748 39.7535 117.637 40.5601 117.542 41.3838C117.371 43.0141 117.251 44.6616 117.216 46.3177C117.122 49.6213 117.328 52.942 117.731 56.2456C118.151 59.5492 118.82 62.8356 119.609 66.122C120.389 69.417 121.367 72.6777 122.327 76.0413C120.209 73.2612 118.537 70.1635 117.156 66.9372C115.759 63.7108 114.807 60.2957 114.129 56.8205C113.469 53.3453 113.152 49.7843 113.246 46.2148C113.298 44.43 113.443 42.6452 113.726 40.8775C113.863 39.9937 114.026 39.1099 114.241 38.2261C114.455 37.3251 114.687 36.51 115.047 35.5403L115.784 33.3008L117.688 34.7166L127.378 41.8987L125.346 44.6445Z" fill="white"/>
<path d="M116.273 64.785L106.574 56.9337L109.353 55.8439C109.216 58.1779 109.138 60.6749 109.156 63.0946C109.181 65.5315 109.293 67.9685 109.567 70.3882C109.833 72.808 110.245 75.2192 110.854 77.596C111.454 79.9815 112.277 82.3154 113.323 84.6494C111.505 82.8474 110.039 80.6508 108.924 78.3082C107.792 75.9571 106.977 73.4601 106.42 70.9116C105.863 68.3632 105.545 65.7718 105.46 63.1718C105.382 60.5547 105.477 58.0063 105.966 55.3462L106.386 52.3516L108.744 54.2565L118.443 62.1078L116.273 64.785Z" fill="white"/>
<path d="M109.49 79.294L103.745 77.6894L105.914 76.205C105.931 77.5264 106.026 79.0195 106.128 80.4353C106.249 81.8683 106.403 83.2927 106.6 84.7171C106.995 87.5573 107.561 90.3803 108.307 93.1519C108.693 94.5334 109.096 95.9149 109.567 97.2706C110.039 98.6264 110.588 99.9564 111.111 101.312C112.174 104.015 113.315 106.692 114.335 109.661C111.762 107.859 109.747 105.439 108.135 102.805C107.329 101.484 106.66 100.085 106.043 98.6607C105.442 97.2363 104.842 95.8033 104.396 94.3103C103.453 91.3585 102.784 88.3124 102.45 85.2319C102.287 83.6874 102.175 82.1428 102.184 80.5897C102.184 79.0195 102.261 77.5178 102.51 75.8618L102.698 73.8281L104.671 74.3773L110.416 75.9819L109.49 79.294Z" fill="white"/>
<path d="M108.547 99.4599L102.844 95.4355C102.844 95.4355 98.3507 109.474 106.274 120.508" stroke="white" stroke-width="4" stroke-miterlimit="10"/>
<path d="M150.72 150.18C146.175 151.656 141.142 151.553 136.442 150.532C135.259 150.292 134.101 149.957 132.935 149.64C131.795 149.262 130.645 148.876 129.531 148.43C127.284 147.572 125.114 146.516 123.005 145.392C118.777 143.144 114.798 140.467 111.051 137.549C107.32 134.598 103.762 131.423 100.606 127.879C104.328 130.805 108.127 133.585 112.028 136.194C115.922 138.802 119.926 141.231 124.068 143.359C128.21 145.469 132.498 147.271 136.931 148.541C141.373 149.837 145.97 150.455 150.72 150.18Z" fill="white"/>
<path d="M90.5728 122.086C91.2845 122.558 91.9277 123.09 92.6223 123.553C93.3254 123.999 93.9943 124.497 94.7232 124.883C96.1296 125.741 97.6303 126.419 99.1567 127.011L100.314 127.423L101.498 127.758C102.287 127.981 103.084 128.153 103.899 128.307C105.52 128.599 107.166 128.77 108.864 128.753C107.235 129.251 105.494 129.345 103.787 129.208C102.072 129.071 100.374 128.702 98.7622 128.075C97.1672 127.432 95.6065 126.668 94.243 125.613C93.5227 125.141 92.9138 124.531 92.2792 123.974C91.6618 123.39 91.113 122.729 90.5728 122.086Z" fill="white"/>
</g>
<defs>
<clipPath id="clip0_191_22276">
<rect width="225" height="272" fill="white"/>
</clipPath>
</defs>
</svg>
