<svg width="24" height="24" viewBox="0 0 24 24" fill="none" xmlns="http://www.w3.org/2000/svg">
<path d="M12.0209 1.85547C6.42235 1.85547 1.90625 6.47153 1.90625 12.1748C1.90625 17.8782 6.42234 22.4885 12.0209 22.4885C17.6195 22.4885 22.128 17.8782 22.128 12.1748C22.128 6.47153 17.6195 1.85547 12.0209 1.85547ZM12.0209 2.81322C17.0922 2.81322 21.1684 6.97661 21.1684 12.1748C21.1684 17.3731 17.0922 21.5289 12.0209 21.5289C6.9496 21.5289 2.87152 17.3731 2.87152 12.1748C2.87152 6.97661 6.94959 2.81322 12.0209 2.81322ZM16.8153 9.5363C16.7971 9.53718 16.7789 9.53911 16.7609 9.54207C16.6691 9.55495 16.583 9.59408 16.513 9.65474L11.0838 14.1844L8.50726 11.6078C8.46433 11.5565 8.41117 11.5147 8.35117 11.4851C8.29116 11.4555 8.22564 11.4387 8.15879 11.4359C8.09194 11.433 8.02524 11.4442 7.96294 11.4686C7.90064 11.493 7.84413 11.5302 7.79702 11.5777C7.7499 11.6252 7.71322 11.682 7.68932 11.7445C7.66542 11.807 7.65483 11.8738 7.65822 11.9406C7.66162 12.0074 7.67892 12.0728 7.70903 12.1326C7.73914 12.1923 7.78138 12.2451 7.83307 12.2876L10.7139 15.1703C10.7988 15.2545 10.912 15.304 11.0314 15.3092C11.1509 15.3144 11.268 15.2749 11.3599 15.1985L17.1308 10.3928C17.2098 10.3298 17.2669 10.2435 17.294 10.1462C17.3211 10.0489 17.317 9.94554 17.282 9.85076C17.2471 9.75599 17.1832 9.67461 17.0995 9.61819C17.0157 9.56177 16.9163 9.53302 16.8153 9.5363Z" fill="black"/>
</svg>
