<svg width="18" height="18" viewBox="0 0 18 18" fill="none" xmlns="http://www.w3.org/2000/svg">
<path d="M15.8906 18H6.32812C5.16489 18 4.21875 17.0539 4.21875 15.8906V6.32812C4.21875 5.16489 5.16489 4.21875 6.32812 4.21875H15.8906C17.0539 4.21875 18 5.16489 18 6.32812V15.8906C18 17.0539 17.0539 18 15.8906 18ZM6.32812 5.625C5.94042 5.625 5.625 5.94042 5.625 6.32812V15.8906C5.625 16.2783 5.94042 16.5938 6.32812 16.5938H15.8906C16.2783 16.5938 16.5938 16.2783 16.5938 15.8906V6.32812C16.5938 5.94042 16.2783 5.625 15.8906 5.625H6.32812ZM2.8125 12.375H2.10938C1.72167 12.375 1.40625 12.0596 1.40625 11.6719V2.10938C1.40625 1.72167 1.72167 1.40625 2.10938 1.40625H11.6719C12.0596 1.40625 12.375 1.72167 12.375 2.10938V2.77734H13.7812V2.10938C13.7812 0.946143 12.8351 0 11.6719 0H2.10938C0.946143 0 0 0.946143 0 2.10938V11.6719C0 12.8351 0.946143 13.7812 2.10938 13.7812H2.8125V12.375Z" fill="black"/>
</svg>
