<svg width="32" height="32" viewBox="0 0 32 32" fill="none" xmlns="http://www.w3.org/2000/svg">
<g clip-path="url(#clip0_211_21780)">
<path d="M4.77301 28.2613H23.785L22.877 25.3213C23.0117 25.4387 30.6663 32 30.6663 32V3.3C30.5757 1.516 29.0397 0 27.1357 0L4.77967 0.004C2.87701 0.004 1.33301 1.52267 1.33301 3.30667V24.96C1.33301 26.8413 2.87434 28.2613 4.77301 28.2613ZM18.837 7.57733L18.793 7.59333L18.809 7.57733H18.837ZM8.66234 9.26933C11.1063 7.49067 13.3717 7.576 13.3717 7.576L13.5543 7.756C10.5637 8.46933 9.20767 9.80533 9.20767 9.80533C9.34634 9.776 15.385 6.292 22.7023 9.89333C22.7023 9.89333 21.3437 8.644 18.537 7.844L18.785 7.6C19.173 7.60133 21.2263 7.67333 23.4237 9.28C23.4237 9.28 25.8823 13.48 25.8823 18.64C25.801 18.5413 24.357 20.8613 20.641 20.9413C20.641 20.9413 20.0117 20.2293 19.5637 19.608C21.737 18.984 22.5503 17.736 22.5503 17.736C18.3197 20.4 14.6117 19.984 10.1757 18.184C10.1343 18.184 10.1157 18.1653 10.0943 18.144V18.136C10.073 18.116 10.0543 18.096 10.013 18.096H9.93301C9.66101 17.9173 9.47968 17.8293 9.47968 17.8293C9.47968 17.8293 10.2917 19.0773 12.3783 19.7013C11.8303 20.3267 11.2877 21.0373 11.2877 21.0373C7.57301 20.9493 6.21834 18.6293 6.21834 18.6293C6.21834 13.4613 8.66234 9.26933 8.66234 9.26933Z" fill="#5C6BC0"/>
<path d="M19.0774 17.0276C20.0254 17.0276 20.7974 16.2276 20.7974 15.2409C20.7974 14.2609 20.0294 13.4609 19.0774 13.4609V13.4649C18.1334 13.4649 17.3601 14.2623 17.3574 15.2489C17.3574 16.2276 18.1294 17.0276 19.0774 17.0276Z" fill="#5C6BC0"/>
<path d="M12.9192 17.0276C13.8672 17.0276 14.6392 16.2276 14.6392 15.2409C14.6392 14.2609 13.8726 13.4609 12.9246 13.4609L12.9192 13.4649C11.9712 13.4649 11.1992 14.2623 11.1992 15.2489C11.1992 16.2276 11.9712 17.0276 12.9192 17.0276Z" fill="#5C6BC0"/>
</g>
<defs>
<clipPath id="clip0_211_21780">
<rect width="32" height="32" fill="white"/>
</clipPath>
</defs>
</svg>
