<svg width="24" height="24" viewBox="0 0 24 24" fill="none" xmlns="http://www.w3.org/2000/svg">
<path d="M14.3994 6.24755C14.1309 5.97732 14.1309 5.53916 14.3994 5.26894C14.6678 4.99872 15.1032 4.99872 15.3716 5.26894L18.616 8.53448C18.8845 8.8047 18.8845 9.24286 18.616 9.51309C18.4818 9.6482 18.3058 9.7158 18.1299 9.7158C17.954 9.7158 17.778 9.6482 17.6438 9.51309L14.3994 6.24755ZM23 22.3058C23 22.688 22.6922 22.9978 22.3125 22.9978C22.3125 22.9978 8.76184 23 8.7618 23C8.03129 23.0002 7.29854 22.7657 6.68091 22.3777C6.40896 22.2069 6.15734 22.0028 5.93076 21.7747L2.21736 18.037C0.730988 16.541 0.58541 14.2533 1.89273 12.9374L12.8599 1.89857C14.1674 0.582662 16.4402 0.729277 17.9265 2.22531L21.6399 5.96297C23.1263 7.45905 23.2719 9.74672 21.9645 11.0626L11.4817 21.6138H22.3125C22.6922 21.6138 23 21.9236 23 22.3058ZM5.56389 11.1995L12.7239 18.4063L20.9922 10.084C21.7635 9.30769 21.6179 7.89798 20.6676 6.94152L16.9542 3.20387C16.4145 2.66066 15.7294 2.37868 15.097 2.37868C14.6159 2.37868 14.1654 2.54177 13.8321 2.87713L5.56389 11.1995ZM6.90301 20.7961C7.85323 21.7525 9.25375 21.899 10.0251 21.1228L11.7517 19.3849L4.59164 12.1781L2.86499 13.916C2.09374 14.6923 2.23936 16.1019 3.18962 17.0584L6.90301 20.7961Z" fill="black"/>
</svg>
