<svg width="101" height="59" viewBox="0 0 101 59" fill="none" xmlns="http://www.w3.org/2000/svg">
<g clip-path="url(#clip0_264_20630)">
<path d="M40.759 44.4465C42.0947 46.7655 43.4649 48.8726 44.5478 51.1185C45.287 52.6508 44.4977 53.8057 43.0773 54.7432C28.5295 64.3469 7.89977 56.6148 3.29489 39.7442C1.0746 31.6103 2.30487 23.965 7.20939 17.0605C8.40238 15.3815 8.41895 14.6845 6.42695 13.7185C2.49542 11.8124 -0.408809 8.95919 0.0477673 4.10329C0.169736 2.80541 0.772674 1.55212 1.23846 0C2.02366 0.489176 2.51613 0.678134 2.85028 1.02157C6.32523 4.59246 10.6222 6.00023 15.512 5.96483C20.1136 5.93172 24.7158 5.93126 29.3174 5.96666C43.3001 6.07379 54.8673 17.432 55.253 31.4061C55.5425 41.8986 62.5729 49.2468 72.2825 49.2054C79.3949 49.1751 85.7723 44.5183 88.0759 37.6726C90.362 30.8797 88.057 23.4543 82.2807 19.0048C76.7535 14.747 68.7998 14.4758 62.925 18.3565C62.1039 18.899 61.3164 19.493 60.1833 20.2976C58.8297 17.9119 57.3347 15.695 56.342 13.2726C56.0483 12.5558 56.8887 10.8626 57.6905 10.298C61.4439 7.65441 65.7027 6.15194 70.3113 6.01356C75.1389 5.86874 79.9753 5.89632 84.8057 5.97724C90.0241 6.06459 94.6267 4.70326 98.3009 0.819738C98.5453 0.561357 98.9163 0.422053 99.2164 0.235393C101.592 3.02471 101.641 7.22593 99.0838 10.1187C97.7988 11.5724 96.1571 12.8602 94.4288 13.7342C92.5938 14.662 92.5371 15.3406 93.6473 16.9469C99.5745 25.5264 100.364 34.6814 95.9223 44.0723C91.1389 54.1859 79.9205 60.1963 69.1081 58.7991C57.6891 57.3233 48.5838 49.119 46.2356 37.9728C45.6244 35.0713 45.6497 32.0415 45.1568 29.1083C43.7718 20.8686 36.2922 15.2058 27.5381 15.6435C19.6451 16.038 12.7403 22.8198 12.0228 30.8839C11.2946 39.0647 16.9346 46.9467 24.7811 48.7149C30.5215 50.0077 34.6624 48.9494 40.759 44.4465Z" fill="#132C4E"/>
<path d="M72.7156 22.5501C70.8009 25.761 70.1635 28.8377 72.8873 31.7024C75.6194 34.5754 78.7791 33.821 81.9028 32.4633C82.7253 35.386 80.5934 39.3568 77.3559 41.2579C73.3112 43.6334 68.4232 43.1056 65.0611 39.9311C61.5705 36.6346 60.7659 31.7875 63.0101 27.5729C64.9253 23.9754 69.0464 21.7037 72.7156 22.5501Z" fill="#132C4E"/>
<path d="M29.4566 22.5948C27.4545 25.7952 26.9202 28.8663 29.6394 31.7237C32.3724 34.5958 35.5403 33.805 38.6595 32.4395C39.4323 35.5617 37.2253 39.4953 33.8493 41.3757C29.6615 43.7081 24.7827 43.0046 21.4366 39.5864C18.1297 36.2081 17.541 31.2226 19.967 27.1303C21.9415 23.7989 26.0659 21.6905 29.4566 22.5948Z" fill="#132C4E"/>
</g>
<defs>
<clipPath id="clip0_264_20630">
<rect width="101" height="59" fill="white"/>
</clipPath>
</defs>
</svg>
