<svg width="21" height="19" viewBox="0 0 21 19" fill="none" xmlns="http://www.w3.org/2000/svg">
<path d="M12.0498 4C12.0498 3.53563 12.0498 3.30344 12.0718 3.10812C12.2546 1.48545 13.5353 0.204838 15.1579 0.0220073C15.3532 0 15.5854 0 16.0498 0C16.5142 0 16.7464 0 16.9417 0.0220073C18.5644 0.204838 19.845 1.48545 20.0278 3.10812C20.0498 3.30344 20.0498 3.53563 20.0498 4C20.0498 4.46437 20.0498 4.69656 20.0278 4.89188C19.845 6.51455 18.5644 7.79516 16.9417 7.97799C16.7464 8 16.5142 8 16.0498 8C15.5854 8 15.3532 8 15.1579 7.97799C13.5353 7.79516 12.2546 6.51455 12.0718 4.89188C12.0498 4.69656 12.0498 4.46437 12.0498 4Z" fill="#132C4E"/>
<path d="M12.0498 15C12.0498 14.5356 12.0498 14.3034 12.0718 14.1081C12.2546 12.4855 13.5353 11.2048 15.1579 11.022C15.3532 11 15.5854 11 16.0498 11C16.5142 11 16.7464 11 16.9417 11.022C18.5644 11.2048 19.845 12.4855 20.0278 14.1081C20.0498 14.3034 20.0498 14.5356 20.0498 15C20.0498 15.4644 20.0498 15.6966 20.0278 15.8919C19.845 17.5145 18.5644 18.7952 16.9417 18.978C16.7464 19 16.5142 19 16.0498 19C15.5854 19 15.3532 19 15.1579 18.978C13.5353 18.7952 12.2546 17.5145 12.0718 15.8919C12.0498 15.6966 12.0498 15.4644 12.0498 15Z" fill="#132C4E"/>
<path d="M0.0498047 4C0.0498047 3.53563 0.0498047 3.30344 0.071812 3.10812C0.254643 1.48545 1.53526 0.204838 3.15793 0.0220073C3.35325 0 3.58543 0 4.0498 0C4.51418 0 4.74636 0 4.94168 0.0220073C6.56435 0.204838 7.84497 1.48545 8.0278 3.10812C8.0498 3.30344 8.0498 3.53563 8.0498 4C8.0498 4.46437 8.0498 4.69656 8.0278 4.89188C7.84497 6.51455 6.56435 7.79516 4.94168 7.97799C4.74636 8 4.51418 8 4.0498 8C3.58543 8 3.35325 8 3.15793 7.97799C1.53526 7.79516 0.254643 6.51455 0.071812 4.89188C0.0498047 4.69656 0.0498047 4.46437 0.0498047 4Z" fill="#132C4E"/>
<path d="M0.0498047 15C0.0498047 14.5356 0.0498047 14.3034 0.071812 14.1081C0.254643 12.4855 1.53526 11.2048 3.15793 11.022C3.35325 11 3.58543 11 4.0498 11C4.51418 11 4.74636 11 4.94168 11.022C6.56435 11.2048 7.84497 12.4855 8.0278 14.1081C8.0498 14.3034 8.0498 14.5356 8.0498 15C8.0498 15.4644 8.0498 15.6966 8.0278 15.8919C7.84497 17.5145 6.56435 18.7952 4.94168 18.978C4.74636 19 4.51418 19 4.0498 19C3.58543 19 3.35325 19 3.15793 18.978C1.53526 18.7952 0.254643 17.5145 0.071812 15.8919C0.0498047 15.6966 0.0498047 15.4644 0.0498047 15Z" fill="#132C4E"/>
</svg>
