<svg width="76" height="104" viewBox="0 0 76 104" fill="none" xmlns="http://www.w3.org/2000/svg">
<g clip-path="url(#clip0_13_13372)">
<path fill-rule="evenodd" clip-rule="evenodd" d="M9.49876 88.5384C14.7231 88.5384 18.9975 84.2508 18.9975 79.0178V27.6988C18.9975 22.4591 14.7231 18.1748 9.49876 18.1748C4.27114 18.1715 0 22.4591 0 27.6988V79.0178C0 84.2508 4.27114 88.5384 9.49876 88.5384Z" fill="#ED1B25"/>
<path fill-rule="evenodd" clip-rule="evenodd" d="M28.4996 104C33.7272 104 38.0017 99.7186 38.0017 94.479V14.5484C38.0017 9.30871 33.7272 5.02441 28.4996 5.02441C23.2753 5.02441 19.0009 9.31202 19.0009 14.5484V94.479C18.9976 99.7186 23.2753 104 28.4996 104Z" fill="#FABA1C"/>
<path fill-rule="evenodd" clip-rule="evenodd" d="M47.5005 97.4281C52.7281 97.4281 56.9992 93.1438 56.9992 87.9041V9.52397C56.9992 4.28099 52.7248 0 47.5005 0C42.2729 0 38.0017 4.28099 38.0017 9.52397V87.9041C38.0017 93.1438 42.2729 97.4281 47.5005 97.4281Z" fill="#068ED4"/>
<path fill-rule="evenodd" clip-rule="evenodd" d="M66.5045 92.4029C71.7321 92.4029 76.0033 88.1153 76.0033 82.8789V21.507C76.0033 16.2673 71.7321 11.9863 66.5045 11.9863C61.2769 11.9863 57.0024 16.2673 57.0024 21.507V82.8756C57.0024 88.1152 61.2736 92.4029 66.5045 92.4029Z" fill="#009E4F"/>
<path fill-rule="evenodd" clip-rule="evenodd" d="M18.7568 24.0864C-9.82196 43.3161 3.89518 87.8979 38.0248 87.8979C72.1313 87.8979 85.888 43.3492 57.2894 24.0864C45.7359 16.3012 30.3136 16.3079 18.7568 24.0864Z" fill="#FEFEFE"/>
<path fill-rule="evenodd" clip-rule="evenodd" d="M23.4599 31.1605C1.85686 45.696 12.2263 79.3919 38.028 79.3919C63.8099 79.3919 74.2058 45.7192 52.5928 31.1605C43.8526 25.2795 32.1935 25.2828 23.4599 31.1605Z" fill="#D5D5D7"/>
<path fill-rule="evenodd" clip-rule="evenodd" d="M26.4052 35.59C9.16894 47.19 17.4408 74.0726 38.0247 74.0726C58.5955 74.0726 66.8904 47.2065 49.6442 35.59C42.6752 30.8958 33.3743 30.8958 26.4052 35.59Z" fill="#5F5F5F"/>
<path fill-rule="evenodd" clip-rule="evenodd" d="M27.774 37.6461C12.5628 47.8775 19.865 71.6031 38.0248 71.6031C56.1747 71.6031 63.4934 47.8974 48.2788 37.6461C42.1244 33.5073 33.9186 33.5073 27.774 37.6461Z" fill="#434443"/>
<path fill-rule="evenodd" clip-rule="evenodd" d="M32.3354 44.5154C23.902 50.1947 27.9489 63.3518 38.0248 63.3518C48.0941 63.3518 52.1509 50.198 43.7109 44.5154C40.3038 42.2146 35.7491 42.2179 32.3354 44.5154Z" fill="#22201E"/>
<path fill-rule="evenodd" clip-rule="evenodd" d="M31.5537 49.6128C27.5662 46.9285 29.4791 40.707 34.2417 40.707C39.001 40.707 40.9172 46.9219 36.9297 49.6128C35.3169 50.6971 33.1632 50.6938 31.5537 49.6128Z" fill="#BABCBE"/>
<path fill-rule="evenodd" clip-rule="evenodd" d="M42.6158 63.2302C40.6567 61.9078 41.5967 58.8467 43.9384 58.8467C46.2801 58.8467 47.2234 61.9045 45.261 63.2302C44.4727 63.7657 43.4107 63.7657 42.6158 63.2302Z" fill="#FEFEFE"/>
</g>
<defs>
<clipPath id="clip0_13_13372">
<rect width="76" height="104" fill="white"/>
</clipPath>
</defs>
</svg>
