<svg width="23" height="20" viewBox="0 0 23 20" fill="none" xmlns="http://www.w3.org/2000/svg">
<path fill-rule="evenodd" clip-rule="evenodd" d="M12.156 0.521881C12.4908 0.810209 12.4908 1.27768 12.156 1.56601L2.36832 9.99556C2.03354 10.2839 1.49075 10.2839 1.15597 9.99557C0.82119 9.70724 0.821191 9.23976 1.15597 8.95144L10.9436 0.521881C11.2784 0.233552 11.8212 0.233552 12.156 0.521881Z" fill="#132C4E"/>
<path fill-rule="evenodd" clip-rule="evenodd" d="M10.9436 0.52188C10.6089 0.810209 10.6089 1.27768 10.9436 1.56601L20.7313 9.99556C21.0661 10.2839 21.6089 10.2839 21.9436 9.99556C22.2784 9.70723 22.2784 9.23976 21.9436 8.95143L12.156 0.52188C11.8212 0.233552 11.2784 0.233552 10.9436 0.52188Z" fill="#132C4E"/>
<path fill-rule="evenodd" clip-rule="evenodd" d="M12.3513 20H10.7501C7.75011 20 6.25013 20 5.19866 19.2361C4.85908 18.9893 4.56046 18.6907 4.31374 18.3511C3.5498 17.2997 3.5498 15.7998 3.5498 12.8V11.427C3.5498 9.93268 3.5498 9.18552 3.79976 8.51205C3.88226 8.28978 3.98435 8.07529 4.10484 7.8711C4.4699 7.25242 5.04978 6.78127 6.20954 5.83897L11.5498 1.5L16.8901 5.83897C18.0498 6.78127 18.6297 7.25242 18.9948 7.8711C19.1153 8.07529 19.2174 8.28978 19.2998 8.51205C19.5498 9.18552 19.5498 9.93268 19.5498 11.427V12.8C19.5498 15.7998 19.5498 17.2997 18.7859 18.3511C18.5392 18.6907 18.2405 18.9893 17.9009 19.2361C16.8495 20 15.3501 20 12.3513 20ZM9.2498 15.4421C8.86321 15.4421 8.5498 15.7555 8.5498 16.1421C8.5498 16.5287 8.86321 16.8421 9.2498 16.8421H13.3498C13.7364 16.8421 14.0498 16.5287 14.0498 16.1421C14.0498 15.7555 13.7364 15.4421 13.3498 15.4421H9.2498Z" fill="#132C4E"/>
</svg>
