<svg width="32" height="32" viewBox="0 0 32 32" fill="none" xmlns="http://www.w3.org/2000/svg">
<path d="M26.8049 8.2675C26.8591 7.82719 26.8874 7.37887 26.8874 6.92394C26.8874 3.1 23.7874 0 19.9634 0H8.39206C7.66418 0 7.04274 0.525625 6.92199 1.24337L2.65824 26.5856C2.50524 27.4949 3.20624 28.3236 4.12831 28.3236H8.36024C9.08812 28.3236 9.72124 27.7984 9.84193 27.0806C9.84193 27.0806 9.84899 27.0385 9.86174 26.9627H9.86181L9.27206 30.4681C9.13731 31.2696 9.75512 32 10.5678 32H14.2701C14.9117 32 15.4594 31.5367 15.5658 30.9041L16.6176 24.6528C16.7989 23.5752 17.7319 22.7861 18.8246 22.7861H19.7972C25.0803 22.7861 29.3631 18.5033 29.3631 13.2203C29.3631 11.1759 28.3526 9.36887 26.8049 8.2675Z" fill="#002987"/>
<path d="M26.8047 8.26562C26.1426 13.6518 21.552 17.8225 15.9868 17.8225H12.7578C12.029 17.8225 11.3995 18.3079 11.2021 18.9943L9.27195 30.4661C9.13714 31.2676 9.75495 31.9981 10.5676 31.9981H14.27C14.9115 31.9981 15.4593 31.5348 15.5656 30.9022L16.6175 24.6509C16.7988 23.5733 17.7317 22.7843 18.8244 22.7843H19.797C25.0801 22.7843 29.3629 18.5014 29.3629 13.2184C29.3629 11.1741 28.3524 9.367 26.8047 8.26562Z" fill="#0085CC"/>
<path d="M12.7579 17.825H15.987C21.5521 17.825 26.1428 13.6543 26.8048 8.26816C25.8118 7.56153 24.5983 7.14453 23.2867 7.14453H14.8586C13.899 7.14453 13.0797 7.83747 12.9205 8.78372L11.2021 18.9967C11.3996 18.3103 12.0291 17.825 12.7579 17.825Z" fill="#00186A"/>
</svg>
