<svg width="81" height="90" viewBox="0 0 81 90" fill="none" xmlns="http://www.w3.org/2000/svg">
<g clip-path="url(#clip0_233_23608)">
<mask id="mask0_233_23608" style="mask-type:luminance" maskUnits="userSpaceOnUse" x="0" y="15" width="37" height="68">
<path d="M24.6282 82.3243C23.3092 81.5428 21.8736 80.7018 20.302 79.8007C18.4934 78.7642 16.844 77.8429 15.338 77.0117L4.4225 70.7563C2.97077 69.7259 1.96981 68.7482 1.28624 67.5927C0.530429 66.3159 0.161784 64.8221 0 62.8017V52.6999C0.0444597 50.4846 0.0858319 47.9542 0.0858319 45.0414C0.0858319 42.1285 0.0444597 39.5982 0 37.3829V27.2841C0.157461 25.3146 0.511286 23.8453 1.2282 22.59C1.93338 21.3554 2.99053 20.3269 4.5565 19.2321L11.4348 15.29L36.0191 29.3799C34.8743 30.0529 33.7258 30.7211 32.5729 31.3812C30.6062 32.5085 28.6277 33.6149 26.6412 34.7072L24.5424 35.9105V37.142C24.5942 39.7753 24.6282 42.4074 24.6282 45.042V45.0426H24.6276V45.5857C24.6233 48.0382 24.5905 50.4895 24.5424 52.942V54.1569L24.6276 54.206V82.3243H24.6282Z" fill="white"/>
</mask>
<g mask="url(#mask0_233_23608)">
<path d="M36.0191 15.291H0V82.3253H36.0191V15.291Z" fill="#132C4E"/>
</g>
<mask id="mask1_233_23608" style="mask-type:luminance" maskUnits="userSpaceOnUse" x="0" y="15" width="37" height="39">
<path d="M0 53.7425V52.6999C0.0444597 50.4846 0.0858319 47.9542 0.0858319 45.0414C0.0858319 42.1285 0.0444597 39.5982 0 37.3829V27.2841C0.157461 25.3146 0.511286 23.8453 1.2282 22.59C1.93338 21.3554 2.99053 20.3269 4.5565 19.2321L11.4348 15.29L36.0191 29.3799C34.8743 30.0529 33.7258 30.7211 32.5729 31.3812C30.6062 32.5085 28.6277 33.6149 26.6412 34.7072L24.5424 35.9105V37.142C24.559 37.9787 24.5739 38.8148 24.5856 39.6515L0 53.7425Z" fill="white"/>
</mask>
<g mask="url(#mask1_233_23608)">
<path d="M36.0191 15.291H0V53.7429H36.0191V15.291Z" fill="#132C4E"/>
</g>
<mask id="mask2_233_23608" style="mask-type:luminance" maskUnits="userSpaceOnUse" x="0" y="15" width="36" height="35">
<path d="M0.0481647 49.9488C0.0703945 48.4446 0.0852144 46.8141 0.0852144 45.042C0.0858319 42.1285 0.0444597 39.5982 0 37.3829V27.2841C0.157461 25.3146 0.511286 23.8453 1.2282 22.59C1.93338 21.3554 2.99053 20.3269 4.5565 19.2321L11.4348 15.29L35.9778 29.356L26.6412 34.7066L24.5424 35.9099L0.0481647 49.9488Z" fill="white"/>
</mask>
<g mask="url(#mask2_233_23608)">
<path d="M35.9784 15.291H0V49.9492H35.9784V15.291Z" fill="#132C4E"/>
</g>
<mask id="mask3_233_23608" style="mask-type:luminance" maskUnits="userSpaceOnUse" x="15" y="0" width="66" height="49">
<path d="M15.8894 12.7122C17.2312 11.9692 18.6823 11.1552 20.2539 10.2548C22.0625 9.21821 23.6908 8.26075 25.1691 7.38174L36.084 1.12634C37.7086 0.393832 39.0622 0.0217565 40.412 0.0119489C41.9039 0.000302419 43.3914 0.430611 45.2353 1.30165L54.0482 6.35256C55.9581 7.49821 58.1453 8.79894 60.6862 10.2554C63.2279 11.7118 65.4564 12.942 67.4108 14.0111L76.2206 19.0601C77.86 20.18 78.9647 21.219 79.7014 22.4634C80.4257 23.6869 80.7944 25.1096 80.9667 27.0037V34.8884L56.3829 48.9776C56.3681 47.6566 56.3595 46.3357 56.3595 45.0141C56.3595 42.7596 56.3835 40.5063 56.4237 38.2518V35.8458L55.3492 35.2298C53.0262 33.9579 50.7125 32.6706 48.4148 31.354V31.3533L47.9411 31.0818C45.8034 29.8522 43.681 28.598 41.5661 27.3304L40.5065 26.7229L40.4213 26.772L15.8894 12.7122Z" fill="white"/>
</mask>
<g mask="url(#mask3_233_23608)">
<path d="M80.9673 0H15.8894V48.9773H80.9673V0Z" fill="#132C4E"/>
</g>
<mask id="mask4_233_23608" style="mask-type:luminance" maskUnits="userSpaceOnUse" x="53" y="5" width="28" height="44">
<path d="M53.1386 5.83105L54.0481 6.35208C55.958 7.49773 58.1452 8.79846 60.6862 10.2549C63.2278 11.7113 65.4564 12.9416 67.4107 14.0106L76.2205 19.0597C77.86 20.1796 78.9647 21.2186 79.7014 22.4629C80.4257 23.6864 80.7943 25.1091 80.9666 27.0032V34.8879L56.3829 48.9777C56.3681 47.6568 56.3594 46.3358 56.3594 45.0142C56.3594 42.7597 56.3835 40.5064 56.4236 38.2519V35.846L55.3492 35.2299C54.6113 34.826 53.874 34.4202 53.1379 34.0126V5.83105H53.1386Z" fill="white"/>
</mask>
<g mask="url(#mask4_233_23608)">
<path d="M80.9676 5.83105H53.1389V48.9777H80.9676V5.83105Z" fill="#132C4E"/>
</g>
<mask id="mask5_233_23608" style="mask-type:luminance" maskUnits="userSpaceOnUse" x="56" y="7" width="25" height="42">
<path d="M56.4243 7.76953C57.7254 8.54065 59.1407 9.36878 60.6863 10.2551C63.2279 11.7116 65.4564 12.9418 67.4108 14.0108L76.2206 19.0599C77.8601 20.1798 78.9648 21.2188 79.7014 22.4631C80.4258 23.6866 80.7944 25.1094 80.9667 27.0034V34.8881L56.4243 48.9541V38.2521V35.8462V7.76953Z" fill="white"/>
</mask>
<g mask="url(#mask5_233_23608)">
<path d="M80.9673 7.76953H56.4243V48.9541H80.9673V7.76953Z" fill="#132C4E"/>
</g>
<mask id="mask6_233_23608" style="mask-type:luminance" maskUnits="userSpaceOnUse" x="29" y="40" width="52" height="50">
<path d="M80.9896 40.0059C80.9673 41.5303 80.9513 43.1854 80.9513 44.9869C80.9513 47.06 80.9723 48.9387 81.0001 50.6489V63.1604C80.8266 64.9233 80.474 66.273 79.8083 67.4383C79.0722 68.7268 77.9534 69.7903 76.2719 70.9396L67.459 75.9905C65.5046 77.0596 63.2761 78.2898 60.7351 79.7462C58.1935 81.2026 56.0063 82.5034 54.0958 83.649L45.286 88.6981C43.4891 89.5471 42.0305 89.978 40.5763 89.989C39.1468 90.0001 37.721 89.6059 35.9828 88.8066L29.1045 84.8639V56.6849C30.2641 57.3328 31.4213 57.9862 32.5736 58.6464C34.5403 59.7737 36.4947 60.9212 38.4404 62.0827L40.5393 63.286L41.6137 62.6706C43.8849 61.3092 46.1647 59.9643 48.4624 58.647H48.463V58.6476L48.9366 58.3761C51.0781 57.1532 53.2331 55.9561 55.3968 54.7712L56.4565 54.1637V54.0663L80.9896 40.0059Z" fill="white"/>
</mask>
<g mask="url(#mask6_233_23608)">
<path d="M81.0001 40.0059H29.1045V90.0001H81.0001V40.0059Z" fill="#132C4E"/>
</g>
<mask id="mask7_233_23608" style="mask-type:luminance" maskUnits="userSpaceOnUse" x="29" y="56" width="40" height="34">
<path d="M68.3678 75.4692L67.4583 75.9902C65.5039 77.0592 63.2754 78.2895 60.7344 79.7459C58.1927 81.2023 56.0056 82.5031 54.095 83.6487L45.2852 88.6978C43.4883 89.5468 42.0298 89.9777 40.5756 89.9887C39.1461 89.9997 37.7203 89.6056 35.982 88.8063L29.1038 84.8636V56.6846C30.2634 57.3325 31.4206 57.9859 32.5729 58.6461C34.5396 59.7733 36.4939 60.9208 38.4397 62.0824L40.5385 63.2857L41.613 62.6703C42.3348 62.2375 43.0573 61.8072 43.781 61.3781L68.3678 75.4692Z" fill="white"/>
</mask>
<g mask="url(#mask7_233_23608)">
<path d="M68.3688 56.6855H29.1047V90.0007H68.3688V56.6855Z" fill="#132C4E"/>
</g>
<mask id="mask8_233_23608" style="mask-type:luminance" maskUnits="userSpaceOnUse" x="29" y="56" width="37" height="34">
<path d="M65.034 77.324C63.7107 78.0571 62.2806 78.8595 60.7344 79.7452C58.1927 81.2016 56.0056 82.5024 54.095 83.648L45.2852 88.6971C43.4883 89.5461 42.0298 89.977 40.5756 89.988C39.1461 89.9991 37.7203 89.6049 35.982 88.8056L29.1038 84.8629V56.7305L38.4403 62.0817L40.5392 63.285L65.034 77.324Z" fill="white"/>
</mask>
<g mask="url(#mask8_233_23608)">
<path d="M65.0341 56.7314H29.1045V89.9994H65.0341V56.7314Z" fill="#132C4E"/>
</g>
</g>
<defs>
<clipPath id="clip0_233_23608">
<rect width="81" height="90" fill="white"/>
</clipPath>
</defs>
</svg>
