<svg width="24" height="24" viewBox="0 0 24 24" fill="none" xmlns="http://www.w3.org/2000/svg">
<g clip-path="url(#clip0_205_25671)">
<path d="M13.9668 5.5C13.9668 4.67157 13.2952 4 12.4668 4C11.6384 4 10.9668 4.67157 10.9668 5.5C10.9668 6.32843 11.6384 7 12.4668 7C13.2952 7 13.9668 6.32843 13.9668 5.5Z" fill="black"/>
<path d="M13.9668 11.5C13.9668 10.6716 13.2952 10 12.4668 10C11.6384 10 10.9668 10.6716 10.9668 11.5C10.9668 12.3284 11.6384 13 12.4668 13C13.2952 13 13.9668 12.3284 13.9668 11.5Z" fill="black"/>
<path d="M13.9668 17.5C13.9668 16.6716 13.2952 16 12.4668 16C11.6384 16 10.9668 16.6716 10.9668 17.5C10.9668 18.3284 11.6384 19 12.4668 19C13.2952 19 13.9668 18.3284 13.9668 17.5Z" fill="black"/>
</g>
<defs>
<clipPath id="clip0_205_25671">
<rect width="24" height="24" fill="white"/>
</clipPath>
</defs>
</svg>
