<svg width="47" height="56" viewBox="0 0 47 56" fill="none" xmlns="http://www.w3.org/2000/svg">
<path d="M45.0093 24.0007C45.0093 24.0007 44.3877 22.3153 42.6806 21.8825C40.9717 21.4479 39.0049 21.5256 36.5472 24.5889C36.1137 25.1295 35.6766 25.5888 35.2503 25.9846C35.2718 23.4724 35.3936 17.0985 36.0815 11.1627C36.961 3.55564 37.4267 1.46397 37.4267 1.46397C37.4267 1.46397 35.1142 1.77666 34.1236 7.2567L33.1043 0.697264C33.1043 0.697264 31.6265 2.00456 31.6301 6.05893L29.6615 1.92329C29.6615 1.92329 28.2625 3.37192 28.9253 7.10477L26.8939 4.06973C26.8939 4.06973 26.0897 6.14373 26.3798 8.74948L24.3736 7.43159C24.3736 7.43159 23.6553 9.53386 24.4255 12.6537L22.4892 11.4489C22.4892 11.4489 22.1434 13.7985 22.9244 15.9749L21.7691 15.6569C21.7691 15.6569 21.5398 17.9164 22.636 20.4515L21.4842 19.6513C21.4842 19.6513 20.6979 22.4814 21.9679 24.7073C21.16 24.3398 20.3898 24.0095 19.7109 23.748C15.7503 22.2164 10.8977 19.3827 6.39441 9.3519C6.39441 9.3519 5.97525 10.7952 6.79745 13.2031L6.79566 13.2013L3.65016 7.91918C3.65016 7.91918 3.05903 9.55859 3.93855 12.0354L1.57942 9.57803C1.57942 9.57803 0.7823 11.5602 2.97842 14.7083L2.97663 14.7065L0.415085 13.0618C0.415085 13.0618 -0.249483 15.1729 3.4764 18.2238H3.47461L0.368512 16.8529C0.368512 16.8529 0.164305 18.4694 2.86557 20.3685L1.43791 20.2236C1.43791 20.2236 1.09219 21.6104 4.03528 23.0184L1.81229 22.923C1.81229 22.923 2.51269 25.0006 5.39308 25.7637L3.28652 26.0499C3.28652 26.0499 3.77196 27.5869 6.93717 28.2812L6.93001 28.2794L5.38412 28.615C5.38412 28.615 6.28693 29.9418 9.06702 30.3905L7.55338 31.2491C7.55338 31.2491 8.40424 32.1112 10.7705 32.309L9.70651 33.5209C9.70651 33.5209 11.3402 34.5509 14.6702 34.3124L13.6921 35.3582C13.6921 35.3582 15.6196 36.6567 19.1305 35.6108L18.491 36.8386C18.491 36.8386 20.3181 37.6601 22.0539 36.6602C19.8219 39.2783 18.9496 41.9883 18.7955 42.5059C15.9617 44.269 11.8901 47.1044 11.7916 48.9046L10.217 50.0352C10.217 50.0352 10.8601 50.7295 11.6483 50.6906L10.217 52.0015C10.217 52.0015 10.8744 52.353 11.4853 52.3195L11.4781 52.3265L10.586 53.7045C10.586 53.7045 11.736 54.0684 12.6227 53.4942L12.3469 55.4481C12.3469 55.4481 14.3818 54.6814 15.2398 53.3653L14.8063 54.7291C15.8865 54.2044 16.5725 53.3035 17.0078 52.3777C18.5143 52.1481 19.5658 50.0988 20.1659 48.5053L19.9312 48.7915L20.3969 47.8552L20.6459 46.6098C20.6459 46.6098 22.7167 45.6099 22.7417 45.6063C22.7543 45.6046 22.8994 45.4208 23.048 45.2318C24.2178 45.5904 25.8765 45.6682 27.451 44.2019C30.867 43.5323 35.4939 43.5606 38.8508 33.6623C40.411 29.0638 41.4123 27.5992 42.8884 26.4774C44.3644 25.3539 46.6411 26.299 46.6411 26.299C46.7164 24.7656 45.0093 24.0007 45.0093 24.0007Z" fill="#AF505B"/>
<path d="M30.6951 29.1059C28.1909 28.0424 25.7476 26.8782 23.2935 25.7546C22.0665 25.1964 20.8377 24.6364 19.5891 24.1594C18.9496 23.9103 18.3066 23.6541 17.685 23.3485L17.2192 23.1188C17.0652 23.0393 16.9147 22.9528 16.7625 22.8697C16.612 22.7849 16.458 22.7054 16.3093 22.6153L15.8668 22.3415C14.6917 21.6048 13.6044 20.7321 12.6282 19.7605L12.2645 19.393C12.1427 19.2712 12.0209 19.1493 11.9099 19.0185L11.2256 18.2465C11.0071 17.9815 10.7975 17.7112 10.5843 17.4427C10.4804 17.3067 10.3694 17.1759 10.2708 17.0364L9.97527 16.6177C9.16561 15.5153 8.48133 14.337 7.82393 13.1481C7.50329 12.551 7.20772 11.9415 6.89783 11.3391C6.61302 10.726 6.34253 10.106 6.06488 9.48942L6.73662 9.44348C6.72587 9.48942 6.71333 9.57775 6.70079 9.64488L6.6775 9.871C6.66496 10.0229 6.66496 10.1802 6.6578 10.3339L6.6775 10.802C6.69004 10.9592 6.71333 11.1147 6.73124 11.2719C6.74378 11.4292 6.77961 11.5846 6.81185 11.7383C6.84409 11.8938 6.86917 12.051 6.905 12.2047L7.03397 12.6658C7.07875 12.8195 7.11458 12.9749 7.17727 13.1233C7.59823 14.3335 8.20727 15.4888 8.94528 16.5647L9.21397 16.9746C9.30174 17.1124 9.41101 17.236 9.50774 17.3667L10.106 18.1476C10.201 18.2818 10.3138 18.402 10.4213 18.5256L10.7455 18.8984C10.9641 19.144 11.1701 19.4019 11.394 19.6457L12.7697 21.0784C13.0115 21.3063 13.2497 21.5377 13.4862 21.7727C13.7244 22.0059 13.9627 22.2391 14.1973 22.4793C13.9233 22.2885 13.6528 22.0907 13.3823 21.8928C13.11 21.6967 12.8395 21.4971 12.5726 21.2939C12.3039 21.0925 12.0603 20.8629 11.8042 20.6456C11.5498 20.4265 11.2972 20.2039 11.0465 19.9813C10.8011 19.7517 10.57 19.5079 10.3353 19.2676L9.98423 18.9055C9.86779 18.7836 9.74598 18.667 9.6403 18.5345L8.99364 17.7572C8.88796 17.6247 8.77331 17.501 8.67479 17.3632L8.37923 16.9498L8.08546 16.5364C7.98873 16.3986 7.88842 16.2608 7.80602 16.1124L7.28654 15.2362C7.12533 14.9359 6.9874 14.625 6.83693 14.3193C6.75811 14.1674 6.70079 14.0066 6.63989 13.8476L6.45717 13.3689C6.3909 13.2117 6.3497 13.0438 6.30133 12.8795L6.15982 12.3849C6.11862 12.2188 6.08996 12.0475 6.05593 11.8796C6.02368 11.71 5.98965 11.5422 5.97711 11.3691C5.96099 11.196 5.9377 11.0246 5.92695 10.8515L5.91441 10.3286C5.92695 10.1519 5.92516 9.97877 5.95024 9.80034C5.97353 9.62015 5.99502 9.45762 6.05055 9.24916L6.30491 8.31638L6.72229 9.20322L7.60897 10.9963C7.92782 11.5811 8.23234 12.1729 8.56194 12.7506L9.07246 13.6074L9.32682 14.0349L9.60089 14.4501L10.1437 15.2839C10.3299 15.5577 10.5288 15.8227 10.7222 16.093L11.0124 16.4958C11.1109 16.6283 11.2184 16.7555 11.3205 16.8845C11.5301 17.1406 11.7307 17.4038 11.9421 17.6565L12.6013 18.3967C12.7088 18.5221 12.8234 18.6405 12.9416 18.7553L13.2909 19.1051C14.2314 20.0273 15.2524 20.8682 16.3648 21.5766C17.4772 22.285 18.6684 22.8627 19.9098 23.3591C21.1852 23.8767 22.4194 24.4473 23.6374 25.0515C24.2465 25.3554 24.8519 25.661 25.4484 25.9843C26.0485 26.3023 26.6432 26.6291 27.2308 26.9683C28.4059 27.6484 29.5702 28.3462 30.6951 29.1059Z" fill="white"/>
<path d="M6.48583 13.3777L3.34033 8.09726L3.98698 8.03719C3.95295 8.15202 3.91892 8.31808 3.89742 8.46648C3.87413 8.61841 3.85801 8.77387 3.84726 8.92933C3.82577 9.24202 3.83114 9.55824 3.85622 9.8727C3.91533 10.5016 4.04072 11.1288 4.24493 11.7365C4.44735 12.3424 4.70887 12.9342 5.02235 13.4996C5.33941 14.0649 5.70125 14.6072 6.09533 15.1284C6.89425 16.1654 7.82214 17.114 8.82168 17.9885C9.81763 18.8701 10.8727 19.6898 11.9385 20.5236C10.7151 19.9389 9.5579 19.2216 8.47775 18.3948C8.20906 18.1864 7.94932 17.9656 7.686 17.7518C7.43522 17.5204 7.17548 17.2995 6.93366 17.061C6.69004 16.8208 6.44464 16.5841 6.21535 16.3297C5.97711 16.0841 5.76036 15.8191 5.54003 15.5559C5.11371 15.0188 4.71246 14.4588 4.36495 13.8617C4.02281 13.2628 3.72725 12.6339 3.50871 11.9732C3.2848 11.316 3.14508 10.627 3.09492 9.92747C3.07343 9.57768 3.07163 9.22612 3.10209 8.8728C3.11642 8.69614 3.13791 8.52124 3.17195 8.34458C3.20777 8.16439 3.24181 8.00362 3.31167 7.80046L3.56245 7.07615L3.95832 7.7404L7.10383 13.019L6.48583 13.3777Z" fill="white"/>
<path d="M3.6842 12.2851L1.3197 9.82245L1.91262 9.70939L1.90366 9.74472L1.89291 9.79772C1.88575 9.83305 1.87679 9.86662 1.87142 9.90195L1.84276 10.1281C1.83738 10.204 1.83559 10.2835 1.83201 10.3595C1.82843 10.4372 1.82126 10.5132 1.83022 10.5927L1.84455 10.8294C1.84813 10.9072 1.85171 10.9866 1.86963 11.0644C1.89829 11.2216 1.92157 11.3788 1.95203 11.5361C2.04696 11.8452 2.10787 12.1597 2.2458 12.4582C2.3067 12.6084 2.36223 12.7621 2.42672 12.9105L2.65242 13.3486C3.27042 14.5128 4.1177 15.5675 5.04738 16.5497C5.28024 16.7953 5.53819 17.0196 5.78001 17.2564L6.14723 17.6114C6.20813 17.6697 6.26904 17.7316 6.33173 17.7881L6.52877 17.9524C6.79209 18.1715 7.05183 18.3905 7.31157 18.6149L7.70207 18.9488C7.83283 19.0583 7.97434 19.1572 8.11048 19.2615L8.9291 19.8904C9.20317 20.0988 9.46828 20.3214 9.75668 20.5105C10.3209 20.9079 10.8852 21.309 11.4423 21.7277C10.8189 21.4203 10.2027 21.0952 9.5883 20.7666C9.27661 20.6076 8.98284 20.4204 8.68728 20.2349L7.80059 19.6784C7.6537 19.583 7.50324 19.4929 7.36172 19.3922L6.93898 19.0813C6.65596 18.8746 6.37472 18.6661 6.09528 18.4541L5.8857 18.2969C5.81763 18.2421 5.75315 18.1821 5.68508 18.1255L5.28741 17.781C5.02588 17.5478 4.7536 17.3235 4.50282 17.0762L3.7666 16.3165C3.643 16.1911 3.5212 16.0639 3.41372 15.9208L3.08054 15.5056L2.74736 15.0905C2.64526 14.9456 2.54853 14.7937 2.45001 14.6453L2.15982 14.1966C2.0595 14.0482 1.98964 13.8804 1.90366 13.7231L1.65825 13.2444C1.58839 13.0783 1.52749 12.907 1.463 12.7391C1.32149 12.407 1.24447 12.0466 1.15669 11.6933C1.12624 11.5131 1.10654 11.3294 1.08146 11.1474C1.06534 11.0573 1.06355 10.9637 1.06355 10.8718L1.05638 10.5945C1.05101 10.5026 1.06176 10.409 1.06892 10.3153C1.07788 10.2217 1.08146 10.1281 1.09579 10.0344L1.15132 9.75179C1.16207 9.70409 1.17819 9.65462 1.19252 9.60692L1.21401 9.53449L1.24626 9.44793L1.43793 8.91795L1.83918 9.33663L4.20547 11.8011L3.6842 12.2851Z" fill="white"/>
<path d="M2.78139 15.0038L0.219848 13.3591L0.757235 13.1683L0.748279 13.2425C0.744696 13.2743 0.739322 13.3043 0.741114 13.3397C0.742905 13.4103 0.73574 13.4775 0.744696 13.5499L0.767983 13.7672C0.773357 13.8396 0.798435 13.9138 0.810974 13.9862C0.828887 14.0587 0.841426 14.1329 0.86113 14.2053L0.938156 14.4208L1.01518 14.6364L1.11908 14.8448C1.37881 15.4101 1.77827 15.9189 2.1831 16.4171C3.03217 17.394 4.08366 18.212 5.15844 18.9858C6.2565 19.7366 7.40471 20.4238 8.58876 21.0598C8.88611 21.2152 9.17809 21.3813 9.47365 21.5438C9.62054 21.6251 9.76743 21.7063 9.91431 21.7929L10.3639 22.0261C10.9604 22.3423 11.5569 22.6639 12.1409 23.0189C11.4835 22.8352 10.8386 22.6162 10.1938 22.3918L9.71369 22.2169C9.55605 22.1533 9.40021 22.0862 9.24258 22.0173C8.93089 21.8795 8.61563 21.7487 8.30573 21.6039C7.67699 21.3389 7.08407 20.9944 6.48041 20.6746L6.029 20.4326C5.88033 20.3478 5.73702 20.2542 5.59014 20.1659L4.71778 19.6217C3.58568 18.848 2.47508 18.0106 1.55615 16.9489L1.23014 16.5337C1.12445 16.3941 1.00622 16.2634 0.918452 16.108L0.63901 15.6539C0.588854 15.5797 0.553028 15.4985 0.515411 15.4172L0.400769 15.1734C0.363152 15.0921 0.323743 15.0109 0.289709 14.9279L0.201935 14.6629L0.117745 14.4032C0.0944579 14.3148 0.0801276 14.2212 0.0622147 14.1311C0.0478844 14.0392 0.0228063 13.9509 0.0174325 13.8555L0.00131084 13.5729C-0.00406303 13.4792 0.008476 13.3785 0.0138499 13.2831C0.0156412 13.2354 0.0263889 13.1824 0.0353454 13.1312L0.0496757 13.0552C0.0550496 13.0287 0.0657973 12.9899 0.0747537 12.9598L0.203727 12.5058L0.612141 12.7691L3.17369 14.4138L2.78139 15.0038Z" fill="white"/>
<path d="M34.8222 26.0468C34.8419 23.9763 34.91 21.9182 35.0157 19.8565C35.1213 17.7949 35.2629 15.7368 35.4563 13.6805C35.6498 11.6224 35.9006 9.57663 36.1567 7.53089C36.2875 6.50802 36.4236 5.48515 36.5705 4.46405C36.721 3.43765 36.8661 2.42891 37.0739 1.38838V1.38661L37.4715 1.81236C37.4626 1.81413 37.3873 1.83533 37.339 1.85123C37.2852 1.87596 37.2279 1.8954 37.1742 1.92543C37.0631 1.98019 36.9556 2.05439 36.8482 2.12506C36.7478 2.21162 36.6386 2.28405 36.5472 2.38298L36.4039 2.52431C36.3573 2.57377 36.3161 2.62677 36.2714 2.678C35.9203 3.09493 35.6283 3.57544 35.39 4.08776C35.322 4.21142 35.279 4.34745 35.2217 4.47642C35.1697 4.60891 35.1106 4.73611 35.0622 4.87037C34.9745 5.14243 34.8724 5.40742 34.7971 5.68301C34.7255 5.96037 34.6413 6.2342 34.5786 6.51332L34.3977 7.356L33.8227 7.25707L33.991 6.38436C34.0502 6.09463 34.1326 5.80668 34.2024 5.51872C34.2759 5.23076 34.378 4.9481 34.4639 4.66191C34.5105 4.52058 34.5714 4.38102 34.6234 4.23969C34.6807 4.10013 34.7255 3.95703 34.7953 3.821C35.039 3.26805 35.3471 2.73277 35.7429 2.24518C35.7931 2.18512 35.8414 2.12329 35.8934 2.06499L36.0618 1.89363C36.1693 1.77703 36.3018 1.6781 36.4236 1.57211C36.558 1.47671 36.6923 1.38131 36.8446 1.30181C36.918 1.26118 37.0004 1.22762 37.081 1.19228C37.1724 1.16048 37.2369 1.13222 37.373 1.10749L37.8817 1.01562L37.7707 1.53324C37.5754 2.51371 37.425 3.54365 37.2763 4.55591C37.1294 5.57348 36.995 6.59282 36.8643 7.61215C36.6099 9.65436 36.3573 11.6966 36.1657 13.7388C35.9722 15.7827 35.8325 17.8338 35.7268 19.8866C35.6211 21.9376 35.5531 23.9957 35.5333 26.0432L34.8222 26.0468Z" fill="white"/>
<path d="M34.5087 9.73934C34.2454 9.00796 34.0519 8.26598 33.88 7.52047C33.7098 6.77496 33.5754 6.02415 33.4321 5.27511L33.2351 4.14801L33.0524 3.01914C32.9377 2.2648 32.8303 1.51045 32.7497 0.75081L33.3426 0.961037C33.3336 0.971637 33.2924 1.01934 33.2673 1.05113C33.2387 1.08823 33.21 1.1271 33.1814 1.16773C33.1258 1.249 33.0703 1.33203 33.0201 1.42036C32.9198 1.59525 32.8267 1.77898 32.7443 1.96977C32.5813 2.35136 32.4487 2.75062 32.3484 3.16224C32.2427 3.57209 32.1711 3.99254 32.112 4.41653C32.0511 4.84052 32.0206 5.27157 31.9991 5.70263C31.9561 6.5665 31.9866 7.43744 32.0313 8.31191C32.0761 9.18815 32.1549 10.0662 32.2069 10.9583C31.8898 10.1209 31.6659 9.25352 31.5065 8.37198C31.4241 7.93209 31.3722 7.48514 31.3256 7.03818C31.2915 6.58946 31.2647 6.13898 31.2647 5.68673C31.2611 4.78222 31.3471 3.86888 31.5638 2.97144C31.6785 2.52449 31.8218 2.0793 32.0242 1.65178C32.1227 1.43802 32.2391 1.2278 32.3699 1.0264C32.4362 0.925705 32.506 0.825008 32.5849 0.729611C32.6243 0.681912 32.6655 0.634214 32.7085 0.586515C32.7568 0.535284 32.7891 0.498185 32.8625 0.434587L33.3247 0L33.4572 0.643047C33.6113 1.39032 33.7367 2.1429 33.8567 2.89724L34.0251 4.02788L34.1791 5.16204C34.2705 5.91992 34.3708 6.67603 34.4353 7.43744C34.498 8.19885 34.5374 8.96379 34.5087 9.73934Z" fill="white"/>
<path d="M21.4824 40.9237C20.6244 41.5809 19.7502 42.1975 18.8815 42.8193C18.0145 43.4411 17.1403 44.0471 16.2913 44.6795C15.444 45.3138 14.6092 45.9621 13.8444 46.6617C13.461 47.0115 13.0956 47.3736 12.7785 47.7587C12.4669 48.1403 12.2071 48.5626 12.148 48.9477L11.4315 48.9282C11.4404 48.5908 11.5246 48.2764 11.6554 48.0061C11.7127 47.863 11.7915 47.7446 11.8632 47.6139C11.9402 47.4902 12.0226 47.3754 12.1032 47.2553C12.44 46.7942 12.8251 46.3949 13.2246 46.0151C13.6276 45.6406 14.0396 45.282 14.4731 44.9516C14.903 44.6177 15.3383 44.2944 15.7879 43.9923C16.2357 43.6885 16.6836 43.3864 17.1475 43.109C17.3768 42.9677 17.6096 42.8281 17.8407 42.6921L18.5483 42.2964C19.4977 41.7858 20.465 41.3071 21.4824 40.9237Z" fill="white"/>
<path d="M3.32773 18.5485L0.221629 17.1776L0.72319 16.8985L0.728564 16.9762C0.730355 17.0098 0.732147 17.0416 0.741103 17.0787C0.759016 17.1511 0.760807 17.2218 0.787677 17.296C0.810963 17.3684 0.836041 17.4409 0.855746 17.5151C0.882615 17.5875 0.920232 17.6582 0.950684 17.7306C0.98651 17.8013 1.00801 17.8772 1.05458 17.9443L1.18176 18.151C1.22654 18.2182 1.26058 18.2906 1.31252 18.356L1.46837 18.5485C1.65824 18.8153 1.91798 19.0361 2.15085 19.2781C2.26907 19.3965 2.41238 19.4954 2.54135 19.605C2.67391 19.711 2.80467 19.8205 2.93902 19.923L3.79884 20.4953L4.7106 21.0006L4.9381 21.1278L5.17634 21.2391L5.65282 21.4599C5.97346 21.603 6.28156 21.7673 6.61654 21.8839C7.27573 22.1348 7.9206 22.4192 8.60129 22.6223C8.93805 22.7319 9.27481 22.8432 9.60978 22.958C9.94296 23.0817 10.2905 23.1594 10.629 23.2654L11.6519 23.571L12.1624 23.73L12.6783 23.8678C13.3661 24.0568 14.054 24.2529 14.74 24.4755C14.0253 24.4101 13.3106 24.3201 12.5977 24.2211L12.0638 24.1434L11.5354 24.0392L10.4786 23.8183C9.771 23.6805 9.07956 23.4738 8.38633 23.2724C7.68773 23.0887 7.0142 22.822 6.32993 22.5835C4.98646 22.0447 3.64478 21.4493 2.44999 20.5695C2.30311 20.4565 2.1616 20.3363 2.0165 20.218C1.87499 20.0961 1.72452 19.9901 1.59197 19.8558C1.33044 19.5855 1.05637 19.3311 0.837833 19.0149L0.665869 18.787C0.608548 18.7111 0.565557 18.6227 0.515401 18.5397L0.370306 18.2888C0.318359 18.2076 0.289698 18.1104 0.25029 18.0221C0.214464 17.9302 0.171473 17.8419 0.141021 17.7483L0.0639954 17.4585C0.0353347 17.3631 0.0317522 17.2554 0.0156305 17.1547C0.00667409 17.1052 0.00667409 17.0487 0.00667409 16.9939L0.0048828 16.9109C0.0048828 16.8826 0.00846538 16.8402 0.012048 16.8066L0.0568302 16.3261L0.513609 16.5275L3.61971 17.8984L3.32773 18.5485Z" fill="white"/>
<path d="M2.8298 20.7201L1.40214 20.5753L1.78726 20.3085C1.79085 20.2944 1.78906 20.3032 1.78906 20.3067V20.3226C1.78906 20.335 1.78726 20.3474 1.78906 20.3633C1.78906 20.3915 1.79443 20.4233 1.79801 20.4551C1.80876 20.5205 1.82667 20.5859 1.84817 20.653C1.89295 20.7873 1.96818 20.9215 2.05058 21.0505C2.22434 21.3084 2.46079 21.5434 2.72053 21.7571C3.25433 22.174 3.87233 22.5185 4.52436 22.803C5.1728 23.0945 5.85528 23.3294 6.54493 23.5414C7.23279 23.7605 7.93856 23.9354 8.64612 24.105C10.063 24.4388 11.505 24.6862 12.9506 24.9211C14.3979 25.1561 15.8507 25.3663 17.307 25.6242C15.8292 25.6596 14.3514 25.5995 12.8789 25.4688C11.4065 25.3345 9.94122 25.1172 8.48311 24.8257C7.03037 24.5166 5.58122 24.1385 4.19297 23.5308C3.50332 23.2216 2.82442 22.856 2.21897 22.3507C1.91982 22.0945 1.6368 21.8048 1.41109 21.4533C1.30362 21.2731 1.20151 21.084 1.1424 20.8703C1.11195 20.7643 1.08866 20.653 1.07612 20.5382C1.07254 20.4799 1.06717 20.4216 1.06896 20.3597C1.06896 20.3297 1.07075 20.2979 1.07433 20.2643C1.07612 20.2484 1.07791 20.2325 1.0815 20.2131C1.08508 20.1937 1.08687 20.1795 1.09403 20.1442L1.16389 19.8457L1.47916 19.8775L2.90682 20.0223L2.8298 20.7201Z" fill="white"/>
<path d="M18.4642 42.4094C18.6039 41.8423 18.7992 41.33 19.0105 40.8088C19.2237 40.293 19.4691 39.7895 19.7414 39.3002C20.0119 38.8108 20.3074 38.3338 20.6316 37.878C20.9523 37.4187 21.298 36.9771 21.667 36.5548C22.036 36.1326 22.4301 35.7334 22.8439 35.3553C23.2613 34.9808 23.7001 34.631 24.1569 34.3077C25.0758 33.6682 26.0754 33.147 27.1251 32.7831C26.1757 33.3555 25.2765 33.9738 24.4578 34.684C24.0441 35.032 23.6589 35.4118 23.2792 35.7934C22.9102 36.1838 22.5537 36.5866 22.2169 37.0036C21.5542 37.8462 20.9559 38.7384 20.4454 39.6782C20.1892 40.1481 19.951 40.6269 19.7342 41.1145C19.5157 41.5967 19.3186 42.1073 19.1592 42.5896L18.4642 42.4094Z" fill="white"/>
<path d="M4.01914 23.3697L1.79615 23.2743L2.15262 22.8097C2.17591 22.8627 2.21532 22.9492 2.25472 23.0199C2.29592 23.0941 2.33712 23.1683 2.38549 23.2407C2.47863 23.3856 2.58074 23.5251 2.69001 23.6612C2.91213 23.9279 3.16112 24.177 3.44235 24.3873C3.58028 24.495 3.72896 24.5904 3.87584 24.6858C4.03168 24.7688 4.17857 24.8678 4.34158 24.9367C4.50279 25.0091 4.65864 25.0939 4.8306 25.1487C4.99898 25.2087 5.16378 25.2776 5.33933 25.3183C5.68325 25.4225 6.03793 25.4826 6.39977 25.5462L6.95507 25.6203C7.14136 25.6433 7.32945 25.6592 7.51574 25.6786C7.89012 25.7193 8.26808 25.7422 8.64426 25.7776C9.02222 25.8023 9.40018 25.8323 9.77993 25.85C10.5377 25.8924 11.2989 25.926 12.0585 25.9578L14.3441 26.0408C14.7257 26.0532 15.1072 26.0726 15.4888 26.0956C15.8703 26.1132 16.2519 26.1433 16.6334 26.1715C17.3965 26.2351 18.1632 26.304 18.9191 26.4507C17.3875 26.5584 15.8649 26.6503 14.3352 26.6697C13.5703 26.6856 12.8054 26.6768 12.0405 26.6733C11.2757 26.6662 10.509 26.6574 9.74053 26.6256C8.97385 26.5955 8.20539 26.5602 7.43513 26.486C7.24168 26.4666 7.05001 26.4507 6.85655 26.4277L6.27617 26.3535C5.88567 26.2899 5.48621 26.221 5.10108 26.0991C4.32904 25.8712 3.5767 25.5161 2.94437 24.995C2.62373 24.7406 2.33891 24.4438 2.08634 24.1223C1.95916 23.9615 1.84452 23.7919 1.74241 23.6117C1.69047 23.5234 1.6421 23.4315 1.59732 23.3379C1.55075 23.2407 1.51313 23.1542 1.47014 23.0305L1.29638 22.5429L1.82481 22.5659L4.04781 22.6613L4.01914 23.3697Z" fill="white"/>
<path d="M31.297 6.78824L29.3283 2.05548L29.9195 2.16501C29.8944 2.20035 29.8424 2.27984 29.8066 2.34698C29.7672 2.41764 29.7296 2.49184 29.692 2.56427L29.5917 2.79393L29.5039 3.03242C29.4716 3.11015 29.4537 3.19495 29.4286 3.27798C29.4054 3.36101 29.3767 3.44051 29.3588 3.52531C29.3265 3.69667 29.2818 3.86273 29.2603 4.03586C29.1528 4.72484 29.1349 5.43855 29.1922 6.15403C29.1994 6.51265 29.2746 6.8695 29.3033 7.22989L29.4806 8.30929C29.5576 8.66792 29.6239 9.03007 29.6955 9.39576C29.7797 9.75615 29.8586 10.1218 29.9195 10.4964C29.7242 10.1731 29.5487 9.83741 29.3785 9.49999C29.2173 9.15903 29.0829 8.80394 28.9432 8.45239C28.8232 8.09377 28.7103 7.72984 28.6172 7.35886C28.576 7.17159 28.5366 6.9861 28.5008 6.79707C28.4828 6.70344 28.4614 6.60981 28.4488 6.51441L28.413 6.22822C28.3037 5.46858 28.3001 4.68244 28.4255 3.90336C28.4363 3.8062 28.4578 3.70903 28.4811 3.61187L28.5491 3.32215C28.6064 3.13135 28.662 2.93879 28.7408 2.75153L28.8626 2.4724L29.0077 2.20211C29.065 2.11378 29.117 2.02545 29.1797 1.94065C29.2477 1.85232 29.3015 1.77813 29.4036 1.67566L29.7779 1.26757L29.9929 1.78519L31.9615 6.51795L31.297 6.78824Z" fill="white"/>
<path d="M28.6583 7.49973L26.5894 4.25799L27.2271 4.19616C27.1304 4.52828 27.0462 4.90281 26.9763 5.26143C26.91 5.62535 26.8474 5.99104 26.8115 6.35849C26.7291 7.09341 26.7094 7.83362 26.7596 8.57029C26.8079 9.30697 26.9477 10.033 27.1358 10.7538C27.3256 11.4764 27.5979 12.1777 27.9006 12.9003C27.3417 12.3473 26.8993 11.6725 26.5787 10.9464C26.4121 10.5842 26.2903 10.2044 26.1864 9.81929C26.0896 9.4324 26.018 9.04021 25.966 8.64449C25.8711 7.85305 25.8747 7.05277 25.966 6.2631C26.018 5.86914 26.0843 5.47695 26.181 5.09183C26.2759 4.70141 26.3906 4.33219 26.5572 3.94353L26.8097 3.27929L27.1949 3.8817L29.2638 7.12344L28.6583 7.49973Z" fill="white"/>
<path d="M6.44817 26.3199L3.29729 26.4011L3.63047 25.9436L3.65734 25.9913C3.66988 26.0142 3.67705 26.0337 3.69496 26.0584C3.7272 26.1043 3.75586 26.1503 3.78811 26.1962C3.86513 26.2845 3.92962 26.3782 4.01918 26.4594L4.14637 26.5866C4.18756 26.629 4.2413 26.6626 4.28788 26.7032C4.3864 26.7774 4.47238 26.8604 4.58344 26.9223L4.9005 27.1201L5.24263 27.2862L5.41281 27.371C5.47013 27.3993 5.53282 27.4169 5.59194 27.4417L5.95199 27.5777C6.92824 27.9186 7.98152 28.0741 9.03838 28.1854L9.83909 28.2296L10.2385 28.2543C10.3729 28.2614 10.5072 28.2561 10.6416 28.2578H11.4477H11.8507L12.2555 28.2419C12.5242 28.2278 12.7947 28.2243 13.0652 28.219C13.3357 28.2119 13.608 28.2172 13.8784 28.1978C14.4212 28.1783 14.9676 28.1642 15.5211 28.1872C14.9962 28.3497 14.4624 28.4769 13.925 28.597C13.6563 28.6589 13.3858 28.7048 13.1136 28.7384C12.8413 28.7755 12.569 28.8161 12.2949 28.8461C11.2005 28.9662 10.0934 28.9874 8.98285 28.945C7.87404 28.8638 6.75448 28.7189 5.67434 28.3373L5.27309 28.1819C5.20681 28.1554 5.13874 28.1324 5.07425 28.1006L4.88079 28.0017L4.49567 27.8003L4.13024 27.5547C4.00485 27.4788 3.89738 27.3745 3.78273 27.2791C3.7272 27.2297 3.66809 27.1855 3.61614 27.1307L3.4603 26.9664C3.35282 26.8622 3.26684 26.7315 3.17549 26.6078C3.0913 26.4665 3.01785 26.3552 2.9462 26.152L2.78857 25.7068L3.27938 25.6945L6.43026 25.6132L6.44817 26.3199Z" fill="white"/>
<path d="M7.00703 28.6245L5.46115 28.9601L5.68148 28.4195L5.76746 28.5132L5.87852 28.6174C5.95375 28.6863 6.03794 28.7499 6.11855 28.817L6.37829 29.0007L6.65415 29.1668C6.74371 29.2251 6.84581 29.2675 6.94254 29.317C7.04107 29.3611 7.13421 29.4177 7.23811 29.4548L7.54442 29.5749L7.69668 29.635L7.8561 29.6827C8.27526 29.8204 8.71055 29.9176 9.15121 29.9953C9.37333 30.0236 9.59545 30.0589 9.81936 30.0907C10.0433 30.1137 10.2708 30.1225 10.4965 30.1384L10.835 30.1614H11.1772L11.8614 30.1632C12.0889 30.1543 12.3182 30.1331 12.5475 30.1208C12.7768 30.1066 13.0061 30.1049 13.2353 30.0784C13.4646 30.0536 13.6939 30.036 13.925 30.013C14.1543 29.99 14.3889 29.9883 14.62 29.9565C15.0822 29.907 15.5479 29.8611 16.0262 29.8469C15.5927 30.0342 15.1467 30.1879 14.697 30.3398C14.2438 30.4741 13.7799 30.5713 13.3177 30.6755C12.8502 30.7568 12.3773 30.8115 11.9026 30.861L11.1861 30.8963L10.8279 30.914L10.4678 30.9034C9.50767 30.8981 8.535 30.755 7.59816 30.4529L7.42261 30.3981L7.25065 30.3275L6.90672 30.1879C6.79208 30.1437 6.6846 30.0766 6.57354 30.0218C6.46427 29.9618 6.35142 29.9105 6.24752 29.8381C6.14184 29.7692 6.03615 29.7039 5.93226 29.6332L5.6349 29.4C5.53996 29.3134 5.44503 29.2304 5.35546 29.135C5.26411 29.0361 5.18529 28.953 5.09035 28.8135L4.79479 28.3842L5.31068 28.2711L6.85656 27.9355L7.00703 28.6245Z" fill="white"/>
<path d="M9.6206 30.7766L7.69138 31.5751L7.80961 31.0027C7.84902 31.0328 7.94037 31.0964 8.01561 31.1423C8.0998 31.1865 8.1804 31.2377 8.26818 31.2801C8.35774 31.3207 8.44372 31.3667 8.53687 31.402L8.81452 31.5115C9.19786 31.6352 9.59015 31.7465 9.99856 31.8066C10.201 31.8401 10.4034 31.879 10.6112 31.8931C10.819 31.9108 11.0232 31.9443 11.2328 31.9426L11.8597 31.9691L12.4903 31.9567C12.7016 31.9585 12.9112 31.9443 13.1226 31.9267L13.7567 31.8825C14.1776 31.8242 14.6022 31.7889 15.0267 31.7324L15.6626 31.644C15.8758 31.6158 16.0907 31.5963 16.3039 31.5628C16.7302 31.4974 17.1601 31.4391 17.599 31.402C17.2031 31.5857 16.7983 31.7483 16.3881 31.9019C15.9761 32.0486 15.5551 32.1616 15.1324 32.28C14.9228 32.3418 14.7043 32.3719 14.4911 32.4196C14.2762 32.4637 14.0612 32.5061 13.8445 32.5432L13.1889 32.6263C12.9703 32.6545 12.7518 32.6846 12.5297 32.6934C11.6483 32.7694 10.7473 32.7376 9.85526 32.5909C9.40923 32.5185 8.96678 32.3966 8.53508 32.2358L8.21444 32.0998C8.10875 32.0521 8.00665 31.992 7.90275 31.939C7.79886 31.8825 7.69855 31.8154 7.60003 31.7483C7.49792 31.6705 7.41194 31.6122 7.29551 31.4939L6.91575 31.1282L7.41373 30.9215L9.34295 30.123L9.6206 30.7766Z" fill="white"/>
<path d="M11.3258 32.6002L9.94116 33.7891L9.89996 33.2256C9.9537 33.2539 10.0415 33.2963 10.1203 33.3281C10.1991 33.3634 10.2851 33.3934 10.3675 33.427C10.5359 33.4871 10.7078 33.5471 10.8834 33.5948C11.2327 33.699 11.5927 33.7715 11.9564 33.8351C12.6836 33.9552 13.4306 33.9958 14.1794 33.9888C14.9299 33.9958 15.6787 33.8987 16.431 33.8156C16.8072 33.7679 17.1816 33.7079 17.5649 33.6672C17.9429 33.609 18.3244 33.5524 18.7167 33.5224C18.3692 33.699 18.0109 33.851 17.6491 33.9976C17.2801 34.1177 16.9093 34.2414 16.5313 34.3368C16.1498 34.4145 15.77 34.5152 15.3795 34.5576L14.7956 34.6389C14.6003 34.6566 14.4033 34.6707 14.2062 34.6848C13.4198 34.7307 12.6227 34.7148 11.8328 34.5912C11.4387 34.5241 11.0446 34.4446 10.6613 34.3191C10.4678 34.2626 10.2779 34.1884 10.088 34.1124C9.99311 34.07 9.89996 34.0329 9.80682 33.9835C9.71188 33.934 9.62769 33.8916 9.51663 33.8227L9.10642 33.5754L9.47543 33.2592L10.8601 32.0702L11.3258 32.6002Z" fill="white"/>
<path d="M15.2666 34.5571L13.916 35.6348L13.8927 35.0695C13.9357 35.0924 14.0127 35.1295 14.079 35.1578C14.1453 35.1896 14.2205 35.2143 14.2922 35.2444C14.362 35.2744 14.4391 35.2956 14.5125 35.3203C14.5859 35.3468 14.6612 35.368 14.7364 35.3874C14.8134 35.4069 14.8869 35.4298 14.9639 35.4475L15.1968 35.4952C15.349 35.5341 15.5103 35.5447 15.6661 35.5712C16.2984 35.6507 16.9469 35.6383 17.5917 35.5694C18.242 35.5146 18.8779 35.3415 19.5192 35.1808C19.838 35.0942 20.1569 34.9935 20.4865 34.9122C20.8089 34.8133 21.1331 34.7161 21.4788 34.6455C21.2137 34.8681 20.9289 35.0642 20.6405 35.2567C20.3378 35.421 20.0333 35.5906 19.7144 35.7266C19.3884 35.8468 19.0678 35.9881 18.7256 36.0676L18.2169 36.2054C18.0449 36.2407 17.8712 36.2725 17.6956 36.3026C16.9988 36.4139 16.2787 36.4509 15.564 36.3591C15.2075 36.3096 14.8511 36.2443 14.5053 36.1277C14.3316 36.0782 14.1614 36.0058 13.993 35.9333C13.9088 35.8927 13.8247 35.8574 13.744 35.8097C13.6581 35.7637 13.5864 35.7213 13.4861 35.6524L13.0813 35.391L13.4628 35.0854L14.8134 34.0077L15.2666 34.5571Z" fill="white"/>
<path d="M19.3652 35.5409L18.491 36.8394C18.491 36.8394 20.3791 37.781 22.199 36.4772" stroke="white" stroke-width="4" stroke-miterlimit="10"/>
<path d="M21.4825 44.4713C22.0217 44.6427 22.5268 44.7911 23.0302 44.9024C23.5299 45.0172 24.0315 45.0897 24.5241 45.0579C25.0149 45.0331 25.4914 44.9165 25.9392 44.724C26.3852 44.5261 26.8044 44.2576 27.2039 43.9431L27.2863 43.8707L27.3794 43.853C28.5903 43.6234 29.7762 43.4679 30.8886 43.0916C32.0009 42.7259 33.0291 42.1518 33.9051 41.3868C34.344 41.007 34.7488 40.5848 35.125 40.1361C35.494 39.6821 35.8361 39.2051 36.1514 38.7086C36.7765 37.7123 37.2978 36.647 37.7546 35.5535C38.2149 34.4617 38.5732 33.3311 38.9888 32.1898C39.4061 31.0574 39.8558 29.9268 40.4469 28.8439C40.7442 28.3033 41.0864 27.7768 41.4966 27.2946C41.7008 27.0525 41.9247 26.8264 42.1594 26.6144C42.2794 26.5102 42.3976 26.406 42.5212 26.3106C42.6394 26.2169 42.7773 26.1056 42.9296 26.0191C43.5297 25.6604 44.2283 25.5491 44.8785 25.5739C45.2063 25.5862 45.5288 25.6286 45.8422 25.694C46.1611 25.7629 46.4567 25.8442 46.7791 25.9696L46.2829 26.277C46.2901 26.0721 46.2668 25.8707 46.1969 25.6781C46.1306 25.4856 46.025 25.3018 45.8924 25.1322C45.7599 24.9626 45.5986 24.8089 45.4213 24.6694C45.3335 24.6005 45.2404 24.5351 45.1436 24.475C45.0505 24.4168 44.943 24.3549 44.8606 24.3178L44.7352 24.2595L44.6725 24.1182C44.6206 23.9981 44.5364 23.8479 44.454 23.7172C44.3698 23.5847 44.2767 23.4557 44.1781 23.3338C43.9793 23.09 43.75 22.8763 43.501 22.6996C43.2503 22.5229 42.9744 22.394 42.6842 22.3109L42.5749 22.2809L42.4549 22.2527C42.3743 22.235 42.2937 22.2173 42.2131 22.2014C42.0519 22.1696 41.8925 22.1467 41.733 22.1325C41.0953 22.0707 40.4648 22.1467 39.8737 22.3798C39.2843 22.613 38.7308 22.9734 38.2275 23.4027C37.7223 23.8338 37.2655 24.3284 36.8267 24.8478C36.3645 25.3919 35.8701 25.9095 35.3256 26.3777C34.781 26.8423 34.1863 27.2539 33.5432 27.5737C32.9038 27.8917 32.2213 28.1514 31.5101 28.222C32.1514 27.927 32.7336 27.5596 33.2907 27.1656C33.8442 26.7681 34.369 26.3371 34.8563 25.8689C35.3453 25.4025 35.8021 24.9026 36.2194 24.3708C36.438 24.0952 36.6637 23.8143 36.9055 23.5493C37.1491 23.2844 37.4053 23.0282 37.6775 22.7879C38.2221 22.3057 38.8419 21.8728 39.5566 21.5919C40.266 21.3093 41.0649 21.205 41.8208 21.2951C42.0089 21.3146 42.1952 21.3446 42.3779 21.3835C42.4692 21.4011 42.5606 21.4223 42.6502 21.4435L42.7845 21.4771L42.9278 21.5177C43.3076 21.6361 43.6658 21.8198 43.9793 22.053C44.2946 22.2845 44.5633 22.5671 44.7926 22.871C44.9054 23.0229 45.0093 23.1819 45.1007 23.348C45.1938 23.5175 45.2708 23.6748 45.3461 23.8762L45.158 23.6748C45.4303 23.8055 45.6452 23.9468 45.8655 24.1164C46.0823 24.2843 46.2829 24.4786 46.4584 24.6994C46.6322 24.9202 46.7809 25.1729 46.874 25.4485C46.9726 25.724 47.0102 26.0208 46.9976 26.3106L46.9761 26.8034L46.5014 26.618C46.2578 26.5226 45.9676 26.4395 45.6936 26.383C45.4141 26.3247 45.1329 26.2876 44.8535 26.277C44.2964 26.2558 43.7446 26.3547 43.3004 26.6215C43.1876 26.6851 43.0908 26.7646 42.9726 26.8582C42.858 26.9465 42.7505 27.0419 42.643 27.1356C42.4298 27.3281 42.2292 27.5295 42.0447 27.7486C41.6739 28.1832 41.3569 28.669 41.0756 29.1813C40.5149 30.2077 40.0725 31.3136 39.6623 32.4301C39.4527 32.9901 39.27 33.5501 39.0658 34.1225C38.867 34.6949 38.652 35.262 38.4173 35.822C37.9498 36.942 37.4124 38.0426 36.7586 39.0814C36.429 39.599 36.0708 40.1025 35.6803 40.5813C35.2826 41.0565 34.8509 41.507 34.378 41.9168C33.4358 42.7401 32.309 43.3707 31.1178 43.7594C29.9266 44.1586 28.6906 44.3194 27.5209 44.5438L27.6965 44.4537C27.306 44.8724 26.8223 45.2257 26.2814 45.4748C26.0073 45.5931 25.7225 45.6868 25.4287 45.7504C25.1349 45.8087 24.8358 45.8352 24.5384 45.8369C24.2411 45.8369 23.9473 45.7963 23.6607 45.738C23.3741 45.6797 23.0946 45.5967 22.8313 45.4818C22.3065 45.2539 21.8246 44.9254 21.4825 44.4713Z" fill="white"/>
<path d="M22.9674 45.0936C22.9674 45.0936 22.4265 46.1059 20.757 46.6041C20.757 46.6041 19.4959 52.04 16.9774 52.3844" stroke="white" stroke-width="4" stroke-miterlimit="10"/>
<path d="M17.7673 49.1678C17.8945 49.7226 17.8873 50.2949 17.8139 50.8567C17.7368 51.4185 17.5685 51.9697 17.3499 52.505C17.2335 52.77 17.1009 53.0314 16.9487 53.2823C16.7928 53.5314 16.6137 53.7699 16.4167 53.9942C16.0172 54.4394 15.5192 54.8086 14.9639 55.0471L14.1435 55.4058L14.4642 54.6231L16.1587 50.4769L15.1466 54.8334L14.6469 54.4111C15.0875 54.1568 15.4852 53.8476 15.8237 53.4713C16.1641 53.0968 16.4489 52.6657 16.6872 52.2029C16.929 51.74 17.1099 51.2436 17.2783 50.7348C17.4449 50.226 17.6007 49.7084 17.7673 49.1678Z" fill="white"/>
<path d="M16.9791 48.0604C16.6961 48.5692 16.3898 49.0586 16.0781 49.5426C15.7646 50.0267 15.4422 50.5037 15.109 50.9736C14.7812 51.447 14.4373 51.9063 14.0862 52.3621C13.7279 52.8126 13.3661 53.2578 12.9648 53.6747L13.0365 53.514L12.6997 55.5049L12.2179 55.1163C12.4776 55.0244 12.7553 54.9007 13.0186 54.7789C13.2837 54.6534 13.5434 54.5156 13.7906 54.3637C14.285 54.0563 14.7525 53.703 15.1072 53.2543L15.3956 53.4345C15.2452 53.7171 15.0481 53.9733 14.8296 54.2047C14.6092 54.4344 14.3692 54.6428 14.1148 54.8301C13.8605 55.0173 13.5972 55.1905 13.3249 55.3477C13.0508 55.5085 12.7785 55.648 12.4722 55.777L11.8883 55.9996L11.9922 55.3901L12.3289 53.3991L12.3343 53.3426L12.4024 53.2401C12.7176 52.7578 13.0705 52.3038 13.4288 51.8551C13.7942 51.4117 14.165 50.9718 14.5537 50.546C14.9371 50.1168 15.3311 49.6945 15.7342 49.2794C16.1354 48.8625 16.5456 48.4526 16.9791 48.0604Z" fill="white"/>
<path d="M17.0741 46.8456C16.6872 47.3809 16.2627 47.879 15.8345 48.3737C15.4028 48.8648 14.9568 49.3418 14.5036 49.8117C14.054 50.2852 13.5972 50.7516 13.1404 51.2179C12.6819 51.6826 12.2197 52.1436 11.7522 52.5994L11.8059 52.5341C11.6573 52.7637 11.5032 52.9899 11.3509 53.2177C11.2005 53.4456 11.0464 53.6735 10.8888 53.8961L10.6971 53.3697C10.8261 53.4068 11.0016 53.4403 11.1575 53.4545C11.3187 53.4704 11.4781 53.4721 11.634 53.458C11.9457 53.4315 12.2376 53.3361 12.4741 53.1701L12.8915 53.7442C12.535 53.9968 12.1087 54.1276 11.6985 54.1611C11.4925 54.1806 11.2883 54.177 11.0858 54.1576C10.8798 54.1364 10.6953 54.1064 10.4768 54.0428L10.0487 53.9156L10.2851 53.5163C10.4249 53.2813 10.5699 53.0482 10.715 52.8167C10.8619 52.5853 11.0052 52.3521 11.1539 52.1225L11.1772 52.0871L11.2076 52.0571C11.6734 51.5995 12.1445 51.1473 12.6174 50.6968C13.0921 50.2498 13.5686 49.8029 14.0522 49.3612C14.5323 48.9178 15.0177 48.4815 15.5175 48.0575C16.0208 47.6388 16.5296 47.2236 17.0741 46.8456Z" fill="white"/>
<path d="M15.4835 47.1776C15.1234 47.6634 14.7276 48.1122 14.3245 48.5503C13.9215 48.9902 13.4969 49.4071 13.076 49.8275C12.2287 50.6649 11.3653 51.4829 10.4625 52.2602L10.3676 51.6807C10.4518 51.716 10.5771 51.7567 10.6864 51.7796C10.7993 51.8044 10.9121 51.8203 11.0232 51.8238C11.2435 51.8309 11.4459 51.7885 11.6053 51.6913L11.9797 52.2937C11.6752 52.4792 11.3187 52.5428 10.9999 52.5305C10.8387 52.5252 10.681 52.504 10.5288 52.4686C10.3729 52.4315 10.2386 52.3944 10.072 52.3238L9.59373 52.1188L9.97706 51.7443C10.8297 50.9122 11.72 50.1226 12.63 49.3523C13.0867 48.969 13.5399 48.5821 14.0146 48.2181C14.4839 47.8507 14.9676 47.4956 15.4835 47.1776Z" fill="white"/>
<path d="M14.2743 47.1249C14.0056 47.4605 13.7047 47.7556 13.3984 48.0418C13.092 48.3279 12.7678 48.5894 12.4454 48.8526C11.7951 49.3738 11.1324 49.8773 10.4284 50.3242L10.4588 49.7783C10.4893 49.8048 10.5538 49.8525 10.6075 49.8861C10.6648 49.9214 10.724 49.955 10.7849 49.9833C10.9067 50.0416 11.0321 50.084 11.1592 50.1069C11.4118 50.1546 11.6626 50.1175 11.8955 50.0062L12.2089 50.6422C12.0298 50.727 11.8346 50.7888 11.6339 50.8171C11.4315 50.8454 11.2273 50.8383 11.0303 50.803C10.8332 50.7676 10.6469 50.704 10.4732 50.621C10.3854 50.5804 10.303 50.5327 10.2206 50.4814C10.1364 50.4267 10.0683 50.3807 9.97519 50.3012L9.66172 50.0345L10.0056 49.7554C10.6523 49.2307 11.3419 48.7643 12.0459 48.3138C12.3988 48.0912 12.7499 47.8669 13.1207 47.669C13.4897 47.4641 13.8677 47.2733 14.2743 47.1249Z" fill="white"/>
<path d="M42.1915 23.6946C42.1915 23.9437 41.9873 24.1451 41.7347 24.1451C41.4822 24.1451 41.278 23.9437 41.278 23.6946C41.278 23.4455 41.4822 23.2441 41.7347 23.2441C41.9873 23.2441 42.1915 23.4455 42.1915 23.6946Z" fill="white"/>
<path d="M26.1828 9.19091L24.1587 7.71226L24.7122 7.5409C24.6782 7.67869 24.6477 7.85535 24.6208 8.01788C24.5958 8.18394 24.5725 8.35 24.5528 8.5196C24.5169 8.85526 24.4919 9.19445 24.4847 9.5354C24.465 10.2155 24.508 10.8992 24.5922 11.5794C24.6799 12.2595 24.8197 12.9361 24.9845 13.6127C25.1475 14.2911 25.3517 14.9624 25.5523 15.6549C25.1099 15.0826 24.7606 14.4448 24.4722 13.7806C24.1802 13.1163 23.9813 12.4132 23.8398 11.6977C23.7019 10.9823 23.6356 10.2491 23.6553 9.5142C23.6661 9.14675 23.6965 8.77929 23.7556 8.41537C23.7843 8.23341 23.8183 8.05145 23.8631 7.86949C23.9079 7.68399 23.9563 7.51616 24.0315 7.31654L24.1855 6.85545L24.5832 7.14694L26.6074 8.6256L26.1828 9.19091Z" fill="white"/>
<path d="M24.2877 13.3371L22.2617 11.7207L22.8421 11.4963C22.8135 11.9768 22.7973 12.4909 22.8009 12.9891C22.8063 13.4908 22.8296 13.9926 22.8869 14.4907C22.9424 14.9889 23.0284 15.4853 23.1556 15.9747C23.281 16.4658 23.4529 16.9463 23.6715 17.4268C23.2917 17.0559 22.9854 16.6036 22.7526 16.1213C22.5161 15.6373 22.3459 15.1232 22.2295 14.5985C22.1131 14.0738 22.0468 13.5403 22.0289 13.005C22.0127 12.4662 22.0325 11.9415 22.1346 11.3939L22.2223 10.7773L22.7149 11.1695L24.7409 12.786L24.2877 13.3371Z" fill="white"/>
<path d="M22.8707 16.3245L21.6705 15.9942L22.1237 15.6885C22.1273 15.9606 22.147 16.268 22.1685 16.5595C22.1936 16.8545 22.2258 17.1478 22.267 17.441C22.3494 18.0258 22.4677 18.607 22.6235 19.1776C22.7041 19.462 22.7883 19.7464 22.8868 20.0256C22.9853 20.3047 23.1 20.5785 23.2093 20.8576C23.4314 21.4141 23.6696 21.9653 23.8828 22.5766C23.3454 22.2056 22.9244 21.7074 22.5877 21.165C22.4193 20.893 22.2796 20.605 22.1506 20.3118C22.0252 20.0185 21.8998 19.7235 21.8067 19.4161C21.6096 18.8084 21.4699 18.1812 21.4001 17.547C21.366 17.229 21.3427 16.911 21.3445 16.5913C21.3445 16.268 21.3606 15.9588 21.4126 15.6179L21.452 15.1992L21.864 15.3122L23.0642 15.6426L22.8707 16.3245Z" fill="white"/>
<path d="M22.6737 20.4769L21.4824 19.6484C21.4824 19.6484 20.5438 22.5386 22.199 24.8104" stroke="white" stroke-width="4" stroke-miterlimit="10"/>
<path d="M31.4833 30.9195C30.5339 31.2233 29.4824 31.2021 28.5008 30.9919C28.2536 30.9424 28.0117 30.8736 27.7681 30.8082C27.5299 30.7305 27.2899 30.651 27.057 30.5591C26.5877 30.3824 26.1345 30.1651 25.6938 29.9337C24.8107 29.4709 23.9795 28.9197 23.1968 28.319C22.4175 27.7113 21.6742 27.0577 21.015 26.3281C21.7924 26.9305 22.5859 27.5029 23.401 28.0399C24.2142 28.577 25.0507 29.0769 25.9159 29.515C26.7811 29.9496 27.6768 30.3206 28.6029 30.5821C29.5308 30.8488 30.4909 30.976 31.4833 30.9195Z" fill="white"/>
<path d="M18.9191 25.1347C19.0678 25.2319 19.2022 25.3414 19.3473 25.4368C19.4941 25.5287 19.6339 25.6311 19.7861 25.7106C20.0799 25.8873 20.3934 26.0268 20.7122 26.1487L20.954 26.2335L21.2012 26.3024C21.366 26.3484 21.5326 26.3837 21.7028 26.4155C22.0414 26.4756 22.3853 26.5109 22.74 26.5074C22.3996 26.6098 22.036 26.6293 21.6795 26.601C21.3213 26.5727 20.9666 26.4968 20.6298 26.3678C20.2966 26.2353 19.9706 26.0781 19.6858 25.8608C19.5353 25.7636 19.4082 25.6382 19.2756 25.5234C19.1466 25.4032 19.032 25.2672 18.9191 25.1347Z" fill="white"/>
</svg>
