<svg width="23" height="22" viewBox="0 0 23 22" fill="none" xmlns="http://www.w3.org/2000/svg">
<rect x="1.5498" y="1" width="20" height="20" rx="10" fill="#132C4E" stroke="#132C4E" stroke-width="1.4"/>
<path d="M13.1085 8.77262L11.1175 7.81756C9.87071 7.21947 9.2473 6.92043 8.81789 7.12178C8.68368 7.1847 8.56514 7.27668 8.47085 7.39105C8.16914 7.75699 8.30395 8.43514 8.57357 9.79145L8.57357 9.79145L9.00412 11.9573C9.0805 12.3415 9.11869 12.5336 9.21948 12.6919C9.25271 12.744 9.29072 12.793 9.33301 12.8382C9.46125 12.9751 9.63785 13.0598 9.99106 13.2293L11.982 14.1843C13.2289 14.7824 13.8523 15.0815 14.2817 14.8801C14.4159 14.8172 14.5344 14.7252 14.6287 14.6108C14.9304 14.2449 14.7956 13.5667 14.526 12.2104L14.0955 10.0446C14.0191 9.66038 13.9809 9.46827 13.8801 9.31003C13.8469 9.25785 13.8089 9.20887 13.7666 9.16371C13.6383 9.02677 13.4617 8.94205 13.1085 8.77262Z" fill="#132C4E" stroke="white" stroke-width="1.4" stroke-linecap="round" stroke-linejoin="round"/>
</svg>
