<svg width="25" height="24" viewBox="0 0 25 24" fill="none" xmlns="http://www.w3.org/2000/svg">
<path d="M11.9503 22H13.5515C16.5503 22 18.0497 22 19.1011 21.2361C19.4407 20.9893 19.7393 20.6907 19.9861 20.3511C20.75 19.2997 20.75 17.7998 20.75 14.8V13.427C20.75 11.9327 20.75 11.1855 20.5 10.5121C20.4175 10.2898 20.3155 10.0753 20.195 9.8711C19.8299 9.25242 19.25 8.78127 18.0903 7.83897L12.75 3.5L7.40973 7.83897C6.24998 8.78127 5.6701 9.25242 5.30503 9.8711C5.18455 10.0753 5.08245 10.2898 4.99996 10.5121C4.75 11.1855 4.75 11.9327 4.75 13.427V14.8C4.75 17.7998 4.75 19.2997 5.51393 20.3511C5.76065 20.6907 6.05928 20.9893 6.39886 21.2361C7.45032 22 8.9503 22 11.9503 22Z" stroke="#696969" stroke-width="1.4" stroke-linecap="round"/>
<line x1="0.8" y1="-0.8" x2="13.7173" y2="-0.8" transform="matrix(-0.757719 0.652581 -0.757719 -0.652581 12.75 2)" stroke="#696969" stroke-width="1.6" stroke-linecap="round"/>
<line x1="0.8" y1="-0.8" x2="13.7173" y2="-0.8" transform="matrix(0.757719 0.652581 0.757719 -0.652581 12.75 2)" stroke="#696969" stroke-width="1.6" stroke-linecap="round"/>
<line x1="10.45" y1="18.1438" x2="14.55" y2="18.1437" stroke="#696969" stroke-width="1.4" stroke-linecap="round"/>
</svg>
