<svg width="90" height="90" viewBox="0 0 90 90" fill="none" xmlns="http://www.w3.org/2000/svg">
<g clip-path="url(#clip0_13_13947)">
<path fill-rule="evenodd" clip-rule="evenodd" d="M21.1478 6.83945C37.0068 15.9938 49.1352 22.9981 64.0578 31.613V4.23249C49.9143 -2.38978 33.7631 -1.03386 21.1478 6.83945Z" fill="black"/>
<path fill-rule="evenodd" clip-rule="evenodd" d="M66.1179 5.25879C66.1179 23.5674 66.1179 37.5761 66.1179 54.806L89.8278 41.1194C88.5018 25.5526 79.2501 12.2556 66.1179 5.25879Z" fill="black"/>
<path fill-rule="evenodd" clip-rule="evenodd" d="M89.9776 43.4189C74.1186 52.5733 61.9902 59.5776 47.0676 68.1926L70.7775 81.8791C83.595 72.9495 90.487 58.2816 89.9776 43.4189Z" fill="black"/>
<path fill-rule="evenodd" clip-rule="evenodd" d="M68.8597 83.1603C53.0007 74.006 40.8723 67.0017 25.9497 58.3867V85.7672C40.0932 92.397 56.2369 91.0336 68.8597 83.1603Z" fill="black"/>
<path fill-rule="evenodd" clip-rule="evenodd" d="M23.8821 84.7415C23.8821 66.4329 23.8821 52.4242 23.8821 35.1943L0.172241 48.8809C1.50569 64.4477 10.7574 77.7522 23.8821 84.7415Z" fill="black"/>
<path fill-rule="evenodd" clip-rule="evenodd" d="M0.0300181 46.5803C15.8815 37.4259 28.0174 30.4216 42.9325 21.8067L19.2226 8.12012C6.41257 17.0497 -0.479388 31.7176 0.0300181 46.5803Z" fill="black"/>
<path fill-rule="evenodd" clip-rule="evenodd" d="M36.812 59.3008C37.5687 59.7353 38.4301 59.7353 39.1868 59.3008L60.3945 47.0601C61.1511 46.6256 61.5781 45.8765 61.5781 45.0075C61.5781 44.1385 61.1437 43.3894 60.3945 42.9549L39.1868 30.7067C38.4301 30.2722 37.5687 30.2722 36.812 30.7067C36.0554 31.1412 35.6284 31.8903 35.6284 32.7593V57.2482C35.6284 58.1172 36.0554 58.8664 36.812 59.3008Z" fill="black"/>
</g>
<defs>
<clipPath id="clip0_13_13947">
<rect width="90" height="90" fill="white"/>
</clipPath>
</defs>
</svg>
