<svg width="32" height="32" viewBox="0 0 32 32" fill="none" xmlns="http://www.w3.org/2000/svg">
<path d="M30.7409 12.004C30.7458 12.0921 30.7394 12.1817 30.7173 12.2707L28.7434 20.166C28.6439 20.5638 28.2874 20.8434 27.8776 20.8456L16.0346 20.9054C16.033 20.9054 16.0316 20.9054 16.03 20.9054H4.18692C3.77492 20.9054 3.41593 20.6248 3.3164 20.225L1.34256 12.2997C1.31984 12.2083 1.31326 12.1162 1.319 12.0259C0.555424 11.7853 0 11.0708 0 10.2288C0 9.18981 0.845159 8.34466 1.88411 8.34466C2.92307 8.34466 3.76822 9.18981 3.76822 10.2288C3.76822 10.8139 3.50014 11.3373 3.08037 11.6832L5.55161 14.1731C6.17618 14.8024 7.04287 15.1632 7.92954 15.1632C8.97794 15.1632 9.97754 14.6653 10.607 13.8312L14.6683 8.44993C14.3271 8.10899 14.1159 7.6379 14.1159 7.11849C14.1159 6.07953 14.961 5.23438 16 5.23438C17.039 5.23438 17.8841 6.07953 17.8841 7.11849C17.8841 7.62235 17.6841 8.07968 17.3607 8.41811C17.3618 8.41954 17.3631 8.42074 17.3642 8.42229L21.3961 13.8184C22.0253 14.6606 23.0285 15.1633 24.0799 15.1633C24.9747 15.1633 25.8162 14.8149 26.4489 14.1821L28.9357 11.6953C28.507 11.3495 28.2318 10.821 28.2318 10.2288C28.2318 9.18981 29.0769 8.34466 30.1159 8.34466C31.1548 8.34466 32 9.18981 32 10.2288C32 11.0483 31.473 11.7454 30.7409 12.004ZM28.5508 23.7166C28.5508 23.2211 28.1491 22.8194 27.6536 22.8194H4.44615C3.95065 22.8194 3.54895 23.2211 3.54895 23.7166V25.8699C3.54895 26.3654 3.95065 26.7671 4.44615 26.7671H27.6536C28.1491 26.7671 28.5508 26.3654 28.5508 25.8699V23.7166Z" fill="#FFC107"/>
</svg>
