<svg width="24" height="24" viewBox="0 0 24 24" fill="none" xmlns="http://www.w3.org/2000/svg">
<path d="M20.5298 17.2207C21.4937 15.6502 22.0028 13.8429 22.0002 12.0002V11.9998C22.0028 10.1571 21.4937 8.34975 20.5297 6.77922L20.5242 6.77065C19.6299 5.31298 18.3767 4.10901 16.8844 3.27379C15.392 2.43857 13.7104 2.00001 12.0003 2C10.2901 1.99999 8.60853 2.43855 7.11619 3.27375C5.62386 4.10896 4.37064 5.31292 3.47628 6.77058L3.47073 6.77926C2.50912 8.35087 2.00025 10.1575 2.00024 12C2.00024 13.8424 2.50909 15.6491 3.47068 17.2207L3.47633 17.2295C4.37069 18.6871 5.62391 19.8911 7.11624 20.7263C8.60856 21.5615 10.2901 22 12.0003 22C13.7104 22 15.392 21.5614 16.8843 20.7262C18.3766 19.891 19.6298 18.6871 20.5242 17.2294L20.5298 17.2207ZM13.2785 20.2861C13.0879 20.47 12.8686 20.6215 12.6292 20.7346C12.4327 20.828 12.2178 20.8764 12.0002 20.8764C11.7827 20.8764 11.5678 20.828 11.3713 20.7346C10.9157 20.5019 10.5257 20.1586 10.2369 19.7363C9.64716 18.8841 9.21012 17.9359 8.94531 16.9339C9.96259 16.8713 10.9809 16.8394 12.0002 16.8383C13.0192 16.8383 14.0375 16.8701 15.0553 16.9339C14.9088 17.4491 14.7257 17.9531 14.5075 18.4423C14.2202 19.1302 13.8029 19.7562 13.2785 20.2861ZM3.14339 12.5618H7.17687C7.20314 13.6873 7.32513 14.8085 7.54153 15.9133C6.43894 16.0103 5.33916 16.1436 4.24219 16.3131C3.59983 15.1606 3.22434 13.8787 3.14339 12.5618ZM4.24219 7.68692C5.33872 7.85684 6.43889 7.99013 7.54269 8.08679C7.32586 9.19151 7.20359 10.3127 7.17723 11.4382H3.14339C3.22433 10.1213 3.59983 8.83937 4.24219 7.68692ZM10.722 3.71385C10.9126 3.52999 11.1319 3.3785 11.3713 3.2654C11.5678 3.17203 11.7827 3.12358 12.0002 3.12358C12.2178 3.12358 12.4327 3.17203 12.6292 3.2654C13.0848 3.49813 13.4748 3.84135 13.7636 4.26368C14.3533 5.11587 14.7903 6.06413 15.0552 7.06607C14.0379 7.12867 13.0196 7.16056 12.0002 7.16174C10.9813 7.16173 9.96295 7.12983 8.94513 7.06606C9.0917 6.5509 9.27479 6.04684 9.493 5.55771C9.78033 4.8698 10.1976 4.24375 10.722 3.71385ZM20.8571 11.4382H16.8236C16.7973 10.3127 16.6754 9.1915 16.459 8.08669C17.5616 7.98966 18.6613 7.85641 19.7583 7.68691C20.4007 8.83937 20.7762 10.1213 20.8571 11.4382ZM8.67161 15.826C8.45187 14.751 8.32777 13.6587 8.30076 12.5618H15.6998C15.6731 13.6587 15.5492 14.751 15.3297 15.826C14.2211 15.7532 13.1113 15.7161 12.0002 15.7147C10.89 15.7147 9.78048 15.7518 8.67161 15.826ZM15.3289 8.17404C15.5486 9.24901 15.6727 10.3413 15.6997 11.4382H8.30064C8.3274 10.3413 8.45128 9.249 8.67081 8.17399C9.7794 8.24672 10.8892 8.28384 12.0002 8.28532C13.1105 8.28532 14.22 8.24822 15.3289 8.17404ZM16.8232 12.5618H20.8571C20.7762 13.8787 20.4007 15.1606 19.7583 16.3131C18.6618 16.1431 17.5616 16.0099 16.4578 15.9132C16.6746 14.8085 16.7969 13.6873 16.8232 12.5618ZM19.0846 6.65276C18.1259 6.79108 17.1643 6.9006 16.1998 6.9813C16.0265 6.33593 15.8029 5.7051 15.5312 5.0946C15.2831 4.53279 14.9709 4.00153 14.6009 3.51139C16.3892 4.05982 17.9584 5.15928 19.0846 6.65276ZM5.72365 5.72341C6.74947 4.69661 8.01151 3.93712 9.39913 3.51152C9.37808 3.53879 9.35642 3.56485 9.33567 3.59267C8.62243 4.61941 8.10291 5.76789 7.80272 6.98147C6.8382 6.89978 5.87592 6.79021 4.91588 6.65276C5.16348 6.3248 5.43337 6.01428 5.72365 5.72341ZM4.91587 17.3472C5.87459 17.2089 6.83618 17.0994 7.80066 17.0187C7.974 17.6641 8.19756 18.2949 8.4693 18.9054C8.71739 19.4672 9.02956 19.9985 9.3996 20.4886C7.61131 19.9402 6.04204 18.8407 4.91587 17.3472ZM18.2768 18.2766C17.251 19.3034 15.989 20.0629 14.6013 20.4885C14.6224 20.4612 14.644 20.4352 14.6648 20.4073C15.378 19.3806 15.8976 18.2321 16.1978 17.0185C17.1623 17.1002 18.1246 17.2098 19.0846 17.3472C18.837 17.6752 18.5671 17.9857 18.2768 18.2766Z" fill="black"/>
</svg>
