<svg width="32" height="32" viewBox="0 0 32 32" fill="none" xmlns="http://www.w3.org/2000/svg">
<g clip-path="url(#clip0_211_21641)">
<path d="M32 24.9012C32 25.5572 31.4689 26.0883 30.8129 26.0883H1.18683C0.531326 26.0883 0 25.5572 0 24.9012V7.09718C0 6.44167 0.531326 5.91016 1.18683 5.91016H30.813C31.4689 5.91016 32.0001 6.44167 32.0001 7.09718L32 24.9012Z" fill="#21246E"/>
<path d="M12.1627 11.7521L8.60215 20.2483H6.27821L4.52732 13.4686C4.41951 13.0505 4.32737 12.8984 4.00418 12.7208C3.47479 12.4346 2.6039 12.166 1.83496 11.9988L1.88874 11.7522H5.62764C6.1045 11.7522 6.53319 12.0703 6.64101 12.6186L7.5668 17.536L9.85351 11.7522L12.1627 11.7521ZM21.2655 17.473C21.2758 15.2319 18.1645 15.1099 18.1868 14.1073C18.1929 13.8013 18.483 13.4774 19.1182 13.3956C19.4337 13.3537 20.3018 13.3229 21.2858 13.7746L21.6714 11.9738C21.142 11.7817 20.4615 11.5977 19.6158 11.5977C17.4436 11.5977 15.9143 12.7531 15.9014 14.4063C15.8872 15.6288 16.9924 16.311 17.8262 16.7182C18.6822 17.1348 18.9684 17.4008 18.9655 17.7744C18.9598 18.3446 18.2824 18.5938 17.6506 18.605C16.5453 18.6223 15.9042 18.3063 15.3923 18.0679L14.9944 19.9307C15.5071 20.1661 16.4566 20.3705 17.4392 20.3826C19.7479 20.3825 21.2582 19.2394 21.2655 17.473ZM27.0019 20.2482H29.0352L27.261 11.7521H25.384C24.9623 11.7521 24.6067 11.9981 24.4483 12.3748L21.1523 20.2482H23.4592L23.9172 18.9793H26.7371L27.0019 20.2482ZM24.5494 17.238L25.7068 14.0479L26.3726 17.238H24.5494ZM15.3036 11.7521L13.4851 20.2482H11.2868L13.1057 11.7521H15.3036V11.7521Z" fill="white"/>
</g>
<defs>
<clipPath id="clip0_211_21641">
<rect width="32" height="32" fill="white"/>
</clipPath>
</defs>
</svg>
