<svg width="25" height="24" viewBox="0 0 25 24" fill="none" xmlns="http://www.w3.org/2000/svg">
<path d="M4.4531 17.3222C4.48976 16.9879 4.50808 16.8208 4.53104 16.7015C4.80959 15.2543 5.98019 14.2799 7.45398 14.2686C7.57542 14.2677 7.76502 14.2816 8.14423 14.3095C9.32203 14.3959 10.6488 14.4667 11.8352 14.4667C13.0735 14.4667 14.4466 14.3896 15.6404 14.298C16.0061 14.27 16.189 14.256 16.3079 14.2563C17.7042 14.2601 18.8322 15.1264 19.1961 16.4745C19.2271 16.5893 19.2567 16.748 19.3159 17.0653C19.3811 17.4153 19.4138 17.5902 19.4265 17.7324C19.5737 19.3759 18.3659 20.8298 16.7233 20.9865C16.5812 21 16.4032 21 16.0473 21L7.74965 21C7.42576 21 7.26381 21 7.13139 20.9882C5.55973 20.8487 4.36479 19.5155 4.39739 17.938C4.40014 17.8051 4.41779 17.6441 4.4531 17.3222Z" fill="#132C4E"/>
<path fill-rule="evenodd" clip-rule="evenodd" d="M16.3065 14.7563C16.213 14.756 16.057 14.7676 15.6786 14.7966C14.479 14.8885 13.0916 14.9667 11.8352 14.9667C10.6314 14.9667 9.29106 14.895 8.10763 14.8081C7.71529 14.7793 7.55328 14.7679 7.4578 14.7686C6.22227 14.7781 5.25554 15.5827 5.02202 16.7961C5.00393 16.89 4.98805 17.0307 4.95011 17.3767C4.91359 17.7097 4.89945 17.8433 4.89727 17.9483C4.87011 19.2629 5.86589 20.3739 7.17561 20.4902C7.28031 20.4995 7.41459 20.5 7.74964 20.5L16.0472 20.5C16.4155 20.5 16.5635 20.4994 16.6758 20.4887C18.0447 20.3582 19.0512 19.1466 18.9285 17.777C18.9184 17.6647 18.8919 17.5191 18.8243 17.157C18.7631 16.8286 18.7378 16.6953 18.7134 16.6048C18.4082 15.4744 17.4774 14.7595 16.3065 14.7563ZM15.6402 13.7966C15.9704 13.7712 16.1702 13.7559 16.3093 13.7563C17.931 13.7607 19.2562 14.7785 19.6788 16.3442C19.715 16.4784 19.7479 16.6546 19.8015 16.942L19.8137 17.0073C19.873 17.3252 19.9096 17.5216 19.9245 17.6878C20.0962 19.6052 18.6872 21.3014 16.7707 21.4842C16.6046 21.5 16.4049 21.5 16.0816 21.5L7.71873 21.5C7.42428 21.5 7.24195 21.5 7.08715 21.4863C5.25355 21.3235 3.85946 19.7681 3.89749 17.9277C3.9007 17.7723 3.92058 17.5911 3.9527 17.2984C3.95381 17.2883 3.95493 17.278 3.95607 17.2677C3.95732 17.2563 3.95854 17.2451 3.95975 17.2341C3.99292 16.9315 4.0132 16.7465 4.04004 16.607C4.36363 14.9258 5.73809 13.7818 7.45014 13.7687C7.59215 13.7676 7.79894 13.7828 8.14125 13.8079L8.18081 13.8108C9.35298 13.8968 10.6661 13.9667 11.8352 13.9667C13.0553 13.9667 14.4143 13.8906 15.6022 13.7995L15.6402 13.7966Z" fill="#132C4E"/>
<path d="M8.04975 7C8.04975 4.79086 9.84061 3 12.0498 3C14.2589 3 16.0498 4.79086 16.0498 7V7.57143C16.0498 9.46498 14.5147 11 12.6212 11H11.4783C9.58478 11 8.04975 9.46498 8.04975 7.57143V7Z" fill="#132C4E"/>
</svg>
