<svg width="178" height="178" viewBox="0 0 178 178" fill="none" xmlns="http://www.w3.org/2000/svg">
<path d="M55.625 0H0V55.625H55.625V0ZM44.5 44.5H11.125V11.125H44.5V44.5Z" fill="black"/>
<path d="M33.375 22.25H22.25V33.375H33.375V22.25Z" fill="black"/>
<path d="M122.375 0V55.625H178V0H122.375ZM166.875 44.5H133.5V11.125H166.875V44.5Z" fill="black"/>
<path d="M155.75 22.25H144.625V33.375H155.75V22.25Z" fill="black"/>
<path d="M0 178H55.625V122.375H0V178ZM11.125 133.5H44.5V166.875H11.125V133.5Z" fill="black"/>
<path d="M33.375 144.625H22.25V155.75H33.375V144.625Z" fill="black"/>
<path d="M111.25 0H89V11.125H111.25V0Z" fill="black"/>
<path d="M89 44.5H100.125V33.375H111.25V22.25H77.875V11.125H66.75V22.25V27.8125V33.375H89V44.5Z" fill="black"/>
<path d="M77.875 44.5H66.75V55.625H77.875V44.5Z" fill="black"/>
<path d="M111.25 55.625H100.125V66.75H66.75V77.875H111.25V55.625Z" fill="black"/>
<path d="M11.125 100.125H22.25V89H11.125V66.75H0V111.25H11.125V100.125Z" fill="black"/>
<path d="M33.375 66.75H22.25V77.875H33.375V66.75Z" fill="black"/>
<path d="M66.75 111.25H89V100.125H77.875V89H55.625V66.75H44.5V89H33.375V111.25H44.5V100.125H50.0625H55.625H66.75V111.25Z" fill="black"/>
<path d="M111.25 89H100.125V111.25H111.25V89Z" fill="black"/>
<path d="M100.125 122.375H66.75V133.5H89V166.875H66.75V178H100.125V166.875H122.375V155.75H100.125V122.375Z" fill="black"/>
<path d="M77.875 144.625H66.75V155.75H77.875V144.625Z" fill="black"/>
<path d="M122.375 122.375H111.25V144.625H122.375V122.375Z" fill="black"/>
<path d="M166.875 144.625H133.5V178H144.625V155.75H166.875V144.625Z" fill="black"/>
<path d="M178 166.875H155.75V178H178V166.875Z" fill="black"/>
<path d="M178 122.375H166.875V133.5H178V122.375Z" fill="black"/>
<path d="M133.5 133.5H144.625V100.125H122.375V111.25H133.5V133.5Z" fill="black"/>
<path d="M155.75 77.875H144.625V66.75H133.5V77.875H122.375V89H166.875V77.875H178V66.75H155.75V77.875Z" fill="black"/>
<path d="M178 100.125H155.75V111.25H178V100.125Z" fill="black"/>
</svg>
