<svg width="32" height="32" viewBox="0 0 32 32" fill="none" xmlns="http://www.w3.org/2000/svg">
<path d="M14.9355 15.83V19.5317H13.7607V10.3906H16.8751C17.6644 10.3906 18.3374 10.6537 18.8881 11.1799C19.451 11.7061 19.7324 12.3486 19.7324 13.1073C19.7324 13.8843 19.451 14.5267 18.8881 15.0468C18.3435 15.5669 17.6705 15.8239 16.8751 15.8239H14.9355V15.83ZM14.9355 11.5164V14.7042H16.8996C17.3646 14.7042 17.7562 14.5451 18.0621 14.2331C18.3741 13.921 18.5332 13.5417 18.5332 13.1134C18.5332 12.6912 18.3741 12.3179 18.0621 12.0059C17.7561 11.6816 17.3707 11.5226 16.8996 11.5226H14.9355V11.5164Z" fill="#383E41"/>
<path d="M22.8041 13.0703C23.6729 13.0703 24.3582 13.3028 24.8599 13.7678C25.3616 14.2328 25.6124 14.8691 25.6124 15.6768V19.5315H24.4928V18.6627H24.4438C23.9604 19.3786 23.3119 19.7334 22.5043 19.7334C21.8129 19.7334 21.2377 19.5315 20.7727 19.1216C20.3077 18.7116 20.0752 18.2038 20.0752 17.5919C20.0752 16.9434 20.3199 16.4294 20.8094 16.0501C21.2989 15.6646 21.9536 15.4749 22.7674 15.4749C23.4649 15.4749 24.0401 15.6034 24.4867 15.8604V15.5912C24.4867 15.1813 24.3276 14.8386 24.0033 14.5511C23.679 14.2635 23.2997 14.1228 22.8653 14.1228C22.2106 14.1228 21.6905 14.3981 21.3111 14.9549L20.2771 14.3063C20.8461 13.4803 21.6905 13.0703 22.8041 13.0703ZM21.2867 17.6103C21.2867 17.9162 21.4152 18.1732 21.6783 18.3751C21.9353 18.577 22.2412 18.681 22.5899 18.681C23.0856 18.681 23.5261 18.4974 23.9116 18.1303C24.2971 17.7632 24.4928 17.3349 24.4928 16.8393C24.1257 16.5517 23.6179 16.4049 22.9632 16.4049C22.4859 16.4049 22.0883 16.5211 21.7701 16.7475C21.4458 16.9861 21.2867 17.2738 21.2867 17.6103Z" fill="#383E41"/>
<path d="M32.0003 13.2734L28.0844 22.2799H26.8729L28.3291 19.1289L25.7471 13.2734H27.0258L28.8859 17.7644H28.9104L30.7214 13.2734H32.0003Z" fill="#383E41"/>
<path d="M10.1649 13.9805H5.24072V15.9996L8.07666 16.0002C7.96166 16.672 7.59147 17.2447 7.02429 17.6265V17.6269C7.02447 17.6268 7.02472 17.6267 7.02491 17.6265L6.97385 18.8333L8.71304 18.9359C8.71279 18.9361 8.71254 18.9363 8.71235 18.9365C9.69804 18.0243 10.2628 16.6757 10.2628 15.0825C10.2628 14.6994 10.2285 14.3329 10.1649 13.9805Z" fill="#0085F7"/>
<path d="M7.02462 17.6249C7.02443 17.625 7.02418 17.6251 7.02399 17.6253C6.55418 17.9419 5.94924 18.1272 5.24168 18.1272C3.87418 18.1272 2.71412 17.2058 2.29868 15.9637H2.29849C2.29855 15.9639 2.29862 15.9641 2.29868 15.9643L0.846742 15.7344L0.557617 17.3151C1.42043 19.0268 3.19343 20.2014 5.24174 20.2014C6.65718 20.2014 7.84637 19.736 8.71212 18.9348C8.71237 18.9346 8.71262 18.9344 8.7128 18.9342L7.02462 17.6249Z" fill="#00A94B"/>
<path d="M2.13475 14.9632C2.13475 14.6144 2.19287 14.2773 2.29875 13.9604L1.84537 12.6094H0.557375C0.200688 13.3173 0 14.1164 0 14.9632C0 15.81 0.201313 16.6091 0.557375 17.317L0.557625 17.3168L2.29875 15.966C2.29869 15.9658 2.29862 15.9656 2.29856 15.9654C2.19281 15.6487 2.13475 15.3118 2.13475 14.9632Z" fill="#FFBB00"/>
<path d="M5.24199 9.72266C3.19412 9.72266 1.42037 10.8974 0.557617 12.6094L2.29893 13.9604C2.71437 12.7183 3.87443 11.7969 5.24193 11.7969C6.01468 11.7969 6.70674 12.0631 7.25312 12.5832L8.74912 11.0884C7.84055 10.2421 6.65599 9.72266 5.24199 9.72266Z" fill="#FF4031"/>
</svg>
