<svg width="80" height="92" viewBox="0 0 80 92" fill="none" xmlns="http://www.w3.org/2000/svg">
<g clip-path="url(#clip0_255_23797)">
<path fill-rule="evenodd" clip-rule="evenodd" d="M64.1838 62.0351C49.8681 75.5032 27.2279 75.2828 13.1819 61.3765C12.4801 60.6816 11.8124 59.9659 11.1787 59.2295C11.561 61.3298 12.1973 63.3939 13.0877 65.3723C14.4126 68.3232 16.3006 71.0873 18.749 73.5144C21.2916 76.0322 24.2087 77.9484 27.3248 79.2683C30.5561 80.6374 33.9996 81.3582 37.4535 81.4308C40.9257 81.5035 44.4058 80.9278 47.6973 79.7013C50.8632 78.5189 53.851 76.7401 56.4722 74.3623H56.4695L56.501 74.3312L56.5507 74.2897C56.6685 74.186 56.7419 74.1211 56.7733 74.0926L56.7864 74.0797L57.2368 73.6337C57.7945 73.0788 58.3235 72.5135 58.8158 71.9352C59.3133 71.3492 59.7794 70.7554 60.2115 70.1487C60.6514 69.5341 61.0599 68.904 61.4396 68.2584C61.8114 67.6231 62.1702 66.9463 62.5106 66.2332L62.6022 66.0439L62.6127 66.0336C63.2464 64.693 63.7675 63.3628 64.1838 62.0351Z" fill="#132C4E"/>
<path d="M47.8594 14.5518H37.9351V24.3793H47.8594V14.5518Z" fill="#132C4E"/>
<path d="M57.7813 26.835H50.3394V34.2043H57.7813V26.835Z" fill="#132C4E"/>
<path d="M65.2259 19.4629H60.2637V24.3766H65.2259V19.4629Z" fill="#132C4E"/>
<path fill-rule="evenodd" clip-rule="evenodd" d="M55.3018 14.5516V7.17969H62.7464V14.5516" fill="#132C4E"/>
<path d="M70.1883 0H65.2261V4.91375H70.1883V0Z" fill="#132C4E"/>
<path fill-rule="evenodd" clip-rule="evenodd" d="M67.0459 37.85V31.4375H73.5242V37.8526" fill="#132C4E"/>
<path d="M80.0002 25.1885H75.6821V29.4643H80.0002V25.1885Z" fill="#132C4E"/>
<path fill-rule="evenodd" clip-rule="evenodd" d="M75.6844 42.123V46.3989H71.3638V42.123H75.6844Z" fill="#132C4E"/>
<path d="M75.8443 52.9988C75.8365 52.8381 75.8312 52.6799 75.8234 52.5243C75.7972 52.0005 75.7579 51.4793 75.7108 50.9607L75.6951 50.8181C75.6924 50.7714 75.6872 50.7222 75.6846 50.6755H68.0514C68.0619 50.7559 68.0698 50.8363 68.0802 50.9166C68.096 51.0618 68.1143 51.2071 68.1274 51.3549C68.1771 51.8242 68.2138 52.2961 68.2374 52.7732C68.2452 52.8925 68.2505 53.0118 68.2557 53.1311C68.2609 53.2426 68.2662 53.3541 68.2688 53.4682V53.4915C68.2688 53.4993 68.2714 53.5071 68.2688 53.5148C68.274 53.66 68.2766 53.8078 68.2793 53.9531C68.2819 54.1138 68.2845 54.2772 68.2845 54.4405C68.2845 54.6065 68.2819 54.7724 68.2793 54.9384C68.2766 55.0421 68.274 55.1458 68.2714 55.247V55.2859C68.2688 55.3766 68.2662 55.4622 68.2635 55.5529C68.2583 55.6333 68.2557 55.7111 68.2505 55.7941C68.2452 55.8978 68.24 56.0015 68.2347 56.1027C68.2321 56.1804 68.2269 56.2582 68.2243 56.3308C68.219 56.4294 68.2112 56.5305 68.2059 56.629C68.2059 56.6394 68.2033 56.6446 68.2033 56.655C68.1955 56.7431 68.1876 56.8339 68.1824 56.922C68.1798 56.948 68.1771 56.9739 68.1745 57.0024C68.1719 57.0284 68.1719 57.0543 68.1667 57.0802C68.1614 57.1632 68.1509 57.2488 68.1457 57.3317C68.1379 57.4147 68.13 57.4977 68.1195 57.5807C68.1169 57.6118 68.1143 57.6429 68.1091 57.6714C68.0986 57.7777 68.0855 57.8841 68.0724 57.9904C68.0514 58.1823 68.0279 58.3767 67.9991 58.566C67.9938 58.5971 67.9886 58.6308 67.9834 58.662C67.9546 58.885 67.9179 59.108 67.8839 59.331C67.8839 59.3387 67.8812 59.3413 67.8812 59.3491L67.8734 59.3906C67.7817 59.9455 67.6744 60.49 67.5513 61.032C67.5461 61.0475 67.5434 61.0657 67.5408 61.0786C67.4727 61.3794 67.402 61.6776 67.3235 61.9732C67.2999 62.0718 67.2763 62.1677 67.2475 62.2637C67.2318 62.3259 67.2135 62.3855 67.1978 62.4478C67.1323 62.6863 67.0642 62.9223 66.9909 63.1582C66.9359 63.3423 66.8783 63.5264 66.8155 63.7105C66.8129 63.7183 66.8102 63.7235 66.8076 63.7287C66.7422 63.931 66.6767 64.1332 66.6034 64.3329C66.5432 64.5092 66.4777 64.6855 66.4122 64.8618C66.4017 64.8904 66.3939 64.9215 66.3808 64.95C66.3415 65.0511 66.3049 65.1549 66.263 65.2534C66.2184 65.3701 66.1713 65.4842 66.1268 65.5983C66.1137 65.6294 66.1006 65.6631 66.0875 65.6942C66.043 65.7979 66.0037 65.9042 65.9566 66.0054C65.9252 66.078 65.8937 66.1506 65.8623 66.2232C65.7811 66.4125 65.6973 66.5992 65.6136 66.7859C65.5481 66.9259 65.4826 67.0685 65.4198 67.2059C65.4015 67.2422 65.3857 67.2759 65.37 67.3122C65.3072 67.4445 65.2417 67.5767 65.1789 67.7064C65.1108 67.8412 65.0427 67.9786 64.972 68.1135C64.9118 68.2302 64.8515 68.3469 64.7887 68.4609C64.6866 68.6528 64.5818 68.8421 64.4771 69.0314C64.3933 69.1818 64.3069 69.3322 64.2179 69.4826C64.1262 69.6408 64.0293 69.7989 63.9377 69.9519C63.7465 70.2657 63.5501 70.5743 63.3485 70.8802C61.0363 74.3808 58.0066 77.3757 54.4637 79.655C54.4611 79.655 54.4611 79.655 54.4611 79.655C54.3249 79.7431 54.1861 79.8287 54.0473 79.9169C54.0185 79.9376 53.9897 79.9558 53.9609 79.9687C53.8169 80.0569 53.6729 80.1451 53.5288 80.2306C53.3717 80.324 53.212 80.4147 53.0549 80.5081C52.5783 80.7777 52.0913 81.0371 51.599 81.286C51.468 81.3534 51.3345 81.4156 51.2036 81.4805C51.1459 81.5116 51.0857 81.5375 51.0281 81.5634C50.8867 81.6308 50.7453 81.6957 50.6039 81.7605C50.4468 81.8357 50.2923 81.9031 50.1326 81.9731C50.0907 81.9913 50.0488 82.012 50.0042 82.025C49.9335 82.0587 49.8576 82.0898 49.7843 82.1209V82.1235C49.7188 82.152 49.6534 82.178 49.5879 82.2013C49.4439 82.2635 49.2972 82.3232 49.1532 82.3802C48.9044 82.4788 48.6531 82.5721 48.4017 82.6629C48.1032 82.7718 47.8046 82.8755 47.5035 82.974C47.5009 82.9766 47.4983 82.9766 47.4957 82.9766C47.3543 83.0259 47.2102 83.0726 47.0662 83.1141C46.9222 83.1607 46.7756 83.2048 46.6289 83.2463C46.4954 83.2878 46.3592 83.3267 46.223 83.363C46.1235 83.3915 46.024 83.4174 45.9245 83.446C45.6758 83.5134 45.4244 83.5782 45.1756 83.6378C45.0342 83.6741 44.8954 83.7053 44.754 83.7364C44.7016 83.7467 44.6519 83.7597 44.5969 83.7727C44.5445 83.7856 44.4922 83.7934 44.4372 83.8064C44.2853 83.8401 44.1334 83.8712 43.9841 83.9023C43.9711 83.9075 43.9527 83.9101 43.937 83.9127C43.8742 83.9257 43.8139 83.936 43.7511 83.949C43.6542 83.9671 43.5573 83.9879 43.4578 84.0034C43.4002 84.0112 43.3426 84.0242 43.2824 84.0346C43.1802 84.0527 43.0807 84.0709 42.9786 84.0838C42.8713 84.102 42.7613 84.1201 42.6539 84.1357C42.5151 84.159 42.3763 84.1772 42.2349 84.1979C42.1407 84.2135 42.0464 84.2264 41.9469 84.2368C41.8264 84.255 41.7034 84.2705 41.5829 84.2809C41.4729 84.2965 41.3603 84.3094 41.2477 84.3224C41.143 84.3354 41.0383 84.3457 40.9335 84.3535C40.7371 84.3743 40.5381 84.3924 40.3391 84.4054C40.1008 84.4235 39.8599 84.4417 39.6216 84.452C39.3807 84.465 39.1398 84.478 38.9015 84.4832C38.7418 84.4883 38.5873 84.4935 38.4275 84.4961C38.2626 84.4987 38.1002 84.5013 37.9379 84.5013C37.6524 84.5013 37.367 84.4961 37.0842 84.4883C37.0476 84.4883 37.0161 84.4858 36.9821 84.4858C36.8983 84.4832 36.8145 84.4806 36.7307 84.4754C36.6233 84.4702 36.516 84.4624 36.4086 84.4598C36.3615 84.4572 36.3091 84.4546 36.262 84.452C36.1939 84.4494 36.1258 84.4443 36.0604 84.4417C35.9347 84.4339 35.8116 84.4261 35.6885 84.4183C35.6021 84.4106 35.5183 84.4028 35.4345 84.3976C35.2957 84.3872 35.1569 84.3768 35.0182 84.3613C34.6568 84.3276 34.3007 84.2861 33.9472 84.2394C33.7351 84.2135 33.5256 84.185 33.3135 84.1513C33.3082 84.1513 33.3004 84.1487 33.2978 84.1487C33.2951 84.1461 33.2951 84.1461 33.2925 84.1461C33.282 84.1461 33.2742 84.1461 33.269 84.1435C33.159 84.1279 33.0516 84.1098 32.939 84.0916C32.8317 84.076 32.7217 84.0553 32.6143 84.0372C32.5384 84.0242 32.4651 84.0112 32.3944 83.9957C32.2425 83.9697 32.0932 83.9412 31.9466 83.9101C30.7996 83.6845 29.6763 83.3915 28.5817 83.0388C28.3958 82.9792 28.2099 82.917 28.024 82.8547C27.9559 82.8314 27.8904 82.8107 27.8249 82.7873C27.66 82.7303 27.495 82.6706 27.33 82.6084C27.2279 82.5695 27.1232 82.5332 27.0237 82.4917C26.9661 82.471 26.9058 82.4502 26.8482 82.4269C26.6859 82.3621 26.5209 82.2972 26.3585 82.2324C26.3559 82.2324 26.3533 82.2298 26.3507 82.2298C26.2355 82.1832 26.1203 82.1339 26.005 82.082C25.8532 82.0172 25.7039 81.9524 25.552 81.885C25.3687 81.8072 25.1907 81.7242 25.01 81.6412C24.8372 81.5608 24.6696 81.4805 24.4994 81.3949C24.3318 81.3119 24.1642 81.2289 23.994 81.1434C23.6588 80.9722 23.3262 80.7933 22.9989 80.6092C22.8601 80.534 22.7213 80.4562 22.5826 80.3706C21.2654 79.6057 20.0085 78.7422 18.8275 77.7906C18.6992 77.6869 18.5761 77.5858 18.4478 77.482C18.4295 77.4665 18.4138 77.4535 18.3955 77.438C18.2541 77.3187 18.11 77.1994 17.9713 77.0775C17.7513 76.8882 17.534 76.6938 17.3219 76.4967C17.1543 76.3437 16.9867 76.1881 16.8217 76.0274C16.751 75.9599 16.6829 75.8925 16.6122 75.8251C16.2639 75.4854 15.9262 75.1379 15.5936 74.7827C15.4941 74.6764 15.3972 74.5701 15.3003 74.4612C15.2008 74.3523 15.1065 74.2434 15.0097 74.1345C14.6221 73.6936 14.2503 73.245 13.8915 72.7809C13.8051 72.6694 13.7161 72.5553 13.6323 72.4412C13.5433 72.3271 13.4568 72.2078 13.3704 72.0912C13.3338 72.0419 13.2971 71.9926 13.2604 71.9408C13.2212 71.8915 13.1871 71.8422 13.1531 71.7878C13.0457 71.64 12.9384 71.4896 12.8362 71.3392C12.7158 71.1629 12.5953 70.9865 12.4801 70.8102V70.8076C12.3911 70.6728 12.3047 70.5354 12.2156 70.3979C12.1999 70.3798 12.1895 70.3616 12.179 70.3435C12.1711 70.3331 12.1659 70.3227 12.1633 70.3124C12.0742 70.1697 11.9852 70.0271 11.8988 69.8845C11.8019 69.7263 11.7129 69.5708 11.6186 69.4152C11.3646 68.9718 11.1185 68.5258 10.8828 68.0694C10.8383 67.9812 10.7911 67.8931 10.7466 67.8023C10.7073 67.7297 10.6733 67.6545 10.6366 67.5819C10.6183 67.5508 10.6026 67.5171 10.5895 67.486C10.5764 67.46 10.5659 67.4341 10.5528 67.4082C10.5267 67.3563 10.5031 67.3019 10.4769 67.25C10.4376 67.1696 10.401 67.0867 10.3591 67.0037C10.3198 66.9233 10.2831 66.8403 10.2465 66.7573C10.202 66.664 10.1601 66.5706 10.1182 66.4773C10.1129 66.4669 10.1077 66.4591 10.1077 66.454C10.1024 66.4436 10.0972 66.4358 10.0946 66.4254C10.092 66.4177 10.0894 66.4099 10.0841 66.3995C10.0527 66.3295 10.0213 66.2647 9.99247 66.1921C9.9689 66.1376 9.94534 66.0806 9.92439 66.0261C9.90344 65.9691 9.87987 65.912 9.8563 65.8576C9.75418 65.6164 9.65206 65.3727 9.56041 65.1263C9.51327 65.0097 9.46876 64.893 9.42686 64.7737C9.3483 64.5611 9.26974 64.3484 9.19904 64.1332C9.1362 63.9491 9.07597 63.7676 9.01574 63.5835C9.00527 63.5498 8.99479 63.5187 8.98432 63.4876C8.95813 63.4098 8.93457 63.3294 8.91362 63.2516C8.90314 63.2257 8.89529 63.1997 8.89005 63.1712C8.85077 63.0519 8.81411 62.93 8.78007 62.8108C8.74603 62.7045 8.71461 62.5956 8.6858 62.4892C8.67795 62.4633 8.67009 62.4374 8.66485 62.4115C8.55226 62.0121 8.44751 61.605 8.35848 61.1979C8.29825 60.9464 8.24326 60.6923 8.19351 60.4382C8.18827 60.4226 8.18566 60.4045 8.18304 60.3915C8.15161 60.2359 8.12019 60.0777 8.09139 59.9196C7.76145 58.146 7.58862 56.3179 7.58862 54.4509C7.58862 44.4445 12.5246 35.5816 20.1185 30.1207V30.1181C20.3699 29.9392 20.6213 29.7629 20.8779 29.5891C24.3318 27.258 28.3015 25.614 32.5803 24.8621V17.2412C14.1612 19.8213 0 35.4882 0 54.4354C0 56.2349 0.12831 58.0059 0.374456 59.7407C0.411116 59.9792 0.445157 60.2178 0.484436 60.4563C0.523714 60.7001 0.565611 60.9464 0.610127 61.1876C0.657261 61.4313 0.701777 61.675 0.75153 61.9162C0.754149 61.924 0.754149 61.9317 0.756767 61.9395C0.827469 62.2948 0.906026 62.6474 0.98982 63.0001C1.03172 63.1738 1.07361 63.3475 1.11551 63.5213C1.11813 63.529 1.11813 63.5342 1.12075 63.5368C1.16526 63.7157 1.2124 63.8947 1.25953 64.0684C1.35118 64.4107 1.44807 64.7529 1.55019 65.0926C1.55805 65.1186 1.56591 65.1471 1.57376 65.173C1.579 65.1886 1.58424 65.2041 1.58947 65.2197C1.59471 65.2378 1.60257 65.2586 1.6078 65.2767C1.63137 65.3597 1.65756 65.4401 1.68374 65.5205C1.72826 65.6709 1.77539 65.8213 1.82514 65.9665C1.84609 66.0365 1.86442 66.1013 1.89061 66.1687C1.91679 66.2517 1.94822 66.3347 1.97702 66.4177C2.02677 66.5681 2.07653 66.7159 2.13152 66.8662C2.14985 66.9181 2.16818 66.9674 2.18651 67.0218C2.2703 67.2578 2.35671 67.4886 2.44575 67.7219C2.4536 67.7427 2.46146 67.766 2.47193 67.7868C2.57144 68.0487 2.67356 68.308 2.78092 68.5673C2.80187 68.6191 2.82282 68.671 2.84377 68.7228C2.91447 68.8992 2.99041 69.0729 3.06373 69.2492C3.20775 69.5837 3.35963 69.9182 3.51412 70.2475C3.60315 70.4342 3.6948 70.6235 3.78645 70.8102C3.8781 70.9943 3.96975 71.181 4.06141 71.3677C4.06141 71.3703 4.06402 71.3703 4.06402 71.3703C4.15829 71.5544 4.25256 71.7385 4.35207 71.9226C4.38349 71.9848 4.41753 72.0471 4.45157 72.1041C4.51704 72.2286 4.58512 72.3505 4.65058 72.4697C4.75009 72.6513 4.85221 72.8302 4.95434 73.0091C5.00933 73.105 5.06432 73.1984 5.11931 73.2943C5.16906 73.3799 5.21881 73.4629 5.27118 73.5484C5.36022 73.6988 5.44925 73.8466 5.5409 73.9892C5.63255 74.1422 5.72682 74.2926 5.8237 74.4404C5.93107 74.6116 6.04105 74.7827 6.15364 74.9512C6.20863 75.0342 6.26362 75.1198 6.31861 75.2028C6.36051 75.265 6.40241 75.3246 6.44431 75.3869C6.57785 75.584 6.71664 75.781 6.85542 75.9755C6.91827 76.0662 6.98373 76.157 7.04658 76.2452C7.14346 76.38 7.24035 76.5148 7.33986 76.6471C7.35295 76.66 7.36081 76.6756 7.3739 76.6912C7.43936 76.7819 7.50483 76.8727 7.57553 76.9608C8.03378 77.5702 8.51298 78.1614 9.00527 78.7396C9.09692 78.8434 9.18595 78.9471 9.2776 79.0482C9.82488 79.6731 10.3931 80.2799 10.9823 80.8685C11.1237 81.0111 11.2651 81.1485 11.4117 81.2886C11.417 81.2963 11.4222 81.2989 11.4301 81.3041C11.5715 81.4416 11.7155 81.579 11.8621 81.7138C12.0192 81.8616 12.1764 82.0068 12.3361 82.152C12.4827 82.2843 12.632 82.4165 12.7812 82.5462C13.0326 82.7692 13.2893 82.987 13.5459 83.1996C13.7108 83.337 13.8784 83.4745 14.0486 83.6119C14.2162 83.7467 14.3864 83.8816 14.5566 84.0138C14.8866 84.2679 15.2165 84.5169 15.5517 84.7606C15.625 84.8125 15.6957 84.8643 15.769 84.9162C16.0361 85.1055 16.3032 85.2922 16.5729 85.4737C16.6882 85.5515 16.8034 85.6293 16.9186 85.7045C18.1912 86.5446 19.5188 87.3121 20.891 87.9967C21.1135 88.1056 21.3387 88.2145 21.5639 88.3208C21.5901 88.3364 21.6189 88.3467 21.6477 88.3623C21.8441 88.4557 22.0431 88.5438 22.2421 88.6346C22.4621 88.7357 22.6873 88.8316 22.9099 88.9276C23.0015 88.9691 23.0932 89.0054 23.1848 89.0443C23.3315 89.1065 23.4781 89.1661 23.6248 89.2258C23.7871 89.2932 23.9521 89.3554 24.117 89.4177C24.481 89.5603 24.845 89.6951 25.2116 89.8248C25.3582 89.8766 25.5049 89.9285 25.6541 89.9803C25.8898 90.0581 26.1255 90.1385 26.3612 90.2111C26.4816 90.25 26.6021 90.2863 26.7251 90.3226C27.1232 90.4471 27.5238 90.5612 27.9271 90.6701C28.0868 90.7142 28.2518 90.7582 28.4141 90.7971C28.5503 90.8334 28.6891 90.8697 28.8305 90.9009C29.0216 90.9475 29.2154 90.9942 29.4118 91.0357C29.603 91.0798 29.7967 91.1239 29.9905 91.1602C30.3047 91.2302 30.619 91.2924 30.9358 91.3494C31.182 91.3935 31.4307 91.4376 31.6769 91.4791C32.0749 91.5465 32.4755 91.6062 32.8788 91.658C33.0254 91.6762 33.1721 91.6969 33.3213 91.7125C33.4863 91.7332 33.646 91.7514 33.8084 91.7669C33.9315 91.7825 34.0519 91.7929 34.175 91.8058C34.3923 91.8266 34.6097 91.8447 34.827 91.8655C35.0705 91.8836 35.3114 91.9018 35.555 91.9147C35.61 91.9199 35.6676 91.9225 35.7252 91.9251C35.8404 91.9329 35.9556 91.9381 36.0734 91.9432C36.3327 91.9588 36.5945 91.9666 36.8564 91.9744C36.9899 91.977 37.1235 91.9796 37.2544 91.9821C37.4796 91.9873 37.7074 91.9899 37.9352 91.9899C38.1238 91.9899 38.3123 91.9873 38.4982 91.9847C38.5951 91.9847 38.6894 91.9821 38.7863 91.9796C38.9565 91.977 39.1241 91.9718 39.2917 91.964C39.4828 91.9562 39.6766 91.9484 39.8651 91.9407C39.9463 91.9355 40.0275 91.9303 40.106 91.9251C40.2291 91.9199 40.3522 91.9147 40.4726 91.9044C40.5879 91.8966 40.7031 91.8862 40.8183 91.881C41.1351 91.8577 41.452 91.8317 41.7662 91.798C41.9443 91.7825 42.1223 91.7617 42.2978 91.741C42.5596 91.7125 42.8215 91.6814 43.0807 91.6451C43.1645 91.6321 43.2457 91.6217 43.3321 91.6087C43.5076 91.5854 43.6856 91.5595 43.8585 91.531C44.0051 91.5102 44.1491 91.4869 44.2958 91.461C44.4503 91.4376 44.6021 91.4117 44.754 91.3832C44.9975 91.3391 45.2463 91.2924 45.4898 91.2431C45.8355 91.1731 46.1759 91.1005 46.5163 91.0227C46.5608 91.0124 46.6106 91.002 46.6551 90.9916C46.697 90.9787 46.7415 90.9709 46.786 90.9579C46.8646 90.9423 46.9405 90.9216 47.0191 90.9035C47.1657 90.8671 47.315 90.8308 47.459 90.7945C47.5271 90.779 47.5952 90.7582 47.6632 90.7427C48.0089 90.6519 48.3545 90.556 48.6976 90.4549C48.7238 90.4471 48.7526 90.4393 48.7788 90.4315C48.7945 90.4263 48.8102 90.4212 48.8259 90.416C49.148 90.32 49.4674 90.2215 49.7869 90.1178H49.7895C49.8157 90.11 49.8419 90.1022 49.8681 90.0944C49.9047 90.0841 49.9388 90.0711 49.9728 90.0581C50.0749 90.027 50.1718 89.9907 50.274 89.9596C50.3735 89.9233 50.4756 89.8896 50.5751 89.8533H50.5777C50.7034 89.8118 50.8265 89.7677 50.9522 89.721C51.1486 89.651 51.345 89.5784 51.5414 89.5058C51.5649 89.4954 51.5859 89.4903 51.6121 89.4773C51.6958 89.4462 51.7796 89.4125 51.8634 89.3788C51.9917 89.3321 52.1174 89.2802 52.2431 89.2284C52.285 89.2128 52.3243 89.1947 52.3662 89.1765C52.5443 89.1039 52.7197 89.0313 52.8978 88.9587C52.9056 88.9535 52.9135 88.9509 52.9187 88.9483C52.9632 88.9302 53.0078 88.9094 53.0523 88.8887C53.2146 88.8213 53.377 88.7513 53.5393 88.6761C53.6048 88.6475 53.6676 88.619 53.7305 88.5879C53.7881 88.5646 53.8457 88.5386 53.9007 88.5127C53.9007 88.5127 53.9033 88.5127 53.9033 88.5101C53.9321 88.4971 53.9635 88.4816 53.9923 88.4686C54.0945 88.4219 54.1992 88.3701 54.3013 88.3234C54.3589 88.2975 54.4165 88.269 54.4715 88.2404C54.6575 88.1497 54.846 88.0589 55.0319 87.9682C55.0345 87.9682 55.0345 87.9656 55.0345 87.9656C55.2204 87.8722 55.4064 87.7789 55.5923 87.6803C55.7808 87.5844 55.9615 87.4859 56.1474 87.3847C56.3307 87.2836 56.5114 87.1851 56.6921 87.0814C56.8728 86.9802 57.0534 86.8765 57.2315 86.7728C57.3677 86.6924 57.5038 86.6094 57.6426 86.529C57.983 86.3216 58.3208 86.1116 58.656 85.8938C58.711 85.86 58.7686 85.8237 58.8236 85.7874C58.8655 85.7589 58.9074 85.7304 58.9519 85.7019C58.999 85.6708 59.0488 85.6396 59.0959 85.6059C59.1169 85.593 59.1404 85.5774 59.1614 85.5619C59.3185 85.4581 59.4809 85.3466 59.638 85.2377C59.6563 85.2248 59.6746 85.2118 59.693 85.1988C59.7846 85.1366 59.8763 85.0718 59.9653 85.0095C60.1486 84.8799 60.3293 84.7502 60.51 84.618C60.5623 84.5817 60.6147 84.5428 60.6697 84.5039C60.7142 84.4702 60.7613 84.4365 60.8032 84.4028C60.8818 84.3431 60.9604 84.2861 61.0363 84.2239C61.1463 84.1409 61.2563 84.0579 61.3662 83.9723C61.4657 83.8945 61.5679 83.8168 61.67 83.7338C61.7852 83.6404 61.9004 83.5497 62.0156 83.4563C62.0706 83.4122 62.1256 83.3656 62.1806 83.3215C62.2932 83.2281 62.4058 83.1348 62.5184 83.0388C62.6101 82.9611 62.7043 82.8807 62.7934 82.8029C62.8536 82.7562 62.9112 82.7018 62.9688 82.6525C63.0735 82.5643 63.173 82.4736 63.2752 82.3802C63.4244 82.248 63.5737 82.1131 63.7203 81.9783C63.8905 81.8227 64.0581 81.6646 64.2257 81.5038C64.3043 81.4286 64.3854 81.3534 64.464 81.2782C64.519 81.2237 64.574 81.1719 64.629 81.1174C64.773 80.9774 64.9144 80.8348 65.0558 80.6896C65.0637 80.6844 65.0663 80.6792 65.0715 80.674C65.2103 80.534 65.3491 80.3914 65.4852 80.2462C65.6345 80.0906 65.7811 79.935 65.9278 79.7768C65.9383 79.7665 65.9461 79.7561 65.9566 79.7457C66.0797 79.6135 66.2001 79.4735 66.3258 79.3386V79.336C66.3939 79.2634 66.4567 79.1882 66.5222 79.1156C66.5562 79.0793 66.5903 79.0404 66.6217 79.0041C66.661 78.96 66.6976 78.916 66.7369 78.8719C66.7422 78.8641 66.7448 78.8589 66.7526 78.8511C66.8312 78.7604 66.9124 78.667 66.9857 78.5763C67.1271 78.4129 67.2633 78.247 67.402 78.0784C67.5382 77.9125 67.6744 77.7439 67.8079 77.5754C67.8524 77.5209 67.8943 77.4691 67.9362 77.412C67.9546 77.3887 67.9755 77.3628 67.9965 77.3394C68.0829 77.2279 68.1719 77.1138 68.2583 76.9971C68.3788 76.8364 68.4992 76.6808 68.6144 76.52C68.6537 76.4708 68.6904 76.4189 68.727 76.3696C68.7375 76.3541 68.7454 76.3411 68.7558 76.3281C68.8135 76.2503 68.8684 76.17 68.926 76.0896C68.9548 76.0507 68.9837 76.0092 69.0098 75.9677C69.0596 75.8977 69.1094 75.8329 69.1565 75.7629C69.1931 75.711 69.2272 75.6617 69.2612 75.6073C69.3895 75.4232 69.5152 75.2391 69.6409 75.0524C69.7011 74.959 69.7614 74.8683 69.8242 74.7723C69.8871 74.679 69.9447 74.5882 70.0049 74.4923C70.0546 74.4145 70.1044 74.3367 70.1542 74.2589C70.2301 74.137 70.306 74.0178 70.382 73.8959C70.3977 73.8674 70.416 73.8363 70.4343 73.8077C70.5417 73.6262 70.6517 73.4473 70.759 73.2658C70.7643 73.2554 70.7695 73.2502 70.7721 73.2399C70.7826 73.2191 70.7957 73.1984 70.8114 73.175C70.8586 73.0895 70.9083 73.0039 70.9581 72.9183C71.0078 72.8328 71.0602 72.7472 71.1073 72.6616C71.1204 72.6383 71.1335 72.615 71.1492 72.589C71.2068 72.4853 71.2644 72.3816 71.3194 72.2779C71.4844 71.9823 71.6415 71.6867 71.7934 71.3833C71.8143 71.3392 71.8379 71.2951 71.8615 71.251C71.9636 71.0462 72.0657 70.8413 72.1626 70.6391V70.6365C72.1783 70.6106 72.1888 70.582 72.2045 70.5535C72.2071 70.5483 72.2097 70.5405 72.2123 70.5379C72.2883 70.3824 72.3642 70.2268 72.4349 70.0686C72.469 69.996 72.503 69.9208 72.5344 69.8482C72.6182 69.6615 72.702 69.4748 72.7832 69.2881C72.8199 69.2025 72.8565 69.1196 72.8906 69.034C72.9534 68.8888 73.0136 68.7436 73.0739 68.5984C73.1184 68.4921 73.1629 68.3857 73.2048 68.2742C73.2493 68.1653 73.2938 68.059 73.3357 67.9501C73.341 67.9346 73.3488 67.919 73.3514 67.9035C73.4221 67.7193 73.4928 67.5378 73.5609 67.3511C73.5923 67.2604 73.6264 67.1696 73.6604 67.0789C73.6683 67.0633 73.6709 67.0426 73.6788 67.0244C73.7364 66.8662 73.794 66.7055 73.849 66.5447C73.8542 66.5292 73.8621 66.5136 73.8647 66.498C73.9039 66.3891 73.9406 66.2802 73.9773 66.1713C74.0192 66.0494 74.0558 65.9302 74.0925 65.8109C74.1711 65.5646 74.2496 65.313 74.3229 65.0641C74.3596 64.9448 74.3962 64.8255 74.4277 64.7037C74.4643 64.5818 74.4984 64.4599 74.5298 64.3407C74.5743 64.1825 74.6188 64.0191 74.6607 63.8584C74.6869 63.7598 74.7105 63.6639 74.7367 63.5628C74.7943 63.3346 74.8493 63.1038 74.9016 62.8704C74.9331 62.7382 74.9645 62.6033 74.9907 62.4685C75.0168 62.3544 75.0404 62.2403 75.064 62.1262C75.0823 62.0381 75.1033 61.9499 75.119 61.8617C75.1556 61.701 75.1844 61.535 75.2185 61.3717C75.2185 61.3665 75.2211 61.3639 75.2211 61.3587C75.2211 61.3561 75.2211 61.3561 75.2211 61.3535C75.2813 61.0553 75.3337 60.7545 75.3808 60.4537C75.3992 60.3319 75.4201 60.21 75.4358 60.0881C75.462 59.9066 75.4908 59.7277 75.5144 59.5436C75.5379 59.3621 75.5615 59.1806 75.5825 58.9965C75.6034 58.8357 75.6217 58.6749 75.6375 58.5142C75.6532 58.3923 75.6636 58.273 75.6767 58.1511C75.6872 58.063 75.6951 57.9748 75.7029 57.8867C75.7108 57.7985 75.7186 57.7103 75.7265 57.6222C75.7291 57.5807 75.7317 57.5444 75.737 57.5055C75.7396 57.4873 75.7396 57.4666 75.7422 57.4484C75.7605 57.228 75.7736 57.005 75.7867 56.7846C75.7946 56.6679 75.7998 56.5512 75.8077 56.4346C75.8077 56.4009 75.8103 56.3697 75.8129 56.3386C75.8181 56.2245 75.8234 56.113 75.826 56.0015C75.8338 55.8511 75.8391 55.7033 75.8417 55.5529C75.8574 55.1795 75.86 54.8036 75.86 54.4276C75.8705 53.9531 75.8626 53.4759 75.8443 52.9988ZM11.3358 75.7162C11.2703 75.6721 11.2075 75.6228 11.1473 75.5762C11.2101 75.6228 11.2703 75.6695 11.3358 75.7162C11.4222 75.781 11.5086 75.8458 11.595 75.9081C11.5086 75.8484 11.4222 75.781 11.3358 75.7162ZM28.8698 83.5652C28.7991 83.5523 28.7336 83.5367 28.6655 83.5237C28.8698 83.5652 29.0766 83.6067 29.2835 83.6482C29.1473 83.6197 29.0085 83.5912 28.8698 83.5652ZM29.9486 83.7727C30.3885 83.8531 30.8337 83.9257 31.2788 83.9905C30.8337 83.9283 30.3885 83.8557 29.9486 83.7727ZM38.8439 84.4754C38.857 84.4754 38.8648 84.4728 38.8779 84.4728C38.9801 84.4702 39.0874 84.4676 39.1895 84.465C39.0743 84.4676 38.9591 84.4728 38.8439 84.4754Z" fill="#132C4E"/>
<path fill-rule="evenodd" clip-rule="evenodd" d="M19.6709 42.2792L30.5825 41.9992L30.593 41.9784H31.3104H31.3393H42.0937L36.3879 32.7266C29.4486 33.2089 23.3814 36.8806 19.6709 42.2792Z" fill="#132C4E"/>
<path fill-rule="evenodd" clip-rule="evenodd" d="M28.9952 44.7295L18.0732 45.0095C16.6434 47.9137 15.8369 51.1757 15.8369 54.6192C15.8369 58.0394 16.6303 61.2807 18.0418 64.1693L23.2553 54.6374L23.2449 54.6192L28.9952 44.7295Z" fill="#132C4E"/>
<path fill-rule="evenodd" clip-rule="evenodd" d="M30.5926 67.2605L24.8422 57.3682L19.626 66.9001C23.3182 72.3143 29.3802 76.0041 36.3194 76.5072L30.6187 67.2605H30.5926Z" fill="#132C4E"/>
<path fill-rule="evenodd" clip-rule="evenodd" d="M45.2934 67.2598H33.79L39.4959 76.5116C46.4377 76.0293 52.505 72.3576 56.2155 66.959L45.3065 67.239L45.2934 67.2598Z" fill="#132C4E"/>
<path fill-rule="evenodd" clip-rule="evenodd" d="M52.6439 54.6191L46.8936 64.5088L57.8156 64.2288C59.2454 61.322 60.0519 58.0626 60.0519 54.6165C60.0519 51.1963 59.2585 47.955 57.847 45.0664L52.6335 54.5957L52.6439 54.6191Z" fill="#132C4E"/>
<path fill-rule="evenodd" clip-rule="evenodd" d="M51.0465 51.8708L56.2601 42.3415C52.5679 36.9299 46.5059 33.24 39.5693 32.7344L45.2726 41.981H45.2962L51.0465 51.8708Z" fill="#132C4E"/>
</g>
<defs>
<clipPath id="clip0_255_23797">
<rect width="80" height="92" fill="white"/>
</clipPath>
</defs>
</svg>
