<svg width="32" height="32" viewBox="0 0 32 32" fill="none" xmlns="http://www.w3.org/2000/svg">
<path d="M21.1256 2.66797C21.187 2.66797 21.2483 2.66797 21.3131 2.66797C21.4635 4.49962 20.7542 5.86822 19.8921 6.85932C19.0462 7.84358 17.8878 8.79818 16.0143 8.65334C15.8893 6.84792 16.5999 5.58082 17.4608 4.592C18.2593 3.67047 19.7231 2.85045 21.1256 2.66797Z" fill="black"/>
<path d="M26.6668 21.6582C26.6668 21.6767 26.6668 21.6929 26.6668 21.7102C26.144 23.305 25.3983 24.6718 24.4882 25.9402C23.6575 27.0917 22.6394 28.6413 20.8216 28.6413C19.2508 28.6413 18.2075 27.6241 16.5977 27.5963C14.8948 27.5685 13.9583 28.4469 12.4013 28.668C12.2232 28.668 12.0451 28.668 11.8705 28.668C10.7272 28.5013 9.80446 27.5894 9.13227 26.7677C7.15015 24.3396 5.61846 21.2033 5.3335 17.1898C5.3335 16.7963 5.3335 16.404 5.3335 16.0105C5.45415 13.1381 6.83991 10.8026 8.68184 9.67078C9.65394 9.06898 10.9903 8.55629 12.4783 8.78544C13.116 8.88497 13.7676 9.10485 14.3386 9.32243C14.8798 9.5319 15.5566 9.9034 16.1978 9.88372C16.6321 9.87099 17.0642 9.643 17.502 9.48214C18.7843 9.01574 20.0414 8.48107 21.6983 8.7322C23.6896 9.03542 25.103 9.92654 25.9762 11.3014C24.2917 12.3812 22.96 14.0084 23.1875 16.7871C23.3897 19.3111 24.8467 20.7879 26.6668 21.6582Z" fill="black"/>
</svg>
