<svg width="78" height="110" viewBox="0 0 78 110" fill="none" xmlns="http://www.w3.org/2000/svg">
<g clip-path="url(#clip0_203_25270)">
<path d="M25.1275 21.9834H50.1707L37.4538 0.0107422C22.6475 0.584536 9.95175 9.39148 3.85718 21.9834H25.1275Z" fill="#132C4E"/>
<path d="M52.8725 21.9832L65.3941 43.6241L75.7205 25.7734C70.4544 11.0758 56.582 0.479039 40.1504 0L52.8725 21.9832Z" fill="#132C4E"/>
<path d="M54.2285 67.5969H67.0245C68.5969 65.3807 70.4913 62.4433 72.7972 58.3004C76.0054 52.5309 78 45.9507 78 38.8756C78 35.3908 77.5356 32.0164 76.6755 28.8105L66.7501 45.9612L54.2285 67.5969Z" fill="#132C4E"/>
<path d="M25.1224 69.9345L12.6008 48.2988L5.99438 59.7115C14.9173 75.3251 17.3551 72.3245 18.8748 81.421C19.2283 83.5319 19.6188 85.1954 20.1201 86.5167C19.3866 86.901 18.9012 87.5748 18.9012 88.3433V89.7857C18.9012 90.9807 20.0779 91.9493 21.5184 91.9493H37.8708L25.1224 69.9345Z" fill="#132C4E"/>
<path d="M65.2886 69.9346H52.8725H27.8293L40.5673 91.9493H56.4818C57.9276 91.9493 59.1043 90.9807 59.1043 89.7857V88.3434C59.1043 87.5695 58.6135 86.901 57.8801 86.5114C58.3814 85.1901 58.7718 83.5266 59.1254 81.421C60.1596 75.2145 61.6265 74.6355 65.2886 69.9346Z" fill="#132C4E"/>
<path d="M11.2499 45.9613L23.7715 24.3203H2.83358C1.01312 28.8212 0 33.7274 0 38.8757C0 45.5507 1.77824 51.7835 4.66987 57.3214L11.2499 45.9613Z" fill="#132C4E"/>
<path d="M54.6876 94.4814H23.3124C22.0143 94.4814 20.959 95.4501 20.959 96.6503V98.0874C20.959 99.2824 22.0143 100.251 23.3124 100.251H54.6928C55.9909 100.251 57.0463 99.2824 57.0463 98.0874V96.6503C57.041 95.4553 55.9856 94.4814 54.6876 94.4814Z" fill="#132C4E"/>
<path d="M39.2058 110C45.3268 110 52.3184 107.121 52.3184 102.783H26.0933C26.0933 107.121 33.0849 110 39.2058 110Z" fill="#132C4E"/>
<path d="M44.4771 53.489C44.4771 51.8361 45.8174 50.499 47.4796 50.499C48.5771 50.499 49.5322 51.0938 50.0493 51.973C51.0255 50.1884 51.5901 48.1406 51.5901 45.9613C51.5901 44.4715 51.3157 43.0449 50.8355 41.7131C50.424 43.6924 48.6668 45.1769 46.5614 45.1769C44.15 45.1769 42.1923 43.2292 42.1923 40.8235C42.1923 38.4177 44.15 36.47 46.5614 36.47C46.8094 36.47 47.0574 36.4963 47.3002 36.5384C45.084 34.596 42.1818 33.4062 38.9999 33.4062C32.0505 33.4062 26.415 39.0284 26.415 45.9613C26.415 52.8942 32.0505 58.5163 38.9999 58.5163C41.7016 58.5163 44.1975 57.6583 46.2448 56.2159C45.2053 55.7474 44.4771 54.7051 44.4771 53.489Z" fill="#132C4E"/>
</g>
<defs>
<clipPath id="clip0_203_25270">
<rect width="78" height="110" fill="white"/>
</clipPath>
</defs>
</svg>
