<svg width="99" height="99" viewBox="0 0 99 99" fill="none" xmlns="http://www.w3.org/2000/svg">
<path fill-rule="evenodd" clip-rule="evenodd" d="M49.5001 98.5418C76.838 98.5418 99.0002 76.4822 99.0002 49.2709C99.0002 22.0593 76.838 0 49.5001 0C22.1619 0 0 22.0593 0 49.2709C0 76.4822 22.1619 98.5418 49.5001 98.5418ZM72.0751 36.9447C73.4368 35.4193 73.2992 33.0836 71.7667 31.7277C70.2342 30.3718 67.8874 30.5092 66.5251 32.0346L43.8249 57.4543C43.3329 58.0057 42.4676 58.0057 41.9751 57.4543L32.4748 46.8157C31.1126 45.2903 28.766 45.1533 27.2336 46.5088C25.7011 47.8647 25.5631 50.2006 26.9253 51.7261L36.4256 62.3642C39.8713 66.2231 45.9286 66.2231 49.3743 62.3642L72.0751 36.9447Z" fill="#132C4E"/>
</svg>
