<svg width="90" height="90" viewBox="0 0 90 90" fill="none" xmlns="http://www.w3.org/2000/svg">
<path d="M67.5734 67.832C66.2482 67.832 64.9956 68.1462 63.8836 68.7015L58.1347 62.9526C57.64 62.4578 56.9688 62.1797 56.2691 62.1797H47.603V67.4567H55.1762L60.1524 72.4327C57.3785 77.7989 61.5056 84.4941 67.5738 84.4132C78.5566 83.997 78.5546 68.2473 67.5734 67.832Z" fill="#132C4E"/>
<path d="M81.704 48.049C78.055 48.049 74.9512 50.4198 73.8464 53.7012H68.6663L63.7871 48.8217C63.2924 48.3269 62.6212 48.0488 61.9215 48.0488H47.6033V53.3258H60.8288L65.7081 58.2053C66.2027 58.7001 66.8739 58.9782 67.5737 58.9782H73.8466C76.9444 67.7538 89.8102 65.7568 89.995 56.3395C89.9949 51.7682 86.2755 48.049 81.704 48.049Z" fill="#132C4E"/>
<path d="M58.1347 27.1189L63.8836 21.37C69.2492 24.1441 75.9454 20.0166 75.8643 13.9486C75.8643 9.37716 72.145 5.65795 67.5736 5.65795C61.5061 5.57738 57.3778 12.2728 60.1524 17.6386L55.1762 22.6147H47.603V27.8916H56.2691C56.9688 27.8916 57.6399 27.6137 58.1347 27.1189Z" fill="#132C4E"/>
<path d="M63.787 41.2487L68.6663 36.3692H73.8463C76.9429 45.1436 89.8099 43.1489 89.9948 33.7306C89.809 24.311 76.9411 22.3191 73.8463 31.0922H67.5734C66.8735 31.0922 66.2025 31.3703 65.7078 31.8651L60.8286 36.7446H47.603V42.0216H61.9212C62.6213 42.0216 63.2924 41.7435 63.787 41.2487Z" fill="#132C4E"/>
<path d="M32.253 0.00545491C23.1648 -0.309933 18.3068 13.1532 25.8972 13.7961C27.3544 13.796 28.5357 14.9773 28.5357 16.4345C28.5357 17.8916 27.3544 19.073 25.8972 19.073C21.8556 19.073 18.4287 16.393 17.2986 12.7172H16.3637C10.8093 12.7172 6.29043 17.2359 6.29043 22.7904C6.29043 26.5925 9.38362 29.6857 13.1857 29.6857C16.6801 29.8134 16.6822 34.8339 13.1857 34.9627H10.0075C-3.34095 35.4706 -3.33074 54.6059 10.0075 55.1089H13.1855C16.6822 55.2393 16.6805 60.2566 13.1855 60.3859C9.38344 60.3859 6.29025 63.4791 6.29025 67.2812C6.29025 72.8356 10.8091 77.3544 16.3635 77.3544H17.2984C18.4287 73.6785 21.8554 70.9986 25.8971 70.9986C27.3542 70.9986 28.5356 72.18 28.5356 73.6371C28.5356 75.0943 27.3542 76.2756 25.8971 76.2756C23.8473 76.2756 22.1798 77.9432 22.1798 79.9929C22.6846 93.3361 41.8218 93.3358 42.3261 79.9929V60.9254C42.0576 53.8931 31.9788 53.8996 31.7135 60.9254C31.7135 62.3826 30.5322 63.5639 29.075 63.5639C27.6179 63.5639 26.4365 62.3826 26.4365 60.9254C26.3231 52.885 35.4811 47.6454 42.3261 51.7744V38.2974C35.479 42.4259 26.3236 37.1867 26.4367 29.1462C26.4365 27.6892 27.6179 26.5079 29.075 26.5079C30.5322 26.5079 31.7135 27.6892 31.7135 29.1464C31.9804 36.1772 42.0612 36.173 42.3261 29.1464V10.0789C42.3262 4.52414 37.8074 0.00545491 32.253 0.00545491Z" fill="#132C4E"/>
</svg>
