<svg width="100" height="100" viewBox="0 0 100 100" fill="none" xmlns="http://www.w3.org/2000/svg">
<circle cx="50" cy="50" r="50" fill="#132C4E"/>
<g clip-path="url(#clip0_201_22469)">
<path d="M71.678 44.1233C71.6852 44.2528 71.6757 44.3846 71.6431 44.5155L68.7404 56.1262C68.5941 56.7112 68.0698 57.1225 67.4671 57.1256L50.051 57.2136C50.0487 57.2136 50.0466 57.2136 50.0443 57.2136H32.6279C32.0221 57.2136 31.4941 56.8009 31.3478 56.213L28.4451 44.5582C28.4116 44.4238 28.402 44.2883 28.4104 44.1555C27.2875 43.8017 26.4707 42.751 26.4707 41.5127C26.4707 39.9848 27.7136 38.7419 29.2415 38.7419C30.7693 38.7419 32.0122 39.9848 32.0122 41.5127C32.0122 42.3731 31.618 43.1429 31.0007 43.6515L34.6348 47.3131C35.5533 48.2386 36.8279 48.7692 38.1318 48.7692C39.6736 48.7692 41.1436 48.037 42.0693 46.8103L48.0418 38.8967C47.54 38.3953 47.2294 37.7026 47.2294 36.9387C47.2294 35.4108 48.4722 34.168 50.0001 34.168C51.528 34.168 52.7709 35.4108 52.7709 36.9387C52.7709 37.6797 52.4767 38.3522 52.0012 38.8499C52.0028 38.852 52.0047 38.8538 52.0063 38.8561L57.9356 46.7915C58.8609 48.03 60.3362 48.7694 61.8823 48.7694C63.1982 48.7694 64.4356 48.2569 65.3661 47.3263L69.0231 43.6693C68.3928 43.1609 67.988 42.3836 67.988 41.5127C67.988 39.9848 69.2309 38.7419 70.7588 38.7419C72.2866 38.7419 73.5295 39.9848 73.5295 41.5127C73.5295 42.7179 72.7546 43.743 71.678 44.1233ZM68.4572 61.3477C68.4572 60.6191 67.8665 60.0283 67.1378 60.0283H33.0092C32.2805 60.0283 31.6897 60.6191 31.6897 61.3477V64.5143C31.6897 65.243 32.2805 65.8337 33.0092 65.8337H67.1378C67.8665 65.8337 68.4572 65.243 68.4572 64.5143V61.3477Z" fill="white"/>
</g>
<defs>
<clipPath id="clip0_201_22469">
<rect width="47.0588" height="47.0588" fill="white" transform="translate(26.4707 26.4688)"/>
</clipPath>
</defs>
</svg>
