<svg width="24" height="24" viewBox="0 0 24 24" fill="none" xmlns="http://www.w3.org/2000/svg">
<path d="M6.11628 7.90698C6.11608 8.46357 6.28094 9.00772 6.59002 9.4706C6.8991 9.93349 7.33851 10.2943 7.85267 10.5075C8.36684 10.7206 8.93266 10.7765 9.47858 10.668C10.0245 10.5595 10.526 10.2916 10.9196 9.89813C11.3133 9.50463 11.5814 9.00323 11.69 8.45735C11.7987 7.91147 11.743 7.34563 11.5301 6.83138C11.3171 6.31714 10.9565 5.8776 10.4937 5.56835C10.0309 5.25911 9.48682 5.09405 8.93023 5.09405C8.18435 5.09486 7.46924 5.39145 6.94173 5.91877C6.41421 6.44609 6.11736 7.1611 6.11628 7.90698ZM10.2093 7.90698C10.2095 8.16 10.1347 8.40739 9.99424 8.61787C9.85382 8.82834 9.65412 8.99245 9.42042 9.08941C9.18672 9.18638 8.92951 9.21185 8.68133 9.16262C8.43314 9.11338 8.20514 8.99164 8.02616 8.8128C7.84717 8.63396 7.72525 8.40605 7.67582 8.15791C7.62638 7.90977 7.65165 7.65254 7.74843 7.41876C7.84521 7.18498 8.00915 6.98516 8.21951 6.84456C8.42988 6.70397 8.67721 6.62893 8.93023 6.62893C9.26912 6.62947 9.59399 6.76426 9.83371 7.0038C10.0734 7.24333 10.2085 7.56809 10.2093 7.90698ZM22.2326 9.18707C22.029 9.18707 21.8338 9.26793 21.6899 9.41185C21.546 9.55577 21.4651 9.75097 21.4651 9.95451V12.2742L21.065 11.9304C20.5184 11.4775 19.8307 11.2296 19.1208 11.2296C18.4109 11.2296 17.7233 11.4775 17.1767 11.9304L12.9209 15.5814C12.6525 15.7946 12.3198 15.9107 11.977 15.9107C11.6342 15.9107 11.3014 15.7946 11.033 15.5814L10.6933 15.2887C10.1892 14.8715 9.56439 14.6272 8.91096 14.5919C8.25754 14.5565 7.61003 14.7319 7.06381 15.0923L2.83981 17.9349C2.61798 16.9965 2.51552 16.0338 2.53488 15.0698V8.93023C2.53488 4.20791 4.20893 2.53488 8.93023 2.53488H13.0233C13.2268 2.53488 13.422 2.45403 13.5659 2.31011C13.7098 2.16618 13.7907 1.97098 13.7907 1.76744C13.7907 1.5639 13.7098 1.3687 13.5659 1.22478C13.422 1.08086 13.2268 1 13.0233 1H8.93023C3.37191 1.00102 1 3.37191 1 8.93023V15.0698C1 20.6281 3.37191 23 8.93023 23H15.0698C20.6281 23 23 20.6281 23 15.0698V9.95349C22.9997 9.75013 22.9188 9.55519 22.7749 9.41149C22.631 9.26778 22.4359 9.18707 22.2326 9.18707ZM21.4651 15.0698C21.4651 19.7911 19.7911 21.4651 15.0698 21.4651H8.93023C6.10912 21.4651 4.38288 20.8604 3.44456 19.3726L7.91823 16.3693C8.18661 16.1978 8.50168 16.1141 8.81978 16.1297C9.13788 16.1452 9.44326 16.2594 9.69358 16.4563L10.0333 16.7479C10.5795 17.2018 11.2673 17.4502 11.9775 17.4502C12.6877 17.4502 13.3755 17.2018 13.9217 16.7479L18.1805 13.0949C18.4487 12.8817 18.7813 12.7657 19.1239 12.7657C19.4665 12.7657 19.7991 12.8817 20.0674 13.0949L21.4672 14.2962L21.4651 15.0698ZM15.7502 9.69767C15.8297 9.69795 15.9091 9.69214 15.9876 9.68028L17.41 9.47563C17.8046 9.40603 18.1702 9.22249 18.4619 8.94763L22.1763 5.23321C22.6203 4.84078 22.9105 4.30331 22.9949 3.71674C23.0121 3.35919 22.9473 3.00243 22.8054 2.67379C22.6635 2.34514 22.4483 2.05331 22.1763 1.82065C21.9713 1.56519 21.7115 1.35902 21.4162 1.21735C21.1209 1.07569 20.7975 1.00214 20.47 1.00214C20.1425 1.00214 19.8191 1.07569 19.5238 1.21735C19.2285 1.35902 18.9687 1.56519 18.7637 1.82065L15.0503 5.53712C14.7744 5.8296 14.5908 6.19689 14.5223 6.59312L14.3177 8.01237C14.2796 8.24042 14.2956 8.47423 14.3643 8.69497C14.4331 8.91571 14.5528 9.11722 14.7137 9.28326C14.8502 9.41786 15.0122 9.52392 15.1902 9.59525C15.3681 9.66658 15.5585 9.70174 15.7502 9.6987V9.69767ZM19.8494 2.90837C20.315 2.44381 20.5657 2.37628 21.0906 2.90837C21.2717 3.09051 21.4846 3.35144 21.4631 3.56735C21.4032 3.79606 21.2729 4.00012 21.0906 4.1506L20.9207 4.32047C20.3734 4.06458 19.9326 3.62557 19.6744 3.07926L19.8494 2.90837ZM16.0408 6.81414C16.0609 6.74571 16.0928 6.68131 16.135 6.62381L18.5488 4.21405C18.8702 4.71145 19.2937 5.13487 19.7911 5.45628L17.3864 7.86195C17.3289 7.9049 17.2646 7.93777 17.1961 7.95916L15.8556 8.14847L16.0408 6.81414Z" fill="black"/>
</svg>
