<svg width="25" height="24" viewBox="0 0 25 24" fill="none" xmlns="http://www.w3.org/2000/svg">
<rect x="2.75" y="2" width="20" height="20" rx="10" stroke="#696969" stroke-width="1.4"/>
<path d="M14.3087 9.77165L12.3177 8.81659C11.0709 8.2185 10.4475 7.91945 10.0181 8.1208C9.88388 8.18373 9.76534 8.2757 9.67104 8.39007C9.36934 8.75601 9.50415 9.43416 9.77377 10.7905L9.77377 10.7905L10.2043 12.9563C10.2807 13.3405 10.3189 13.5326 10.4197 13.6909C10.4529 13.7431 10.4909 13.792 10.5332 13.8372C10.6614 13.9741 10.838 14.0589 11.1913 14.2283L13.1822 15.1833C14.4291 15.7814 15.0525 16.0805 15.4819 15.8791C15.6161 15.8162 15.7346 15.7242 15.8289 15.6099C16.1306 15.2439 15.9958 14.5658 15.7262 13.2095L15.2957 11.0436C15.2193 10.6594 15.1811 10.4673 15.0803 10.3091C15.0471 10.2569 15.0091 10.2079 14.9668 10.1627C14.8385 10.0258 14.6619 9.94108 14.3087 9.77165Z" stroke="#696969" stroke-width="1.4" stroke-linecap="round" stroke-linejoin="round"/>
</svg>
