<svg width="32" height="32" viewBox="0 0 32 32" fill="none" xmlns="http://www.w3.org/2000/svg">
<path d="M21.7414 22.7204C18.1079 24.4442 13.8922 24.4442 10.2587 22.7204C9.91921 22.5775 9.52821 22.7369 9.3854 23.0764C9.24253 23.4159 9.4019 23.8069 9.7414 23.9497C11.7127 24.8294 13.8417 25.3006 16.0001 25.335C18.1584 25.3002 20.2873 24.8289 22.2588 23.9497C22.5983 23.8069 22.7577 23.4159 22.6148 23.0764C22.4719 22.737 22.0809 22.5776 21.7414 22.7204Z" fill="#455A64"/>
<path d="M11.333 20C12.4376 20 13.333 19.1046 13.333 18C13.333 16.8954 12.4376 16 11.333 16C10.2284 16 9.33301 16.8954 9.33301 18C9.33301 19.1046 10.2284 20 11.333 20Z" fill="#FF9800"/>
<path d="M20.666 20C21.7706 20 22.666 19.1046 22.666 18C22.666 16.8954 21.7706 16 20.666 16C19.5614 16 18.666 16.8954 18.666 18C18.666 19.1046 19.5614 20 20.666 20Z" fill="#FF9800"/>
<path d="M32 15.333C32 13.4957 30.056 11.9997 27.6667 11.9997C26.6546 11.9947 25.6641 12.2913 24.8214 12.8517C22.3215 11.483 19.5269 10.7409 16.6774 10.689C16.5461 9.42098 16.9887 8.1606 17.8841 7.25304C18.8174 6.56504 20.4481 6.56235 22.6841 7.18904C22.6841 7.23835 22.6694 7.28373 22.6694 7.33304C22.6479 9.19523 24.14 10.7222 26.0022 10.7438C27.8644 10.7653 29.3914 9.27316 29.4129 7.41098C29.4344 5.54879 27.9423 4.02179 26.0801 4.00023C24.7805 3.98523 23.5879 4.71848 23.0147 5.88504C20.3361 5.13573 18.3894 5.22504 17.0947 6.17973C15.8381 7.3256 15.1911 8.99423 15.3468 10.6877C12.4889 10.7364 9.68581 11.479 7.17875 12.8517C6.33606 12.2913 5.34544 11.9947 4.33344 11.9997C1.944 11.9997 0 13.4957 0 15.333C0.120687 16.8609 1.23831 18.1242 2.74 18.4304C2.69169 18.7289 2.66712 19.0307 2.66669 19.333C2.66669 24.1117 8.648 27.9997 16 27.9997C23.352 27.9997 29.3333 24.1117 29.3333 19.333C29.3328 19.0311 29.3083 18.7297 29.26 18.4317C30.7621 18.1254 31.8799 16.8614 32 15.333ZM26 5.33304C27.1046 5.33304 28 6.22848 28 7.33304C28 8.4376 27.1046 9.33304 26 9.33304C24.8954 9.33304 24 8.4376 24 7.33304C24 6.22848 24.8954 5.33304 26 5.33304ZM3.10131 17.149C2.05062 16.8264 1.33331 16.113 1.33331 15.333C1.33331 14.249 2.70662 13.333 4.33331 13.333C4.87644 13.3299 5.41444 13.4374 5.91463 13.649C5.128 14.2322 4.44131 14.9392 3.88131 15.7424C3.80931 15.8437 3.73462 15.9437 3.66931 16.0477C3.58931 16.181 3.51731 16.3144 3.44662 16.4477C3.34262 16.6384 3.24663 16.8317 3.16263 17.029C3.144 17.0664 3.11731 17.1064 3.10131 17.149ZM16 26.6664C9.384 26.6664 4 23.377 4 19.333C4.00462 18.9215 4.06469 18.5125 4.17869 18.117C4.74881 16.4432 5.9265 15.0442 7.47869 14.197C7.49869 14.185 7.50938 14.1624 7.528 14.1477C10.108 12.6843 13.0344 11.9424 16 11.9997C18.9643 11.9416 21.8897 12.6822 24.4693 14.1437C24.488 14.1584 24.4986 14.181 24.5186 14.193C26.0703 15.0409 27.2478 16.4395 27.8186 18.113C27.9338 18.5097 27.9948 18.92 27.9999 19.333C28 23.377 22.616 26.6664 16 26.6664ZM28.9 17.149C28.8827 17.1037 28.8547 17.061 28.8347 17.0157C28.752 16.8237 28.66 16.6357 28.5587 16.449C28.4854 16.3157 28.412 16.1757 28.3294 16.041C28.2681 15.9437 28.1961 15.849 28.1294 15.753C27.5678 14.9447 26.8778 14.2335 26.0867 13.6477C26.5866 13.4368 27.1241 13.3297 27.6667 13.333C29.2934 13.333 30.6667 14.249 30.6667 15.333C30.6667 16.113 29.9493 16.8264 28.9 17.149Z" fill="#455A64"/>
</svg>
