<svg width="24" height="24" viewBox="0 0 24 24" fill="none" xmlns="http://www.w3.org/2000/svg">
<g clip-path="url(#clip0_143_20627)">
<path d="M23.6908 19.0486L13.8464 2.72242C13.4585 2.07925 12.7511 1.67969 12 1.67969C11.2489 1.67969 10.5414 2.07925 10.1535 2.72247L0.309161 19.0486C-0.0916668 19.7134 -0.103526 20.5463 0.278177 21.2222C0.659974 21.8981 1.37932 22.318 2.15557 22.318H21.8444C22.6206 22.318 23.34 21.8981 23.7218 21.2222C24.1035 20.5462 24.0917 19.7133 23.6908 19.0486ZM22.3612 20.4538C22.2561 20.6399 22.0581 20.7555 21.8444 20.7555H2.15557C1.94186 20.7555 1.74382 20.6399 1.63877 20.4539C1.53368 20.2678 1.53696 20.0385 1.64726 19.8555L11.4917 3.52933C11.5985 3.35228 11.7933 3.24227 12 3.24227C12.2067 3.24227 12.4015 3.35228 12.5083 3.52933L22.3526 19.8555C22.463 20.0385 22.4663 20.2678 22.3612 20.4538Z" fill="black"/>
<path d="M12.007 8.10938C11.4126 8.10938 10.9487 8.42831 10.9487 8.99372C10.9487 10.7188 11.1517 13.1977 11.1517 14.9229C11.1517 15.3723 11.5432 15.5607 12.007 15.5607C12.3549 15.5607 12.8478 15.3723 12.8478 14.9229C12.8478 13.1978 13.0507 10.7189 13.0507 8.99372C13.0507 8.42836 12.5724 8.10938 12.007 8.10938Z" fill="black"/>
<path d="M12.0216 16.5625C11.3837 16.5625 10.9053 17.0699 10.9053 17.6788C10.9053 18.2732 11.3837 18.7951 12.0216 18.7951C12.6159 18.7951 13.1234 18.2732 13.1234 17.6788C13.1234 17.0699 12.6159 16.5625 12.0216 16.5625Z" fill="black"/>
</g>
<defs>
<clipPath id="clip0_143_20627">
<rect width="24" height="24" fill="white"/>
</clipPath>
</defs>
</svg>
