<svg width="24" height="24" viewBox="0 0 24 24" fill="none" xmlns="http://www.w3.org/2000/svg">
<g clip-path="url(#clip0_201_24533)">
<path fill-rule="evenodd" clip-rule="evenodd" d="M12 0C5.38125 0 0 5.38125 0 12C0 18.6187 5.38125 24 12 24C18.6187 24 24 18.6187 24 12C24 5.38125 18.6187 0 12 0Z" fill="#132C4E"/>
<path fill-rule="evenodd" clip-rule="evenodd" d="M17.8027 7.95586C18.0934 8.24648 18.0934 8.72461 17.8027 9.01523L10.7715 16.0465C10.6262 16.1918 10.434 16.2668 10.2418 16.2668C10.0496 16.2668 9.85742 16.1918 9.71211 16.0465L6.19648 12.5309C5.90586 12.2402 5.90586 11.7621 6.19648 11.4715C6.48711 11.1809 6.96523 11.1809 7.25586 11.4715L10.2418 14.4574L16.7434 7.95586C17.034 7.66055 17.5121 7.66055 17.8027 7.95586Z" fill="white"/>
</g>
<defs>
<clipPath id="clip0_201_24533">
<rect width="24" height="24" fill="white"/>
</clipPath>
</defs>
</svg>
