<svg width="24" height="24" viewBox="0 0 24 24" fill="none" xmlns="http://www.w3.org/2000/svg">
<path d="M13.0815 10.5586L8.8389 14.8012" stroke="black" stroke-width="1.4" stroke-linecap="round"/>
<path d="M8.63624 15.6509L10.3777 17.9728C11.7691 19.828 12.4648 20.7556 13.3038 20.8009C13.5621 20.8148 13.8331 20.7699 14.0731 20.6732C14.8524 20.3594 15.2053 19.2749 15.9111 17.1059C16.2205 16.1552 16.5184 15.2007 16.7624 14.3468C17.1361 13.0389 17.6362 11.2195 18.1105 9.47474L18.1105 9.47473C18.6834 7.36692 18.9699 6.31302 18.5322 5.63798C18.3951 5.42664 18.2125 5.24396 18.0011 5.10693C17.3261 4.66924 16.2722 4.95571 14.1644 5.52863C12.4196 6.00287 10.6002 6.50302 9.29229 6.8767C8.43838 7.12067 7.48394 7.41856 6.53317 7.72795C4.36417 8.43376 3.27966 8.78667 2.96585 9.56602C2.86923 9.80599 2.82425 10.077 2.83819 10.3353C2.88345 11.1743 3.81107 11.87 5.6663 13.2614L7.98824 15.0029C8.1525 15.126 8.23463 15.1876 8.30898 15.2579C8.33373 15.2813 8.35782 15.3054 8.38121 15.3301C8.45145 15.4045 8.51305 15.4866 8.63624 15.6509Z" stroke="black" stroke-width="1.4"/>
</svg>
