<svg width="32" height="32" viewBox="0 0 32 32" fill="none" xmlns="http://www.w3.org/2000/svg">
<g clip-path="url(#clip0_211_21844)">
<path d="M0.696099 23.8334C1.34943 26.1508 3.3481 26.5748 3.48143 26.6561C6.77077 27.5521 25.2081 27.5548 28.5468 26.6561C30.8334 25.9948 31.2534 23.9668 31.3321 23.8334C32.2028 19.2014 32.2601 13.1628 31.2921 7.90677L31.3321 8.1681C30.6788 5.85077 28.6801 5.42677 28.5468 5.34543C25.3014 4.4641 6.8161 4.43077 3.48143 5.34543C1.19477 6.0081 0.774766 8.03477 0.696099 8.1681C-0.235901 13.0361 -0.282568 18.6214 0.696099 23.8334ZM12.8108 20.8694V11.1454L21.1654 16.0148L12.8108 20.8694Z" fill="#E53935"/>
</g>
<defs>
<clipPath id="clip0_211_21844">
<rect width="32" height="32" fill="white"/>
</clipPath>
</defs>
</svg>
